<mxfile host="app.diagrams.net" agent="Mozilla/5.0 (Macintosh; Intel Mac OS X 10_15_7) AppleWebKit/537.36 (KHTML, like Gecko) Chrome/138.0.0.0 Safari/537.36" version="28.0.6">
  <diagram name="第 1 页" id="lHM2aN1cSPajSc551-JW">
    <mxGraphModel dx="1730" dy="1026" grid="1" gridSize="10" guides="1" tooltips="1" connect="1" arrows="1" fold="1" page="1" pageScale="1" pageWidth="827" pageHeight="1169" background="none" math="0" shadow="1">
      <root>
        <mxCell id="0" />
        <mxCell id="1" parent="0" />
        <mxCell id="BevlEe6jvOrSzMGnIV_--45" value="" style="rounded=0;whiteSpace=wrap;html=1;dashed=1;dashPattern=8 8;shadow=0;perimeterSpacing=0;" vertex="1" parent="1">
          <mxGeometry x="263" y="130" width="707" height="430" as="geometry" />
        </mxCell>
        <mxCell id="BevlEe6jvOrSzMGnIV_--37" value="" style="rounded=1;whiteSpace=wrap;html=1;fillColor=#FCFCFC;strokeColor=none;glass=1;shadow=1;gradientColor=#ECECEC;" vertex="1" parent="1">
          <mxGeometry x="273" y="240" width="686" height="80" as="geometry" />
        </mxCell>
        <mxCell id="BevlEe6jvOrSzMGnIV_--36" style="edgeStyle=none;curved=1;rounded=0;orthogonalLoop=1;jettySize=auto;html=1;entryX=0;entryY=0.5;entryDx=0;entryDy=0;fontSize=12;startSize=8;endSize=8;flowAnimation=1;" edge="1" parent="1" source="BevlEe6jvOrSzMGnIV_--28" target="BevlEe6jvOrSzMGnIV_--16">
          <mxGeometry relative="1" as="geometry" />
        </mxCell>
        <mxCell id="BevlEe6jvOrSzMGnIV_--28" value="" style="rounded=1;whiteSpace=wrap;html=1;shadow=1;glass=1;fillColor=#FEDD4F;" vertex="1" parent="1">
          <mxGeometry x="841" y="334" width="120" height="120" as="geometry" />
        </mxCell>
        <mxCell id="BevlEe6jvOrSzMGnIV_--34" style="edgeStyle=none;curved=1;rounded=0;orthogonalLoop=1;jettySize=auto;html=1;entryX=0;entryY=0.5;entryDx=0;entryDy=0;fontSize=12;startSize=8;endSize=8;flowAnimation=1;" edge="1" parent="1" source="BevlEe6jvOrSzMGnIV_--27" target="BevlEe6jvOrSzMGnIV_--14">
          <mxGeometry relative="1" as="geometry" />
        </mxCell>
        <mxCell id="BevlEe6jvOrSzMGnIV_--27" value="" style="rounded=1;whiteSpace=wrap;html=1;shadow=1;glass=1;strokeColor=#E7E7E7;fillColor=#C1C1C1;" vertex="1" parent="1">
          <mxGeometry x="561" y="334" width="120" height="120" as="geometry" />
        </mxCell>
        <mxCell id="BevlEe6jvOrSzMGnIV_--32" style="edgeStyle=none;curved=1;rounded=0;orthogonalLoop=1;jettySize=auto;html=1;entryX=0;entryY=0.5;entryDx=0;entryDy=0;fontSize=12;startSize=8;endSize=8;flowAnimation=1;" edge="1" parent="1" source="BevlEe6jvOrSzMGnIV_--26" target="BevlEe6jvOrSzMGnIV_--12">
          <mxGeometry relative="1" as="geometry" />
        </mxCell>
        <mxCell id="BevlEe6jvOrSzMGnIV_--26" value="" style="rounded=1;whiteSpace=wrap;html=1;strokeColor=default;gradientColor=none;shadow=1;glass=1;fillColor=#994C00;" vertex="1" parent="1">
          <mxGeometry x="273" y="335" width="120" height="120" as="geometry" />
        </mxCell>
        <mxCell id="BevlEe6jvOrSzMGnIV_--31" style="edgeStyle=none;curved=1;rounded=0;orthogonalLoop=1;jettySize=auto;html=1;exitX=1;exitY=0.5;exitDx=0;exitDy=0;entryX=0;entryY=0.5;entryDx=0;entryDy=0;fontSize=12;startSize=8;endSize=8;flowAnimation=1;" edge="1" parent="1" source="BevlEe6jvOrSzMGnIV_--25" target="BevlEe6jvOrSzMGnIV_--26">
          <mxGeometry relative="1" as="geometry" />
        </mxCell>
        <mxCell id="BevlEe6jvOrSzMGnIV_--25" value="" style="rounded=1;whiteSpace=wrap;html=1;fillColor=#dae8fc;strokeColor=#FEFFFD;gradientColor=#FFFFFF;glass=0;shadow=1;" vertex="1" parent="1">
          <mxGeometry x="100" y="334" width="120" height="120" as="geometry" />
        </mxCell>
        <mxCell id="BevlEe6jvOrSzMGnIV_--35" style="edgeStyle=none;curved=1;rounded=0;orthogonalLoop=1;jettySize=auto;html=1;entryX=0;entryY=0.5;entryDx=0;entryDy=0;fontSize=12;startSize=8;endSize=8;flowAnimation=1;" edge="1" parent="1" source="BevlEe6jvOrSzMGnIV_--14" target="BevlEe6jvOrSzMGnIV_--28">
          <mxGeometry relative="1" as="geometry" />
        </mxCell>
        <mxCell id="BevlEe6jvOrSzMGnIV_--14" value="" style="rounded=1;whiteSpace=wrap;html=1;fillColor=#f8cecc;strokeColor=#B80B0B;gradientColor=#FFFFFF;glass=1;shadow=1;" vertex="1" parent="1">
          <mxGeometry x="696.63" y="334.5" width="120" height="120" as="geometry" />
        </mxCell>
        <mxCell id="BevlEe6jvOrSzMGnIV_--15" value="Data Transform" style="text;html=1;align=center;verticalAlign=middle;resizable=0;points=[];autosize=1;strokeColor=none;fillColor=none;fontSize=16;" vertex="1" parent="1">
          <mxGeometry x="692.63" y="334.5" width="130" height="30" as="geometry" />
        </mxCell>
        <mxCell id="BevlEe6jvOrSzMGnIV_--33" style="edgeStyle=none;curved=1;rounded=0;orthogonalLoop=1;jettySize=auto;html=1;entryX=0;entryY=0.5;entryDx=0;entryDy=0;fontSize=12;startSize=8;endSize=8;flowAnimation=1;" edge="1" parent="1" source="BevlEe6jvOrSzMGnIV_--12" target="BevlEe6jvOrSzMGnIV_--27">
          <mxGeometry relative="1" as="geometry" />
        </mxCell>
        <mxCell id="BevlEe6jvOrSzMGnIV_--12" value="" style="rounded=1;whiteSpace=wrap;html=1;fillColor=#f8cecc;strokeColor=#b85450;gradientColor=#FFFFFF;glass=1;shadow=1;" vertex="1" parent="1">
          <mxGeometry x="418.46" y="334.5" width="120" height="120" as="geometry" />
        </mxCell>
        <mxCell id="BevlEe6jvOrSzMGnIV_--1" value="" style="html=1;verticalLabelPosition=bottom;align=center;labelBackgroundColor=#ffffff;verticalAlign=top;strokeWidth=2;strokeColor=#0080F0;shadow=0;dashed=0;shape=mxgraph.ios7.icons.cloud;" vertex="1" parent="1">
          <mxGeometry x="135" y="394" width="50" height="30" as="geometry" />
        </mxCell>
        <mxCell id="BevlEe6jvOrSzMGnIV_--2" value="Ergast API" style="text;html=1;align=center;verticalAlign=middle;resizable=0;points=[];autosize=1;strokeColor=none;fillColor=none;fontSize=16;" vertex="1" parent="1">
          <mxGeometry x="110" y="341.13" width="100" height="30" as="geometry" />
        </mxCell>
        <mxCell id="BevlEe6jvOrSzMGnIV_--3" value="" style="image;aspect=fixed;html=1;points=[];align=center;fontSize=12;image=img/lib/azure2/analytics/Azure_Databricks.svg;" vertex="1" parent="1">
          <mxGeometry x="462.52" y="364.5" width="36.48" height="39.5" as="geometry" />
        </mxCell>
        <mxCell id="BevlEe6jvOrSzMGnIV_--4" value="" style="image;aspect=fixed;html=1;points=[];align=center;fontSize=12;image=img/lib/azure2/databases/Data_Factory.svg;" vertex="1" parent="1">
          <mxGeometry x="449" y="250" width="50" height="50" as="geometry" />
        </mxCell>
        <mxCell id="BevlEe6jvOrSzMGnIV_--5" value="" style="image;sketch=0;aspect=fixed;html=1;points=[];align=center;fontSize=12;image=img/lib/mscae/Data_Lake.svg;" vertex="1" parent="1">
          <mxGeometry x="317" y="397.5" width="38" height="50" as="geometry" />
        </mxCell>
        <mxCell id="BevlEe6jvOrSzMGnIV_--6" value="ADLS Gen2&lt;br&gt;Raw Layer&lt;div&gt;(Bronze)&lt;/div&gt;" style="text;html=1;align=center;verticalAlign=middle;resizable=0;points=[];autosize=1;strokeColor=none;fillColor=none;fontSize=16;" vertex="1" parent="1">
          <mxGeometry x="283" y="334" width="110" height="70" as="geometry" />
        </mxCell>
        <mxCell id="BevlEe6jvOrSzMGnIV_--7" value="" style="image;sketch=0;aspect=fixed;html=1;points=[];align=center;fontSize=12;image=img/lib/mscae/Data_Lake.svg;" vertex="1" parent="1">
          <mxGeometry x="601" y="395.5" width="38" height="50" as="geometry" />
        </mxCell>
        <mxCell id="BevlEe6jvOrSzMGnIV_--8" value="ADLS Gen2&lt;div&gt;Ingested Layer&lt;br&gt;(Silver)&lt;/div&gt;" style="text;html=1;align=center;verticalAlign=middle;resizable=0;points=[];autosize=1;strokeColor=none;fillColor=none;fontSize=16;" vertex="1" parent="1">
          <mxGeometry x="555" y="331.5" width="130" height="70" as="geometry" />
        </mxCell>
        <mxCell id="BevlEe6jvOrSzMGnIV_--9" value="" style="image;sketch=0;aspect=fixed;html=1;points=[];align=center;fontSize=12;image=img/lib/mscae/Data_Lake.svg;" vertex="1" parent="1">
          <mxGeometry x="885" y="396.25" width="38" height="50" as="geometry" />
        </mxCell>
        <mxCell id="BevlEe6jvOrSzMGnIV_--10" value="ADLS Gen2&lt;div&gt;Analyze Layer&lt;br&gt;(Gold)&lt;/div&gt;" style="text;html=1;align=center;verticalAlign=middle;resizable=0;points=[];autosize=1;strokeColor=none;fillColor=none;fontSize=16;" vertex="1" parent="1">
          <mxGeometry x="841" y="331" width="120" height="70" as="geometry" />
        </mxCell>
        <mxCell id="BevlEe6jvOrSzMGnIV_--11" value="" style="image;aspect=fixed;html=1;points=[];align=center;fontSize=12;image=img/lib/azure2/analytics/Azure_Databricks.svg;" vertex="1" parent="1">
          <mxGeometry x="737.85" y="364.5" width="36.48" height="39.5" as="geometry" />
        </mxCell>
        <mxCell id="BevlEe6jvOrSzMGnIV_--13" value="Data Ingestion" style="text;html=1;align=center;verticalAlign=middle;resizable=0;points=[];autosize=1;strokeColor=none;fillColor=none;fontSize=16;" vertex="1" parent="1">
          <mxGeometry x="414" y="334.5" width="130" height="30" as="geometry" />
        </mxCell>
        <mxCell id="BevlEe6jvOrSzMGnIV_--16" value="" style="rounded=1;whiteSpace=wrap;html=1;shadow=1;glass=1;strokeColor=#5F5E6A;gradientColor=#FFFFFF;fillColor=#F0D1FF;" vertex="1" parent="1">
          <mxGeometry x="1003" y="331" width="175" height="120" as="geometry" />
        </mxCell>
        <mxCell id="BevlEe6jvOrSzMGnIV_--17" value="Data Analyze" style="text;html=1;align=center;verticalAlign=middle;resizable=0;points=[];autosize=1;strokeColor=none;fillColor=none;fontSize=16;" vertex="1" parent="1">
          <mxGeometry x="1030.49" y="330" width="120" height="30" as="geometry" />
        </mxCell>
        <mxCell id="BevlEe6jvOrSzMGnIV_--19" value="" style="shape=image;verticalLabelPosition=bottom;labelBackgroundColor=default;verticalAlign=top;aspect=fixed;imageAspect=0;image=data:image/png,iVBORw0KGgoAAAANSUhEUgAADwAAAAhwBAMAAABikNZBAAAAFVBMVEVHcEwAQoFIkaL/dx9WZZTpHDL/khl6g+etAAAAAXRSTlMAQObYZgAANhxJREFUeNrs3T+PJEeaH+D35Q7lTjRkixjx7gMIWFcQFoJs4ZyTKegcfShZ55+zjryFQF84YD/ALncAnd9h35IMGZHVM8OZ6a6qrsyKjHwe9Da5zZ6ayqiM+MWbkX8iAAAAAAAAAAAAAAAAAAAAAAAAAAAAAAAAAAAAAAAAAAAAAAAAAAAAAAAAAAAAAAAAAAAAAAAAAAAAAAAAAAAAAAAAAAAAAAAAAAAAAAAAAAAAAAAAAAAAAAAAAAAAAAAAAAAAAAAAAAAAAAAAAAAAAAAAAAAAAAAAAAAAAAAAAAAAAAAAAAAAAAAAAAAAAAAAAAAAAAAAAAAAAAAAAAAAAAAAAAAAAAAAAAAAAAAAAAAAAAAAAAAAAAAAAAAAAAAAAAAAAAAAAAAAAAAAAAAAAAAAAAAAAAAAAAAAAAAAAAAAAAAAAAAAAAAAAAAAAAAAAAAAAAAAAAAAAAAAAAAAAAAAAAAAAAAAAAAAAAAAAAAAAAAAAAAAAAAAAAAAAAAAAAAAAAAAAAAAAAAAAAAAAAAAAAAAAAAAAAAAAAAAAAAAAAAAAAAAAAAAAAAAAAAAAAAAAAAAAAAAAAAAAAAAAAAAAAAAAAAAAAAAAAAAAAAAAAAAAAAAAAAAAAAAAAAAAAAAAAAAAAAAAAAAAAAAAAAAAAAAAAAAAAAAAAAAAAAAAAAAAAAAAAAAAAAAAAAAAAAAAAAAAAAAAAAAAAAAAAAAAAAAAAAAAAAAAAAAAAAAAAAAAAAAAAAAAAAAAAAAAAAAAAAAAAAAAAAAAAAAAAAAAAAAAAAAAAAAAAAAAAAAAAAAAAAAAAAAAAAAAAAAAAAAAAAAAAAAAAAAAAAAAAAAAAAAAAAAAAAAAAAAAAAAAAAAAAAAAAAAAAAAAAAAAAAAAAAAAAAAAAAAAAAAAAAAAAAAAAAAAAAAAAAAAAAAAAAAAAAAAAAAAAAAAAAAAAAAAAAAAAAAAAAAAAAAAAAAAAAAAAAAAAAAAAAAAAAAAAAAAAAAAAAAAAAAAAAAAAAAAAAAAAAAAAAAAAAAAAAAAAAAAAAAAAAAAAAAAAAAAAAAAAAAAAAAAAAAAAAAAAAAAAAAAAAAAAAAAAAAAAAAAAAAAAAAAAAAAAAAAAAAAAAAAAAAAAAAAAAAAAAAAAAAAAAAAAAAAAAAAAAAAAAAAAAAAAAAAAAAAAAAAAAAAAAAAAAAAAAAAAAAAAAAAAAAAAAAAAAAAAAAAAAAAAAAAAAAAAAAAAAAAAAAAAAAAAAAAAAAAAAAAAAAAAAAAAAAAAAAAAAAAAAAAAAAAAAAAAAAAAAAAAAAAAAAAAAAAAAAAAAAAAAAAAAAAAAAAAAAAAAAAAAAAAAAAAAAAAAAAAAAAAAAAAAAAAAAAAAAAAAAAAAAAAAAAAAAAAAAAAAAAAAAAAAAAAAAAAAAAAAAAAAAAAAAAAAAAAAAAAAAAAAAAAAAAAAAAAAAAAAAAAAAAAAAAAAAAAAAAAAAAAAAAAAAAAAAAAAAAAAAAAAAAAAAAAAAAAAAAAAAAAAAAAAAAAAAAAAAAAAAAAAAAAAAAAAAAAAAAAAAAAAAAAAAAAAAAAAAAAAAAAAAAAAAAAAAAAAAAAAAAAAAAAAAAAAAAAAAAAAAAAAAAAAAAAAAAAAAAAAAAAAAAAAAAAAAAAAAAAAAAAAAAAAAAAAAAAAAAAAAAAAAAAAAAAAAAAAAAAAAAAAAAAAAAAAAAAAAAAAAAAAAAAAAAAAAAAAAAAAAAAAAAAAAAAAAAAAAAAAAAAAAAAAAAAAAAAAAAAAAAAAAAAAAAAAAAAAAAACukRNu0/cf/58ffcYADOgbTQAAAhgABDAAIIABQAADAAIYAAQwACCAAUAAAwACGAAEMAAIYABAAAOAAAYABDAACGAAQAADgAAGAAQwAAhgABDAAIAABgABDAAIYAAQwACAAAYAAQwACGAAEMAAIIABAAEMAAIYABDAACCAAQABDAACGAAQwAAggAFAAAMAAhgABDAAIIABQAADAAIYAAQwACCAAUAAA4AABgAEMAAIYABAAAOAAAYABDAACGAAQAADgAAGAAEMAAhgABDAAIAABgABDAAIYAAQwACAAAYAAQwAAhgAEMAAIIABAAEMAAIYABDAACCAAQABDADjyP1NGd7d+AV/tBcAoAIGAAEMAKzizTZ/zX/77Cf/+vu9T13eff6jP9mhABgqgMvnATxhY/5ifwLg3DpOEwCAAN6RFrW2T75pEwDO9UYTXCv7gfVffQMAFfDKFXC0iPrRNwAQwBtUwC2jlo++aRMABPD6akaU+OQbAAjgtfO3fHIA2klYAAjgLZT24QB0i5JOwgJAAG8hPxx7zghnYQEggLfQoraoyyHoFlUFDIAA3qYAzijZotSMjKICBkAAb6FG1NYPQteIpgIGQABvkb8laskexKU2FyEBIIC3UFqUiNbvwFEyqhtxACCAN5DRomaUyBYRUdTAAAjg9S3pW1tU5S8AAni7ArhEi9rvwOEQNAACeCO1l8Cnu1A6BA2AAN4if8vpJKzTkWhtAsC53uzuHf/y40ub9N3H/+/H1d5IaVnfZkaJWiL6FwActgL+aau/KE8rv6VXvypgAI4cwFt5WvmtkVGaChgAAbxRAdyfxVBaRKQ1YAAE8CZqvxVliez3hFYBAyCAN8jfEiWWi5BO94QGAAG8srI8BTij9AcDq4ABEMAbyJZRevT2E6I1CQACeHUtMpZrkaJfjaRNABDA6xfAcboLZYtanAUNgADexnLsebkjtLOgARDAm+RvyV4Cl2j9gmBtAoAAXl1psZTAy0KwChgAAbyBjIxYqt/TPwBAAK+r9VOw8ul20J4HDIAA3qIA/vAg4OIcaAAE8EZq1GUV+PQ8JAAQwKvnb4lS++W/pS235QAAAbyy/gjgfifo9DhCAATwRjJqtIgoGW25GwcACOCVtYhSs199lFHCGjAAAnijAric6t8WNSUwAAJ4A7VffFTbckGSs7AAEMBb5G+/+KiXwOEQNAACeAu9/s1lCbg2BTAAAngLGaVFPw2r9vtRAoAAXtvp7Oe+ANw8DQkAAbxNAVxbRIvaz4FWAAMggLdRst9/o98OukhgAATwBmpElOhLwFGaQ9AACOBNCuAWtfUl4NoiXYcEgADeQOtPBG7Rz4H2OCQABPAWsp3OviotanMnSgAE8DYJfDr7qv+bAhgAAbyB5QHApfYHIlXXIQEggLcpgPs9sKJki1qcBQ2AAN7Gcg+s2u9KCQACeH3LIeiaUWq4DAkAAbyN/iyGKLVFaRkehwSAAN5Ebf0k6IzIiCJ/ARDAWygZyyOQarSoDkEDIIA30CJqixa1RakZpSqBARDA68vWb79RMqJEdRUSAAJ4mwSOiKebcJRwCBoAAbyBfivo0004WjgEDYAA3qQALhklIqP0W3FoEgAE8DZq6ydiLY8GBgABvEX4ltNzkDKK5xECIIA30A9A9xq4RoTnEQIggDeugR2CBkAAb6R9qIHbcjkwAAjgtWVP4doXgUMJDIAA3kRtUTPKaRlYCQzA+d5ogqvzt0SUaBklli8AUAGvrkREi+xrwOEsLAAE8FY1cMtlDdhZWAAI4I2cHoYUUSOXS4EBQACvLJcTn1uUFhnFIWgABPAWapSM2jJqLv8HAATw6vlbWj8MHaWfEu0gNAACeH2lZWS0fv5ziepCJAAE8BYyorY8PQipqIABEMAbaBG1ZD8RK1s0FTAA53MnrNcUwCX6AvDbzMioEhju3i+/2g2bY1SogKfR7wHdIkpGswYMw0+ZQQBPkr/9UcAZNWpLa8AACOBNlBY1okaUfj2wChhG5k45COB5ZJSoZXkKQ0kVMIzdYUEAzzOfblH6Uxh6BmsTAATwBvPpmv2wVjudhgWMPGUGATyLUvvzgDNa1FQBw9hTZhDAs+gPY4iS0ZanEgKAAF6/AG4RtdQWkVGb+3DA0ByCRgBP1J0zaunLv1EcgYaxOQSNAN7Au2+evlbcvuUJDL0AjqjNBBuAs814L+gff4x4+lp1Qt0ySrSspbRUAANw9Ap4Gy1atojIKDXchgOG77EggCeRkZHR+k0oaxT9G8busSCAZ1GXy38z2nJJMAAI4NXzt9SMUiNqS/eCBkAAb6REiYjS78QRrgOGsVkjQgDP1aNrvx1HhuuAYWzWiBDAM6VvvwqpLZcDOwQNgADeYj5d+vpvRtSSTQkMgADeQm1Rl+cQloi0xAQj00ERwPPkb8koUfuNOFpUS0wwMh0UATyNEhEtSo2I0wVJAHCmbe4F/e2E7fCf/pL1bUaUlrWUaFlaXv4qP9kFAY7pmqMy/+Z/3Oe9/us/rvfa31/551p+/I/L/fLePgi3HNK+ejJkc5CKwTgE/dQ7L/6qETVb1BY1I/pdoS99FWDgagME8AZqtrjsK0qLEhn9XKzW/+3SVwFAAB9biYx60VeLfKpja8mo0e+JddEXAAL44BVwiyhRL/jKFi2yH4UuPcLbhS/h5lmwGQecEMCjVsDZn6dw/tfyOOASyyHoGjXjopdw8yzYjgNOzLBPTnkWdMsLz2Sub7OWltHy9BikWi4/G9pZ0HDbIe3rs9pHrYMKeET9ls79lOZzviJKRs/fKMv5z6VFXvQS1TExABXw0SvgjyrZ8wL76bc/+mMXFcAtVcCwXQXsOmBUwIOqy0rumRcAZ5RTIfv0x2pktLjgJZwVAmNXGyCAN1AiWpRs51yNVHrwLpcAtyj9XOjSH0549ks0IwKAAKa2jP5QwdKi1K9/X7I3ImrU/sdqlOWpwBH17JfwAEMAAUwt2c+OyoiMKPWr36PU5ShyidIfCFxq9BTuR6TPe4l2/R2kgYuZ7yKAB1UiloPKp5Xdr3yvyyHnKMsCcA/V1g9Ml+V/Z7xEOgING9LfEMDDzo7rR7eVLMtZWV/4XjL6TbOiH4cuta8e9/yO/HB/6OdfovZ7VwIggA+dv7nUta0fSG5RvvC952Z7iuAWvfLNJcJP/2svvURklCjuBQ0ggI8u47R+2w8SZ0T9/HvLZdW3/1YvdZeCtmWUeqp/2wsv0Ytt94KGDWfZmgABPKbai9Ryesxgi/L596VAjvxw/+cWNWJJ4ij9cuCoGc+/RL9uKap7QcOWs2wQwAPqAVqXW2S06CdjffZ9OUerRfuw5ttzuB96znbK7/rcSyyPP5S/AAKY6CcnlxY1+iHmL3x/ugFHRjtlcUZp2ZZDz9lj9nSS9FdeImpEjeKYGIAAlr798HCL7Nfrlh6tn3yPp4uAWz/M3E/disge2ZER2Z6OU3/1JfqjCKtjYrAd810E8KBK9ps5Z/QbWS0HpT/9vpSwLfuR5+UW0OXTu0Pn0zORvvoS/cZZxdOQYDvmuwjgUSvgnru1Rc1oGTXiw0MDT9/7tbzLf812ugX0J3eHblGXi5rK11+irxoXIwKAAD58BVyXZdwo0U4nMfczop++R0TrN3wudTkGvawFf5S3/THBsZyU9flL9MuBS12enATAMb3RBKcEjmzZMurb7CVwiZb9ot/l0t+sbzOj9Lt2RJSopWV9my1Lfdt/r0TE8u9vl1/99CVallqivs3SD2TDvXz9wbnxOOUGm++iAh61by6rt7VkOz1csD9sMJf7Ti7Hl/sx6l4Lt+WE6A93h14q5OW64P6HP36JjKd7UeZyDTGwyYxDEyCAB+2b5XR97nI75xalRots0f+1LnmaUepy1VFk/2ltER9S+qMV3/6HP7zEcovKvoIcy82kARDAh7Y80Kjf7rmvA7eMmsti7+mWz6dn+dbl+UY1Tw9XKP0GHfWjFd/Tn68Z/SaWtZwyWgEMIIBZYjVKtozydKON5YDx0zVFHz1lsN/4uS3/teWHhwyWfj3T02MN+1eLD7/dD1NXBTBsyBowAnhQpVe0dUnO5W5YH67nLadznVvUJW1P67hLXPdj2LV9ePRRXwCuy207+m9HL4Nb1J7FwDasASOAx03gXB6YUEu/o3Mud7pabn5VS7Q4Ldwup1HVdlr0zegLwac0rtmTN09VdetFb21P68zVdcAAAvjw6kfX8cZyR+cWcbpHZc2+3Ls87ajfUqMuq7+9QM7Tk4Dbh3Od+1JxRiyPGj79ifYh0AEQwIcugJeoXc7ByrZUuD0x++MTejI/3Vijr+yebm3VD01ne7pYqd9oo/QnDPeEjtKfVbisFVcVMGzGfJfRbBMB3/7DZz/6138cqh2+j/Z5U/THBdayfKulvn36pdZvrxG11PL0R2up5emFWp6+9T9f32Z/lXh6qZa/vLcPcqe+P+eNOA53fxFUwC/46/gNUfuNM5brkNqyVlujX5tU+1lXpT/Wt0Vt2c98Xu4q2U+nqiVK1Oy3mGzZbwrdTreZXs7JKv16p9IvBAZABbym/zl6BXzF1OXdx2Vyv+nkj3YolIo2C0aqgOfUr1ZaHkLYXNULQ7MGjACeJ39Lns5rLp6rAMPXxpoAATyL03nNy3nTbqsBgADepgT+8CTgkm6rAcAlPA/4NSVwy9MDgMMK8HOnvzSPneDuHKJCBTxRd64ZpztX1uYQNIw9QdQECOB5unNZ7gX9dNdoABDAW5TApzs7L7eHBgABvHr+9rtAZ5R8emIhMO6MGQTwJJYF4IiIKC1CBQyD91gQwJOocXoYcIt8ymIAEMCr5m8P3376VXUEGgABvInTA45ieV5ws8QEA9NBEcDzyNODCzNaRElLTDByh9UECOB55tMZpZ8EHcszgAFAAG8yny7RLwHOSBEMgADeQj//ebkEuDZHuGBkZsgI4Hnyt5//XNrpnliuA4aBmSEjgKdRlgI4W/QYdh0SAAJ4kwl1L4Az6nJKNAAI4LW1iH43rKiltnAnDhi/x4IAnqMAbj16a+mPIlQBw9A9FgTwLGpGeToFOpoKGAABvEX+lmjL04BLRnMWNAACeAul336jZNQWLZ0FDUOzBowAnqg7l4ja+gXBGc6ChqFZA0YAT9SdW9SSPYfDWdAACOCNSuCMEpERLUptzoIGQABvlL+1Re2XApeMqgKGkXusJkAAz6LHbnm6JaX8hcF7LAjgSdTW/9dvSVmbCTYAAniD/C3ZT8KqLWpESRNsAATw+ko/7HyqfzUIDE0fZTRv5tqc337xpz//cZXunKVlfZsta4kSUd8qgWFc+icq4Im6c8soGb3+rf2BDAAggFfWMiJqi7Y8FxgABPAm+ds+ug1lSmAYusdqAgTwLLLffrLfiaM0CQyj91gQwJNYLj+qpfW7YenfAAjgDfK35HIpUi53wwIAAby60qJGL3+Xq4GBcZkiI4DnkVF6+bs8lEH/hqE7LAjgiebT9cNlSEpgAATwNvPpFiVKtoywBAyAAN5KXS4A7tchuQoJhqaHIoDnyd8SbTkPukWNKoFhZNaIEMDTKFEzatQS9XQ6FgAI4C0iOEqUqMUiMAACeCvt6V5YUZvrgGH8HgsCeA7Z74W1PIlQCQyj91gQwLPoh57744DdCgsAAbxd/taM2noBHFG1CQACeHWlRS3RC9+aUaNoExiXNSIE8DwySkSNWIJYAQxjd1gQwNPMp2uLWlp/GqEEBkAAb1UAZ5TIFhHZHIIGQABvo0b085/r07nQwKh0UATwPPlbWpRcLgPuzyQEhqWDIoCnUSI/XAbc0vwaAAG8iXZa+81oGc38GgABvEX+Lg8C7uvAkW7EAYPPmEEAzyFjufwo+wVJzoKGwXssCOBJ1BY9e/sFSQpgAATwFvlbcsnefk8OCQyAAN5AWc7BilMMOwQNA7MGjACeqARukVH6gxiiOgcLhmYNGAE8UQmcHz2IoTgEDYAA3qQAjhp1eSJSqdEcggZAAG9RAEeJ0qI/EalU1wHD0KwBI4BnKoFbZGSUyIgSVQUMA7MGjACeqASu/TLgqNGi9btyAIAAXrsALpFRskVpGdlMsAEQwFsUwK1fe9QfxRCpAIaR6aEI4HlkPwurtoyaVphg9A4LAnia+XR/DlK/CVZtzoIGQABvUwBntCWIa0nXAQMggLdQW/SjzyX7oWhNAuPSQRHA8+RvyX4BcOunYhVLTDAwHRQBPI3SokWLqBnFCjAAAni7CXVG9ltAlx7CACCA19aiRUQuJ2GFQ9AweI8FATxRAdzPwyp5WgkGxu2xIIBn0ave7AVwdRkSAAJ4k/wtUSNaXwDujwUGAAG8ttKi1JZRW0Trz2YAhmUNGAE8j+wnXpWMmi2KChgG77AwlDea4Or5dNa3GfVtRpTIiLMr4De/+9UP/qAxAVTAnD+fLhm1ZF8JvuBWHL978QcACGC+qraI0qKvBF/wMIb3mg62Zw0YATxP/paM2o8953Ia1nneaTvYnjVgBPA0SsTTQ5BaZFQVMABnu+wkrDfvvov45n3EdxHxyw+Hr4HfZkaJlrW0PDt/VcAAXBrAv/zy/kMR98vBm65l6WdCZ5TIKGeXwO8lMNyhx2oCBuMQ9NUyTmdCR78R9LklsPyFO/VYEMBzOF151M+CPv8+HO81HQAC+Pr8XR4CXKNkRI3iLGgABPD6SvTsXUK4ug4YRmYNGAE8UXeupUX0pyG1Cx7FoAKGO7AGjACeqDuXyH4dcI3sN8ZSAQMggNdW29MNoaO2KOdOsFXAAAjgVyi5PIOhLP+uAoZxWQNGAM9UAOey/rvUwipgGJc1YATwRAXwsu57uhvHuVTAR9tTHvLLX0XbwJE7iQB+VRFc8vQwhtI8DYkvF179QMmXvoAjd5I3PvprLc9fKBH1bV5yCNq9oGfycPqXx6MMlSUiotUd9lh76x0r3Izllr0I4JsMRFFa1rdZS+lpfO7DGOTvTEn0aRI/HmV7c4ebmzvam9o0SfXwySfwMNW2CeB7qiWjRJT6NiOjqIAPWfh+9uMph5csX9vcR/vCGntTzrAnfWWvyQcZvHEA/6/5Wu6b73/55pf2/979+d9HfPPnv4k//0389KMK+NDxuwwv040uD8/+N4PpKjHVQ/hxvs2atJOogLf10x8iIuJP8ZeIiL9E/6cK+ODxO9/okuXFzd1JSrQdNu9e5zfz7DUCeDbyd+r4nWF0+fBkryxnNckuNnfANeAzmneX+9LDzvaaZz6HKydAD+e9oMuQtvdeE+y4Hnw4s/+VOba2HGlzt8+pMmXjHquTvIoAVgFz6xHzkkFohvg9t1Lmul1kZ/vSoTqJAFYBM9qI2cehw0w2djKWtv227572pUN1EgGsAmar/L2wytv1EbaHi4fG4cfSsdaAH+bcly6diB38MLQAVgGzTv7u+LhsXlXPWtJb8YDBTvalA3USAawCZuShZceDS9msiexMMzXuoTqJAFYBM/LQcrizTMYeS9u+22kHQXVlJzlwAgtgFTBrDhISeJw3t/NWGj6orn2DBz4ZWgCrgFl17JPA3KiNBm/c13SSo+42AlgFzLojX9FU3GaHGPsAg09eAKuAMbTct7GGfWeDrAE/zLkn6iQCWAXMWCXLEQ17zD0naJ7USQQwKmCJgva6Q+M8+NAFMCrg40hNoBgaZ2cqOokARgV8mCFTnEzSZG2KlhmycXUSAawCRjmnHhr6XZVJG1cnEcAqYA6TJaOzIrhiszzoJAIYFbACGM12h5warXEdgBbAKmCUcsbk59x9DfhWbTJawSl/BbAKmIFrFi3nLd3w7y/aVQCjAp6eub2mG/CgwFjHF3zSAlgFjLm9tjvKjCR90AIYFbAxk9003n3XgHPSxnUGlgBWAWNur/WGfkNl0saVvwJYBYyxRfMdaTpSJt0uAYwKGGOL9hs6MHPS7RLAqIAxtszXgPdcA85JG9ckSwCrgDG2aMGh306ZtHFNUgWwChhjiyY82lSkTLpdAhgVMMYWbTh0WOak2yWAUQFjbJmtEe+3Bpz2UASwChjF23Fb8X5vpkzauDqJAFYBo7zQjKYhPl0BjArYmAmb5FTRSQQwKmBjJjsYo9tsbZA6iQBGBQw7GKRzuiYoh2xPAYwKWOGGljx0CyiABbAKGGOLppTtCGBUwAY2RnWnNeCy09fWSQSwChhMZvb8ThyBRgCrgDG2aMzZNv+O6a4AvoU3mkAFHJErD5L5cItXadXYAp/Ee9UGKmBUwDD4dKYdeut3VdmrgDlSBczrxpZWI+Jh8lZ5XP558XaOUqXlLvalqG9z8G267i++ev8RwHfw7V8v/vq7/x3/4Y9ffK2rXu7bv65VAUvgmUq2x0//Zcrh5ZOD/48G0XWbuUacvyq0j2PQH+9Aj+sveQngV/pt/Obni7/+7X+PP355QL3q5X7zc/yzCpgz4/ejH8yWTl9Ye3+8ZCOPvKSe1+5K7XHs/ai8ppOMvnEq4Pj58q8/3vC1fo74ea0FchXw4M4fW758Wthco8tXTn27ZCMHqdLayPvStbOcO81urp5YPP1UFTx0AI/gl3VeVv7OUrQ8fvU/zDO6PMY0GzlyJT7vVO5rO1B7VAQ7C/oejfNey85RGj5e999m2cbzLws77jHoc7f8sV48/7m4xr5LZf/cDvQYCGAVMFeNLS/EzxSjy2O9Pp65xWGGne9Hz3eSRxcxC2AVMCtk0wwJfEa+nrmRYxyrvsMa8Hkb/viaJr7L4YW8TSdph09gAawC5oqx5Yzk2fv8/qz3/zjdJzvcvvTSxzDuSvzLO8fhj6E4CevWs5P/cvkf+ZcX/8xPP/g0hipazho3Wt3xqVjnFidnnUrj3p6v2JdG3I1u10kOfiqWCnj7ClhJvHvtpr+22/J3dzXwiDnVXvsbue9Ocuz955MK+D+/vyi7v3/xV340O2HG/D03nfY6vb9obe6cAm2IK4HbXpt6uBI4dRIZM08FzM7GlvPT5AjT+zbTRzvkvvRClo250KGTCGCNw50T5wiDyxnbaBH4VfvHaHOcctsd/8AJLGNUwFw2tlx27cQRBheXc169L92ihUec3Vw2ZThuAgtgjcOqcXOAweWM0bbs422aupwjdRIZowLmLmPLxcP4AerDx0k+263/vrPbbW/n07dAAGscFC1jNIpF4NfF1LMNvPXhhRf/Pne4kjEqYFYZW7SRVrnRvlRnbWD5K4A1DsaWcZplgEXg0UKs3aqBNz68kHtraBmjAmYXjC0Tl8Cj5dS0czmTVAGscTC2DNQwFoFfN2cx85MxKmAMmmiZe8zlnvv1bY/vF7uCANY43GFsUQCbI9xoX5o3pnQSGaMCRpk31LB7/7Owclfttdt9TycRwBqH/Q/RJif2pfMSO0faMAWwjFEBM0LVAuYrCGCNg0HzrrOT9PG9bi7XdBIZowJmYkUBPPHImwPtS23THVcnEcAaBwBkjAqY6Uq8O6vjVGl7b6v91pY6iQDWOFwlJxgAjb1jvL/c9K2kTiJjVMDAXudXIIA1DgqonVL9fFCO2VI6yTgZ8+47FTDzDJooQO8aU82uO503t3257+OnH57+z49mJ6jv5Iq3p7RnnQB+90388FPMk7kqYFCCr/x3iSm+EMD/58WS8N3H8fR+usRVARug1U+vOUjwbHlU5M7sdBIZowIGjhVTm1X3VvIFsMbhDtWdJth5AdTsgt7hYN5oghtXwH948Tf+9t2vfvDRiWvABMVbEVMo8oZsnHdaFgEICOBbV8Ds1rNVi9NLzqG2O0PTSRDAd2uc91oWBN92wYgAVgGfvNOyyLjtjfLEgnkPEzgAIoBVwBhbML1hBwY9C/r79999c83Xl2vW3/y7q17su5//rwoYbsadOOATlx2V+fxOWIP57Rd/+vMfh3qT016GlF9dh2q7GHkfnvuPj9M1y9ff1yveWD63FrnJ9g7R3PnCkuyVb+Xhzm273uf7MOpOc/uP6pMXdB3w9lTAO+To39GqjXXfyoOPg7AGfA/vNYHxmak5JxkBrAKGbTlScODpoyV+AawCxtiCyQECGBUwDFKlWWNAAKMCBkAAq4Dhhhyrn9qzVyFpHgGsAmYFxhYf4gUc7EYAq4ABsYgARgUMgABWAbOVY92UwcF6uxkCWAUMmBsggFEBw52rNGvA63ICvABWAWNsAQQwKmDlGXYlEMAqYDgwa8Bs5dzlDgGsAkYeGRThDp1LAKuAMUm/IcvlcC4BrAIGQACrgIF1WANGAKMChjuwBowARgUMzDa9cIDhik9DAKuAOSYDJty5cwlgFTDHzKr0KcJ9CWAVMByCNWBG29cEsAoYABWwChg24ogsCGAVMGDGgQBGBQxTsgbMaHMzAawCBkAAq4ABEMCogJmX64BBAKuAQR6ZcSCAUQFj6AYdXACrgAFYlbOgVcDAlKPsNopPeH8EsAoYDsFCAgIYFTBgfoMAVgEDcA9vNMH2FbAEhu0NsQbcqg8CFbAKGLZ23/BxjBQBzHtNwLycjAsCWAUMsAeHPTghgFXAcAhDrAE7Ds5HNjoJ6+8//9Fff7/zOdsXDrU9qoBBmQUqYBUwAAIYFfCOObMIEMAqYBjYwMd5PQ/YLFUAowKGqecGddqYchsRAawCBkAAowKehMk9IIBVwDChdui/HgSwCpgruIT0XMWHaFdCAKuAAUwtBDAqYAAEsAqYC7nGcf/ahH8TAhgVMETE2IchB3lv5nIIYBUwyhYwtRDAKmAAs1QBjAqYX3OG5w3c+VYnwoPReoEAVgHDzYx8FHLDSVQ95FzOLPXiLnJZAItrFTAAN/Hmot/+6UctpgKeVn2ufCtuFQ28fphR06qA2Uza2EGMsgY878nCToO+lABWAYPZwZxZv3L9hgBWAaOQ3UUJ5CxkuxICWAWMgABTi7tvkwBWAfP64g4TLLsSF3ujCTb3pz9pA1RAU7+7OmvIPj+Lca2AChiOFy57YHDmKM6dfwlgkBAbDzvmcrYMAQzS5TCcZGdWLICBI9Y/bey3t2XY73kuVzfesrnnvQIYxhu/sSuhAoYDcYxSsYKphQAG+TLZ4Hv3UmbT+VWddVdqR+skq26RAAaze58fGlkFDPfkOiRHCMQU232+AhgkzAaazZ1jV6ozbtm9pt4CGNQth2gd59jZDUYjgOHsIVoJvOfGSe9FJxnsoxLAYHa/QdscbX19yiO1OsmNJ6MCGDhCASymGI4AhvPLNClzbaAMsADbJv7bdJJ9Ti0FMKhbfHhTDevaedwWaAIYri1blMBXNszxLrGus8bU0TrJmp+UAAaze+2iBLYz3IEAhksKNSXwF4fcPTTLYKuyE8fU0TvJ+dsvgMGwufqI04730c17pLbevKXv3hTtTu9OAMNFQfGgkcxKRmq1EXO8+GAFMBhcBmmSIz7mYpPljHzYfvbz8iw1p+okud5eIYDhsqS4sDseIK93UgC3Cdtt1KTL+fr9Kl1eAIMSeO0GGSL7tg6Ftv6edKf8rQfrJOttjACGC6MiJfAnrIrfKz8H3hOn6iR5u99uAhj2VUrtvzXqIVvmjOWMV8XUw71Crs3XSW54jOaST0UAw8VZ8bDdXzV9FbfLMXaIudzgRx5mOjCy2j4ugGGgDjln/o4RfZvXZOds9tUxlfcMuLOmjgddmshLWk4Aw+VhYRn4ooaoB22dFY+mPOxgD3yY5rO6ZO520QcjgOGKtJg7gc8eb0xEXu+aJsw7Z9uZhzQeDvgh5UUNJ4BhvdJvrx4ebtkIgyy+tjH/xivC9NPy9x574pnHNHaUwO02U9ILPw0BDFeN02eGz17PmD4ngh/2NQkZ9qN4uP1HM8ymlUk6SVlnJxPAcOV4fs44uONC+eGlwfPsHKiH3UdWKBTHiN92y16yh05ybrCWy3aIN8ZR+FUnOXc8eIjHm5Y2400xWr3BtrXj7krnbvpzDT3mHnV2J3lx2x72sUUPj2vU8gIYrg+M5yJ4hjNQ8isbuMvCvg3d0GeM7zs9nPLcPG5HnaScM0cqF+6CAhhe4yEiPg+ph7k28PFVWzbKEeh7rDTerlAcbJ+6aDaTD/H51o02nWg32H0u/owEMFw/as6Xt7ffvnbkXemCjc9nDqc87L6T5P77yMsHKV7M6CqAQWQwZE49RMSnteK4R53b8T6qlw5CX/FhCWBg1XHt0JFx+V+ani41qHw+gV/O3893BpchwbiZMYFxKiUPsdJJXrenPhuxVx2sEMAwcGggp3SSYT6qZ45OnHPLkSqAQQmsKeWUT/YqX8nZs9YNmgoYlMAHbck7vRWTuan21fxSBF99U1YnYQGHiJ87rQFPO5k76iz1sxuLPFzfF1TAoGwxSNuXbNjZG5Qf7pOeD2ffnLupgEFwGKPRSV65QTe6WEwFDJLjEEN00wg6yR03qApgUAIfdYROraCTDNZYAhiUwAZozTBmJ2nTfFJVAINR0yRGO+gkg3xSAhikxyGG56YhdJK7fVJffuXJzoL+Z4MeRk2j8xfd8V7QtegkO9lny6adQQUMSmCDs6bQSe6wBwhgECDGZm2hk6y5PVUAg1HzwENz0xg6yZ2252ufvwAGJfAhRubUGjrJnbanCmAwahqY79Uc0+5Ljzr99Z1BAMMBR02TFxMSn/RmH1QVwGDU3G7gfPRhHmVG0vSLq1tIAMOdcmTmdB9x21KTmFqc80HV7RpIAMMh65adjWEmcz7tvU6Vnnk9AQyixLRFqyjuV/qgnhtCBDAcanA5bps1zaK4v8Os+7kXE8BwqMFld+PXzaRdSXG//VTp2dcSwHCsweWo+WtXUtzf4YN6vjcIYBAoUkZOKe5X6fPPv5AABgl8iKG4aRxbtvXO8kKzCGA4cOFypIE4R3gT1Qd/pM15aeQQwHDkwkVLbTyXmzeBqz354k9bAMNBc6Xt5DW1+j4ifba5Rd2gRQQwHDWBb79NQ4/BbcpWH6jJJ0vgV2/OGS8ggOE+afV4/+Hq1m9h7BE4Z9yThmry27+Zu3aSV27OOX9cAMM9xoI2REl923fx6GzxrRN4sCnPjffqe3eSV/39Z300AhjuMNgNk1U3fCPOv9q8pcY75HDLycUIx4hW/mgEMGw+3D0OlFU3G+aGz9+BThC7UVuNeMjhZrvBGBv3uO67F8BwQViN8yqDbVUbv/7Ngd7LTdJlzCa/TXAOM0e9bnPOffcCGDYd89qAZcvrRzvLv5fuBvX1O9K809SRtu2KT+r8t/9GT4BLkibLfEVLxGM8zLhZIyfw40PM2uRzdZKLP6kL3r8Ahs0GzqEHzesjeCfXf452k5DXxNTgTT5ZJ7mob1z00Qhg2GbgHD6mro3gvZS/Odobuj6mxm/yK3emUTvJ2X3+wg0QwHD5wHl5BO+iSrxm1HT0efO53D6OOFyxMz2O3OfP2ZyLPxkBDKtH8H7u0fcYl0WC+N28CN7TzvQw03a92Deu6Az3C+D3Oh+7HjnPHl0eZ92wnd37d8wHRVw45dlXm5+9L+1js9pjfG2DrtyAa5ZFvv2v37z/7rKvL73ML5e+ys+/X69lH+71ic509cbXB5J5n8H20uC52y1/acMed/jGH/fa2Ls+4PDixu20j+TbbFnfvu6hSVcF8N/daYv/SQAL4HG3Psr+B8u5p0SP+3zbc/Sih1kmFDdlDRhuM5cymvCK3eeFQ9G7n8PqHXsP4L/6uIDrp0h7zeDmPmMC+O6+9XEB18rx32J7jF8fjVY5CmAVMOeOHoB+xFn29DAGFTAAAlgFDOyqstQECGAVMLC91AQIYBUwAKiAAUAAq4CBdVgDRgCrgIE7sAaMAFYBA4AKGAAEsAoYWIk1YASwChi4A2vACGAVMACogAFAAKuAgZVYA0YAq4CBO7AGjABWAQOAChgABLAKGFiJNWAEsAoYuANrwAhgFTAAqIABQACrgIGVWANGAKuAgTuwBowAVgEDgAoYAASwChhYiTVgBLAKGLgDa8AIYBUwAMQbFXBERDxePp0ut3gVAFTAKmBgXtaAGc1GyyJ//4U4/f3OW04FDPvomPonKmAAQAADgAAGWJU1YAQwwB24DhgBDAAIYAAQwAArsQaMAAa4A2vAjObN/Fv0k08ZAAG8ut99FsA/+JgBh6ARwADrxawbTrIb1oABQAADgAAGAAQwAAhgAEAAA4AABgAEMAAIYABAAAOAAAYAAQwACGAAEMAAgAAGAAEMAAhgABDAAIAABgABDAACGAAQwAAggAEAAQwAAhgAEMAAIIABAAEMAAIYAAQwACCAAUAAAwACGAAEMAAggAFAAAMAAhgABDAACGAAQAADgAAGAAQwAAhgAEAAA4AABgAEMAAIYAAQwACAAAYAAQwACGAAEMAAgAAGAAEMAAhgABDAACCAAQABDAACGAAQwAAggAEAAQwAAhgAEMAAIIABQAADAAIYAAQwACCAAUAAAwACGAAEMAAggAFgIG+me7/v3/3qB//y4p/5jz/YEQAQwM/53eV/5N27l37jJ/sBABtzCBoABDAACGAAQAADgAAGAAQwAAhgAEAAA4AABgAEMAAIYAAQwACAAAYAAQwACGAAEMAAgAAGAAEMAAhgABDAACCAt/Be4wNwXG+2+Wv+ab6Wa4/2HgB2WAEDgAAGAAQwAAhgAEAAA4AABgAEMADsRE63RX/77lc/+NN7HzMAKuC1vXvxBwAggAFAAAMAAhgABDAAIIABQAADAAIYAAQwACCAAUAAA4AABgAEMAAIYABAAAOAAAYABDAACGAAQAADgAAGAAEMAAhgABDAAIAABgABDAAIYAAQwACAAAYAAQwAAhgAEMAAIIABAAEMAAIYABDAACCAAQABDAACGAAEMAAggAFAAAMAAhgABDAAIIABQAADAAIYAAQwACCAAUAAA4AABgAEMAAIYABAAAOAAAYABDAACGAAQAADgAAGAAEMAAhgABDAAIAABgABDAAIYAAQwACAAAYAAQwAAhgAEMAAIIABAAEMAAIYABDAACCAAQABDACs6o0mAAAAAAAAAAAAAAAAAAAAAAAAAAAAAAAAAAAAAAAAAAAAAAAAAAAAAAAAAAAAAAAAAAAAAAAAAAAAAAAAAAAAAAAAAAAAAAAAAAAAAAAAAAAAAAAAAAAAAAAAAAAAAAAAAAAAAAAAAAAAAAAAAAAAAAAAAAAAAAAAAAAAAAAAAAAAAAAAAAAAAAAAAAAAAAAAAAAAAAAAAAAAAAAAAAAAAAAAAAAAAAAAAAAAAAAAAAAAAAAAAAAAAAAAAAAAAAAAAAAAAAAAAAAAAAAAAAAAAAAAAAAAAAAAAAAAAAAAAAAAAAAAAAAAAAAAAAAAAAAAAAAAAAAAAAAAAAAAAAAAAAAAAAAAAAAAAAAAAAAAAAAAAAAAAAAAAAAAAAAAAAAAAAAAAAAAAAAAAAAAAAAAAAAAAAAAAAAAAAAAAAAAAAAAAAAAAAAAAAAAAAAAAAAAAAAAAAAAAAAAAAAAAAAAAAAAAAAAAAAAAAAAAAAAAAAAAAAAAAAAAAAAAAAAAAAAAAAAAAAAgP/fHhyQAAAAAAj6/7ofoQIAAAAAAAAAAAAAAAAAAAAAAAAAAAAAAAAAAAAAAAAAAAAAAAAAAAAAAAAAAAAAAAAAAAAAAAAAAAAAAAAAAAAAAAAAAAAAAAAAAAAAAAAAAAAAAAAAAAAAAAAAAAAAAAAAAAAAAAAAAAAAAAAAAAAAAAAAAAAAAAAAAAAAAAAAAAAAAAAAAAAAAAAAAAAAAAAAAAAAAAAAAAAAAAAAAAAAAAAAAAAAAAAAAAAAAAAAAAAAAAAAAAAAAAAAAAAAAAAAAAAAAAAAAAAAAAAAAAAAAAAAAAAAAAAAAAAAAAAAAAAAAAAAAAAAAAAAAAAAAAAAAAAAAAAAAAAAAAAAAAAAAAAAAAAAAAAAAAAAAAAAAAAAAAAAAAAAAAAAAAAAAAAAAAAAAAAAAAAAAAAAAAAAAAAAAAAAAAAAAAAAAAAAAAAAAAAAAAAAAAAAAAAAAAAAAAAAAAAAAAAAAAAAAAAAAAAAAAAAAAAAAAAAAAAAAAAAAAAAAAAAAAAAAAAAAAAAAAAAAAAAAAAAAAAAAAAAAAAAAAAAAAAAAAAAAAAAAAAAAAAAAAAAAAAAAAAAAAAAAAAAAAAAAAAAAAAAAAAAAAAAAAAAAAAAAAAAAAAAAAAAAAAAAAAAAAAAAAAAAAAAAAAAAAAAAAAAAAAAAAAAAAAAAAAAAAAAAAAAAAAAAAAAAAAAAAAAAAAAAAAAAAAAAAAAAAAAAAAAAAAAAAAAAAAAAAAAAAAAAAAAAAAAAAAAAAAAAAAAAAAAAAAAAAAAAAAAAAAAAAAAAAAAAAAAAAAAAAAAAAAAAAAAAAAAAAAAAAAAAAAAAAAAAAAAAAAAAAAAAAAAAAAAAAAAAAAAAAAAAAAAAAAAAAAAAAAAAAAAAAAAAAAAAAAAAAAAAAAAAAAAAAAAAAAAAAAAAAAAAAAAAAAAAAAAAAAAAAAAAAAAAAAAAAAAAAAAAAAAAAAAAAAAAAAAAAAAAAAAAAAAAAAAAAAAAAAAAAAAAAAAAAAAAAAAAAAAAAAAAAAAAAAAAAAAAAAAAAAAAAAAAAAAAAAAAAAAAAAAAAAAAAAAAAAAAAAAAAAAAAAAAAAAAAAAAAAAAAAAAAAAAAAAAAAAAAAAAAAAAAAAAAAAAAAAAAAAAAAAAAAAAAAAAAAAAAAAAAAAAAAAABcBcjZ07nyVlLoAAAAASUVORK5CYII=;" vertex="1" parent="1">
          <mxGeometry x="1019.38" y="386" width="142.22" height="80" as="geometry" />
        </mxCell>
        <mxCell id="BevlEe6jvOrSzMGnIV_--21" value="" style="shape=image;verticalLabelPosition=bottom;labelBackgroundColor=default;verticalAlign=top;aspect=fixed;imageAspect=0;editableCssRules=.*;image=data:image/svg+xml,PHN2ZyB4bWxuczp4bGluaz0iaHR0cDovL3d3dy53My5vcmcvMTk5OS94bGluayIgeG1sbnM9Imh0dHA6Ly93d3cudzMub3JnLzIwMDAvc3ZnIiB4bWw6c3BhY2U9InByZXNlcnZlIiB2aWV3Qm94PSIwLjIwOTk5OTA4NDQ3MjY1NjI1IC0wLjA3NzAwMDAwNzAzMzM0ODA4IDExMC4wMDAwMDc2MjkzOTQ1MyAxMTAiIGhlaWdodD0iMTEwIiB3aWR0aD0iMTEwLjAwMDAwNzYyOTM5NDUzIiB5PSIwcHgiIHg9IjBweCIgdmVyc2lvbj0iMS4xIj48bGluZWFyR3JhZGllbnQgZ3JhZGllbnRUcmFuc2Zvcm09Im1hdHJpeCgxIDAgMCAtMSAtNTMuMjk3NCA2Ni40MzIxKSIgeTI9IjEuODIyNSIgeDI9IjExOC40OTM0IiB5MT0iNTYuNjgyOSIgeDE9IjYzLjgxNTkiIGdyYWRpZW50VW5pdHM9InVzZXJTcGFjZU9uVXNlIiBpZD0iU1ZHSURfMV8iPiA8c3RvcCBzdHlsZT0ic3RvcC1jb2xvcjojMzg3RUI4IiBvZmZzZXQ9IjAiLz4gPHN0b3Agc3R5bGU9InN0b3AtY29sb3I6IzM2Njk5NCIgb2Zmc2V0PSIxIi8+PC9saW5lYXJHcmFkaWVudD48cGF0aCBkPSJNNTUuMDIzLTAuMDc3Yy0yNS45NzEsMC0yNi4yNSwxMC4wODEtMjYuMjUsMTIuMTU2YzAsMy4xNDgsMCwxMi41OTQsMCwxMi41OTRoMjYuNzV2My43ODEgYzAsMC0yNy44NTIsMC0zNy4zNzUsMGMtNy45NDksMC0xNy45MzgsNC44MzMtMTcuOTM4LDI2LjI1YzAsMTkuNjczLDcuNzkyLDI3LjI4MSwxNS42NTYsMjcuMjgxYzIuMzM1LDAsOS4zNDQsMCw5LjM0NCwwIHMwLTkuNzY1LDAtMTMuMTI1YzAtNS40OTEsMi43MjEtMTUuNjU2LDE1LjQwNi0xNS42NTZjMTUuOTEsMCwxOS45NzEsMCwyNi41MzEsMGMzLjkwMiwwLDE0LjkwNi0xLjY5NiwxNC45MDYtMTQuNDA2IGMwLTEzLjQ1MiwwLTE3Ljg5LDAtMjQuMjE5QzgyLjA1NCwxMS40MjYsODEuNTE1LTAuMDc3LDU1LjAyMy0wLjA3N3ogTTQwLjI3Myw4LjM5MmMyLjY2MiwwLDQuODEzLDIuMTUsNC44MTMsNC44MTMgYzAsMi42NjEtMi4xNTEsNC44MTMtNC44MTMsNC44MTNzLTQuODEzLTIuMTUxLTQuODEzLTQuODEzQzM1LjQ2LDEwLjU0MiwzNy42MTEsOC4zOTIsNDAuMjczLDguMzkyeiIgZmlsbD0idXJsKCNTVkdJRF8xXykiLz48bGluZWFyR3JhZGllbnQgZ3JhZGllbnRUcmFuc2Zvcm09Im1hdHJpeCgxIDAgMCAtMSAtNTMuMjk3NCA2Ni40MzIxKSIgeTI9Ii0zNC41MzA4IiB4Mj0iMTU1LjY2NjUiIHkxPSIyMS42MzIxIiB4MT0iOTcuMDQ0NCIgZ3JhZGllbnRVbml0cz0idXNlclNwYWNlT25Vc2UiIGlkPSJTVkdJRF8yXyI+IDxzdG9wIHN0eWxlPSJzdG9wLWNvbG9yOiNGRkUwNTIiIG9mZnNldD0iMCIvPiA8c3RvcCBzdHlsZT0ic3RvcC1jb2xvcjojRkZDMzMxIiBvZmZzZXQ9IjEiLz48L2xpbmVhckdyYWRpZW50PjxwYXRoIGQ9Ik01NS4zOTcsMTA5LjkyM2MyNS45NTksMCwyNi4yODItMTAuMjcxLDI2LjI4Mi0xMi4xNTZjMC0zLjE0OCwwLTEyLjU5NCwwLTEyLjU5NEg1NC44OTd2LTMuNzgxIGMwLDAsMjguMDMyLDAsMzcuMzc1LDBjOC4wMDksMCwxNy45MzgtNC45NTQsMTcuOTM4LTI2LjI1YzAtMjMuMzIyLTEwLjUzOC0yNy4yODEtMTUuNjU2LTI3LjI4MWMtMi4zMzYsMC05LjM0NCwwLTkuMzQ0LDAgczAsMTAuMjE2LDAsMTMuMTI1YzAsNS40OTEtMi42MzEsMTUuNjU2LTE1LjQwNiwxNS42NTZjLTE1LjkxLDAtMTkuNDc2LDAtMjYuNTMyLDBjLTMuODkyLDAtMTQuOTA2LDEuODk2LTE0LjkwNiwxNC40MDYgYzAsMTQuNDc1LDAsMTguMjY1LDAsMjQuMjE5QzI4LjM2NiwxMDAuNDk3LDMxLjU2MiwxMDkuOTIzLDU1LjM5NywxMDkuOTIzeiBNNzAuMTQ4LDEwMS40NTRjLTIuNjYyLDAtNC44MTMtMi4xNTEtNC44MTMtNC44MTMgczIuMTUtNC44MTMsNC44MTMtNC44MTNjMi42NjEsMCw0LjgxMywyLjE1MSw0LjgxMyw0LjgxM1M3Mi44MDksMTAxLjQ1NCw3MC4xNDgsMTAxLjQ1NHoiIGZpbGw9InVybCgjU1ZHSURfMl8pIi8+PC9zdmc+;" vertex="1" parent="1">
          <mxGeometry x="1071.31" y="367.13" width="38.37" height="38.37" as="geometry" />
        </mxCell>
        <mxCell id="BevlEe6jvOrSzMGnIV_--22" value="" style="shape=image;verticalLabelPosition=bottom;labelBackgroundColor=default;verticalAlign=top;aspect=fixed;imageAspect=0;image=data:image/png,iVBORw0KGgoAAAANSUhEUgAAAXgAAADICAYAAADiIPpnAAAAAXNSR0IArs4c6QAAAAlwSFlzAAALEwAACxMBAJqcGAAABBdpVFh0WE1MOmNvbS5hZG9iZS54bXAAAAAAADx4OnhtcG1ldGEgeG1sbnM6eD0iYWRvYmU6bnM6bWV0YS8iIHg6eG1wdGs9IlhNUCBDb3JlIDUuNC4wIj4KICAgPHJkZjpSREYgeG1sbnM6cmRmPSJodHRwOi8vd3d3LnczLm9yZy8xOTk5LzAyLzIyLXJkZi1zeW50YXgtbnMjIj4KICAgICAgPHJkZjpEZXNjcmlwdGlvbiByZGY6YWJvdXQ9IiIKICAgICAgICAgICAgeG1sbnM6eG1wTU09Imh0dHA6Ly9ucy5hZG9iZS5jb20veGFwLzEuMC9tbS8iCiAgICAgICAgICAgIHhtbG5zOnN0UmVmPSJodHRwOi8vbnMuYWRvYmUuY29tL3hhcC8xLjAvc1R5cGUvUmVzb3VyY2VSZWYjIgogICAgICAgICAgICB4bWxuczp4bXA9Imh0dHA6Ly9ucy5hZG9iZS5jb20veGFwLzEuMC8iCiAgICAgICAgICAgIHhtbG5zOnRpZmY9Imh0dHA6Ly9ucy5hZG9iZS5jb20vdGlmZi8xLjAvIj4KICAgICAgICAgPHhtcE1NOkRlcml2ZWRGcm9tIHJkZjpwYXJzZVR5cGU9IlJlc291cmNlIj4KICAgICAgICAgICAgPHN0UmVmOmluc3RhbmNlSUQ+eG1wLmlpZDoyREI0MUQzNjE1NDYxMUU2QTQ0NUYwOUYzNzQxMjg4RTwvc3RSZWY6aW5zdGFuY2VJRD4KICAgICAgICAgICAgPHN0UmVmOmRvY3VtZW50SUQ+eG1wLmRpZDoyREI0MUQzNzE1NDYxMUU2QTQ0NUYwOUYzNzQxMjg4RTwvc3RSZWY6ZG9jdW1lbnRJRD4KICAgICAgICAgPC94bXBNTTpEZXJpdmVkRnJvbT4KICAgICAgICAgPHhtcE1NOkRvY3VtZW50SUQ+eG1wLmRpZDoyREI0MUQzOTE1NDYxMUU2QTQ0NUYwOUYzNzQxMjg4RTwveG1wTU06RG9jdW1lbnRJRD4KICAgICAgICAgPHhtcE1NOkluc3RhbmNlSUQ+eG1wLmlpZDoyREI0MUQzODE1NDYxMUU2QTQ0NUYwOUYzNzQxMjg4RTwveG1wTU06SW5zdGFuY2VJRD4KICAgICAgICAgPHhtcDpDcmVhdG9yVG9vbD5BZG9iZSBQaG90b3Nob3AgQ0MgMjAxNSAoTWFjaW50b3NoKTwveG1wOkNyZWF0b3JUb29sPgogICAgICAgICA8dGlmZjpPcmllbnRhdGlvbj4xPC90aWZmOk9yaWVudGF0aW9uPgogICAgICA8L3JkZjpEZXNjcmlwdGlvbj4KICAgPC9yZGY6UkRGPgo8L3g6eG1wbWV0YT4KXB+9AQAAZPlJREFUeNrtfQmcHFW1/kwej+f23IXMTEB9gltcHyhbkumumpkQFHyKuCGoiElmJmF35YlB9OG+gBt/VFxwi4o7Lk9eZFMUF1AQEchsAbKQjT3TPT3/8917TvXpmuqllu7pSe79/eo3k8xMdfXtqu+e+53vfKejww033HCjzcb0mo55dOxV9ecdHZ34Ob662XLDDTfcmCNjXQjYbzu5Z8Hoyu4Xr185/6Vjw/MX3rb6iY/VQL/2uI5/cbPmhhtuuNHOUTuicgXWY0PdR48Ndn9ldLD7Bvr+7rHh7q30/dj4UM9vxoe7zhtbPf+5waKQqx7tu+GGG264MdvgTrSMAfbBff+DAP1SAvNd207rmd5Kxz2nlo9tpy2Y3nxKzzT9zvjoUPdZsiisW+NA3g033HCjbcF9YnjBIQTcf91x+oLpjasNiE+NDfVMEpBPUgS/y3wd6i6MD3UbsN+E36EofyvTNg7k3XDDDTfaaAgojwz1vIiA+9Z7z1hggN2A+WB3ib6fjjim6Ge7NqzqnsZiQH/3zY1n7ftos2A4kHfDDTfcaIPoncH49pX77kMgfdVOA+49kzZyjwT20NEziWh+uwX5C4PzusSrG2644casgvs8+Z6A+lPg2zliLzYG7sFRQCR/N9E1xNsPR53fDTfccMONFg6hZkaHFxxF0fcD4NyZY5+Oe+DvttjE6z3g8V0U74Ybbrgxe9G7AfcbT9j30SR7vHwnUSxJwV0dk5aP77l84vQFjzSLiJNPuuGGG260GOA5uh4b7DkOfPtdqww9U0wJ8Ia333SKo2rccMMNN2ZlCDXzx+Ud/0rSx7U2sZo6eg/4+C2nGqpmZGJowQF6MXHDDTfccKPZ0TsD/Nhg10FEy2zioqVCJgBPSVri84vbTzNqnC+4KN4NN9xwo1XgPl02ByMwXs3gPl1D7x77AMDfucomXieGuo4UgHfGZG644YYbTRxCzwBwx4e7v4HkambRe/kwUktYHNDXq/5x0pP/Ha/pTMnccMMNN5oZwTPAT6xc0EMR9o2gUkaz49+jE67kV2NeG5YI0y6Kd8MNN9xoDsCLemaoexEB7867rd9MMWuAH7Vfi5ssBbRhbIV1nnQJVzfccMONZoA7ImjmwceGu04AuI+raDvzA7w+HZaq6fqq2kW4hKsbbrjhRqYAr4CVgP39zJFPMWc+3aSjaDT2xPOPrux6pYvi3XDDDTeaMLSVL9wflbHYdBMPm3CFNn6w6/cjpz3t8Q7k3XDDDTeyj+BZ/77/E4gjv3bH6U1LsM6QTU4MS8K1573mWhRd5IYbbrjhRlqA56h5dKjrOQS8ozAHG48nkSyloHQKbEZ2N/q76gVnTs0hK4HcAuWGG260WwRvOPjRlT0erAlQjBQjwVoi3fy0+RtbFFVKIJucgiUx6KHwNbUtmNP1Qb9vCrW4WCs4pit/7u4wN9xwY3bASunPJ4a637pRFDQNVrCy2uZBOnYC5MeTKW8KLMssjA33vAbX0m4t/gyIA7BxxNTsyyLg7jY33HBjVugZDDIY+wgaZ49b/XupAT371D3WQOxPlJQ9kb7eaSwOkrlPFrbZ4qrrbl3e/eTZpmpMFE5zA1vjauCMCH181X7d40PzXzK+qvsYoriOJ7fMN5Dv/VETgwteIInjubArccMNN3bDEVgUAKyGui9r2EHSRvhT1jys+6c4B/m9n73dLhBTcT1ssKiA6jHNRQZ7/jugQlpU4Wpey1Iqe9VS8gDQaZfhjw93vYfe7/dpQbqVrv2+cW44Lu0K6es2+vkf6Ov56wnsHci74YYbsxbBjww9ZT6B0Z+3ntZwgtVQMbAApt//LM6x/tR99sU5tiW0OcDf8I5gQhKuf1x+0L82lXZZYyL0vaotJNhNjA73HAYDNrquS+n4u+lSRdeJxQw7Fuj5QU9BETTB+QhQTvfw79D8bKbd0SkO5N1ww42WjrUBwPe8iEBoK3PwjVAsRuIIICPuflUQ4Q51vx6RLCdqi7ErXANLYVXhmpE2HlE6dizwu692zttWP/GxWFwo+n7z+FDX5zkKvx9ADvkogJ3fm7lWnqupKgd+VsTfQAqKqN/dcW644UZroncl6QOHDIpkw3DDChqpRH1ofFXXUk35jA92fyuFG6UkXCepwvXYtACPBQy7gGp8PloIGnnoqp7jCKw/Oj7cs46+bsFCB0DHboTfp+QWLKCzYmi0nnzU2jLs2iR9bYnecXeeG2640XyAV1QBReNv32wdHhtV0BRtVNo9MbFiwYE2+j3g3wxVs3L+S9EwhPXtkyop2zBVA3Cl67hGEq6Iuht5T2uYdmFQn0GFYAEaG9z3PwhoX06v9T7kDygxOobdyHZ6TbzuplMCL54iL1KNAnqNnUkPv6eur7k7zw033Gg+wKvImEDuYgbVYgNa9lJZQdPzh41n7ftoXjCCKJl+vob59CSmZeb3seCMDHW/K2pBqtiFIDlKgF6tkffo8qd2QeNP1bJn0nm/TcctAG7kG7DTwHUC4JlumTTAnkzTX9NBkxfQW5DvcHefG2640RKAv3noKY8hAPo1JwQL9YBNVDIM4JdqsJVIG6BKP7t+e0zbg9GIhOsEq1Dk3AB6w6PbBWVGchSWCyPDCw4ZGexZSdd5MZ3jj9DpA2B3KtqFNfuTQZTeXHO1Kc5vbJGetG644YYbTRtBgnXl/KcRAK3nNn3FRiNsBuA1fLpA0qisD47H7zKYxuXj0cO1wL44X5Jrvvm4hXuH38fIm5/2iPGV+z2P6I83EvXySUqM/gYUEZKh+PvtTLsIxz8qUXpzAX2GDHSj5eE3jS/f7xnu7nPDDTeaOTqF8hhb2X0EkqWcTJxqBKw2WEpjeoJAVaJqSdgKwOP/QIlstwnXJIBKPVzt4jAxbC2FZacAHn1kuPsVtIh8gBQ3P4OHDq4dtIuoXSaGmUcf7t5lovTB1gF6lHPmFkvR3Hj7yn33cbefG2640Tx6RjfZHu550wbYDDSooAHAs9JlB9EghwqY6/OLfn1i9YKX0u9t3HJqT2MFVDMTlAKMt9CxiqLzM4lL/z6BNnj0h7DrwAIC22FZoBChc5Q+NUuAXkP+Waa03HDDDTeaA/AKkKly9IPbpMlHA1HuOCcM6XdvB9ceBfB6AUETkc2sTBlP0AYQXDkWFOwaAOIASlzvxtUh2mUwSI5Ot9lhFhqzKNJi6u4+N9xwo6ljrVLQUOT+rYZplEGtoOn+X/DfUQDP/2dULetPNhWuf+RFpJCQ4pgCp87UUHG0Mjk63eZHwc5X19+cgsYNN9xoGcBPvHXBEyF1ZMuBYqMKGoA1SSs/F7Uj0EO8bmDCNc7FUePJQF4WoJYmR7OK3nnHs9rdeW644UbLKJoNwz3PhLIjhkWBASxTDDTYc4acb00VgNfAT7z52q0xqKDd5LAFTsPdV8AGwcyJa0vohhtuNA3claRxZGXX0tF4TT6mNljf9wJZEhxjzjddu4uRUDVkaXAw/f0mlmMW2jjinsqowGmS3+s2KJVkwXMdn9xww42mDR1tQ5ly9+qgNH+qUT03fX/P2Or5z61Fz1QsKOJ5kzLh2iyFy7iVUZrrYXllat5dcgZjq7qW16Oy3HDDDTcypWcsbdLzyW1WvtdI5GqSnUa2ONh9g2rMURe0hJa4bfX8p8BSmJO0s8GnS//YgiRpN7APPeije06N19EqqgqXFwxzLvq/j4bnwA033HCj6QAP/xYCsp9sPbVBXnzQVJcWzYIw3PO9taqgqZHXld8n1c7rALSJLIWT0y4F8ZmRxiIAYIA6a/rRdvAmel8XESj/H/9fw340oyGKh1VJ31Yqo73cneeGG260DODvttH035knnhptQI9uG2Qb8PpwXNpB/x6d6ztNTLga2kVJKYMGHLh2ti14mF73n/Q7PyCLg3dPDM5fBjAeXbXv08dZVRS79aB9HwUG96vQAAXvtVEnTDfccMON9ADPCdYNqslHowlWaeYxOtx9spxvTQxeWWiKO1d3v3iMfdcziuKNcZhUsOIaTdcldos0CxjZAlP0/gsUdsH/Hh48+tqMp81Q9893nB5QVnEXnslttiPWrWPD8xe6yN0NN9xo6QAY37zGGnbB30XAsFGJJNMqD1N3oiVyvjiqEL0YkBXwmi1JLYUtXVSAz4xR9AxbrblUuSJRCvknImn6nQsmYHxGoDs9swWg9c+hOUEXKQb32NcjbfzGkXwe7O6TxcwpZtxww43mRuzWWMy0qtMVrOTpcnYcgB2XJh9D3eMw+8I51iZIHMrf3EVJWjrvn+4p0yGlOu6SQrvgKIF2AeUCUOadwA5UzMJ9cmS4ZxCWwXcsf8LjouYDBVjSoIQpI6vuGU6UF5hkJRLRQT0nqjl3ihk33HCjOaAu/UfDP0MEjwYYKJ1X9EwjTT6KzJtfuZWLdpIAvNbhjw32HIfzV2kVOKXsfc3uQdwimXZ5CDkEJDOJMnr7hlU93uYqVgBBL1ZJMGsl0VDX20A9sVlZIU4HKoD6Bm6yTdz92WEqyg033HAjG1CftqAexfsikgWtgoTiqLXX3XZXPKUIeosWAa4EapekBbJAgUNgT9z4t9hp0RiGAdAN7cIl/uLpztcxQpTLT+BDj0Ir7CSiFhnp8hRFk+joGslVev17beK1ZzKBdQIvNj1f0IuJuxvdcMONzEA9ClTuOrP7ySNDXUeapCI1kybw3LqJAXOT9UYpxVKI0GF5ZhWppqAhgsYgK7tfDO4a0Tki+R3cG5Wlipu4EfbH6Hg9eHSidh4VPtca7vKko/Squwd+XSSZaTEZvSeZlbGVQ9qF6afoioVzOsWMG264kYp6MYlNRKYRkevEygU9FKG/ikDn0zARo6/3iWf65nIzaZEPxlGJTCFxaao8iVYJwDJFErGSJul+B8s1HzDXDT36YPfJ40PzXzJy2tMeX+Xv96oWpVcbshBinvA6LPmMNxec4OW//dMdy7v3d+DuhhtuJAb1aQH1iOgUNAXa1RHofJFA628EQLsQlW4/raJVnSQnk/qsTHFEfe8dK7oOThu968gbX288Yd9HE6i/nA6/WscjUDFoJGKAfTr+whKA++kLHklz9COp4B2PPycF6Rcrc+FoGTfccKNxQJ+2oA5QiwIzUBWUHFyBBCMab0gT7K0VjTDAKfdk1dmoyGqXmzes7lmgKZYsaKYaC9te9WiXOHQQBgH6Zxmgk/jhFHh+76fjaFnonBzSDTfcqB+l8xEFUCMoTBrqOpWA5ccETBvAV4t/CitAStpjJeumFTtNA+yun4m8MEulyBpZzEyU3vGvWWrIQ1TQu0x3qFXdsStVx9lADDTVyMqewajzu+GGG25UgPraKtSLrayc/xLw0wRGv6CE4GYAOUAdfPWdq8rl8WNWdTLVzKbR7Gt+QVRU3LZzPF2WZJpiJ9rRcAQe1664KKoe8sH/4FyaAzfccKOFQyLVKGoCaoyxVd1HUBHSe0cHu9YRsGw3TocUpYNP55Z1U4G9bSsaZ9jXMIVFpGgZ1FF32y+g0rlq1YIcrBFsYVdPfMUMd7GiBPPX5JyOd3fDDTcqwCY6Sbr/E0iylyf64wMUpV8LfheRIqgXgOpEuQjItqxrVTck9kqHHQAWFkNPkOxSaIl2552lHmBkVfez6T3conrCluLOwXbuyoQWh/rcbrjhxp4O7gTs4WgXZfoAS/iFE4BcD38XALri0zWot6zFXbA7sDsEY+mLHcSDZxnFyV20CD1nLlATIlnEPNNu6DesVy/GobFGOVFt7ZG7b55YseBAF7m74YYbHUGUq4AQwECgcTgB54fo61/GjLe6BXU28SqxbK/Y4r6lugFGCQuMKHJ497CBQPLy0ZVdx0rUnkSm2OrIHZJKmudvWmolaPQRy2OG1TYwLVsU0GtOMeOGGy5q19Gk0XgP9nyPwPs+RJMAjg3DoSg9mUVtKntd4aOlo9HWUxkMh7tvh4WAkWKusK35NN3UrvOuo2t6Dx8JDMQG4xuImWQs1RTQZ/eagGZzihk33HDgLt+Prug5jGiN7wJQVfl9mHppMajbsnwkbbfxYmOAjDoawYlxbGXXCeIWOWNH0sbgrj1pyKLhVCyg2kAsRlcmI4fE35Itw+lRn6sbbrixB4M7wJDA4UyYeu08Y4FQMAWmX0qjretBWgHqYlvANsH3G/6fpI+gX6SAKfx+VA6hnWmZeUIbja7qOhYt+LCAjTboMRPup7rF9FPt+kTUzsANN9zYg8HdtH4b7P4cwHQzg8x4a3qPzgB1Aasd7EUD2SX935X09Xw4KW6MsAUQ87J25tnDlFFgIDbccxiSwVtPbRzcqxiIfUf6qTqPGTfccOAebN+J1/4UANVw7MOG+mglqBeQGAXtsrPcCGOTaVVH2nqjBydZZkQEPKdAPXzt+Dq+fL9n0OJ1I1sLTybpEMV/e/UI+8o7cHfDjT18aAkkNZ44CTy76VsaP4KMW106xVG6AXUkSQHqzDtPoKE0WQWfMTLYc+jGs/Z9dPi62eNlr7msCgm07uQ4Se/5l+xXX4ijQGJ6ZpKbmfxzfOW+z9PndsMNN1z03gEOGx2GjCyvOZF7SUkai9ghbGNQt4qcrjtogfnG2Kqu5etX97xQt6Tj0Rm4Me4GUj/hxbHA0g7ly0avnlAOucUmmre6fqpuuOGGjiDLTaTJgIp57lKWGvbRcvcg07ZO+pCan1MBDr3WxbALXj/Y/aywjG+aQX3dbgLqUZRYyn6q4g5ZdP1U3XDDjUigASggMcfAW8hM+mi5YQPqUOMwgP0ZPP/EcNcr1w93PXXGNU3vnqAetajSwrY83E91LEE/VVLMuH6qe9CYFzqyeEg6I86b9WtUe50sH/JOeY01a9YER4rXCV9v3N/vzPhziHMtARigPR4kh1z5WMwE4BncTZHOcPc19PUc2BuMr9qvO3wd0rJudwV1vSOR90f5hZehcIybmsR1h5ySZDRRW58P0z5u7L5jlh6OACjb9fo7FZjXA/89Zkhxze1D3fuBf2eKpjiajS9M0SRrqSk0cetvD0eWACPw7IZX30PmXaJ3itwPIkpmjBfUQmwTNe4vC2996fHqkqoO3Fu1e2hLcA9f5yGHLHvsokWLnnDEEUf8exvOY0spGsjq4C8jEXyGhUxSFLWTjt9C6ojGH1HAV6370+5IzcBGYefpAWU1FXfh3GT70952+9CCAxy47zm0TMfixYuf4uW8D+V7/S/le/Ofpa9fzeW8lQq0Gn6AjjvuuH+Rc9K5zsW57DnzF+Vz+S+Yr3nvc/T/5+bz+aOOW3jc3glBPoic6TyH0PVfTMfncX669otzub6+pMAbBnY616H0GufQ+X+Qz3l/pPP/PZ/zr6d/f5eOVZ7n9TTwWuZnvu8/if7mPDPXufwXMe+5XG5+xBwE5/J6vRPod79i3h/+ZonnNbCwdJavP/da+ttLMP85niPzWZjPw7+Ijs/y+T9Gv/s0/TnWAvibj1u4N9EoP9kuMr3s7AdK4hWjeqxupONScPDhhtS1bIl3K4AnSwVeTOOashmVDf/tVWtV5bGDwD0gcs/l/DP7+5ZO9/cNTPte3/SRS4+aJiD4Mz3sT2aAaHill98lQDzCy/sPLB040pyzz+83X+V7HASWJYBm36K+/4gC1kYWErwege1Pj1y6bLrPs+fF97SIXJAkutbARu/hIJqHb9F13qev3xz5PjNfOAgw31uPrpHzEjgfTud7eKB/6TTmhr4fwWIYfv/yvX1/3q/N+/MHzPujz+t1DdBD88qfifdjfKYy7xXvgw76nOy15L0xf5H/TPzNQQcd9K+NgA4Bxhr2HM/aCbIkXvDjyhiM//96iurPpgKm50fRR7uZ3C9Qt4wOw+One+fdgQImXncmTsrePyL+9i6xuvsOARwC1/0JQG5jwC3me71d/P3EkiV9z6/3sFeLfinqfL2X8w144Lz4ClDEYf6v15vCVwAdAcsvhfJoEOQlaYjF6dV0/uB16CgAdLFwLFy4cO960Wg1cKfrfxud6x5zLnvuknkPDIp4TRzm+7x/hrr2mgBPi8Yb5HrN3/Z6P4oGZbtQ4vMhgP4rPhO+ju3+Yv8F9eaqYieV864zC1HOm5TXDh9L+4/EtVxBr/uIRuZMQGcDFRQRaNyXEHTi6OBN0w8oQBCJgksm4N9MnPQ3SA3yKmlKURHVI/m6G0SplQtqzxe2JllQbfJ6ihfjHwut5aL43T56986TaBrgCIC3oOU9QCB3dMwIPrhZKKp9t1o0pgQQNcDgtQTo6LXeUg8kw4vIwMDAo+k6r+TXmdQLFAH8n4U6aWSBqojce/Nvx3WZ8/I18msYgKXX3IrXE/DHIqPO0VmTTqJoXxYIXhw+EvW5yOJEc38o/e4WibTpem4kmmffeiAs75l+9wVYrPn6H9afAx/43O1OJO/9v0Z3PZU2BV1fvfeMBKXyyboticWwieohpRy32vjryejsbCq8emE4eg98ZuZwVC+0yvoVPS+kediyMcmCOmijeNBpWBRdFL+bR+8UoT+HAONOBpyijlTN9xyZNsqPK8DpJLD4sqUvbKQO3p2A8OX5JflX0XnPQXQsUbcFUv9LDYKLjt7fas9hrneKzzfJwLzJ7/Vf0iDAz6vkuz2J0h+SuQHNgdejcy4G/YT34Vn6ZgP9268DuMH7Ia77Ut/rDxY5OueKqDkOIv4lJuIvqAXnR/J+GgF4M+f8Pniu/oJdBL3PV9LPXktfj6N/vwY7LtmxNRxZMjiMrux+MThyw/G2xocmaBKCw1gWnMq+7tSDFFE9Rbqvvj1kKjbNssq5GLWGuPiPbksexRd5B/Brqfp1UXyVhxYPGKJbHHig9IH/4wew3SZPR+8Xqsi0xBFeAd9zRPe5ODy2gMqyZcseS0B0JdMCOB6kROUi/btIGMrOwX71fxgFuNUWEU5W/plBj8Dd7BLM9TMoTwpXXY9uUHz+s+nvRvm6H+Tr20gAeFL1nENfH+0UnlprjhSf/gia898quuVBAtZl8rOFlHDGHCLxTHP4b/wZvY/fj3wmn4jadVR7TdoxnM6vxfkC/6JG74941EHXCkSHOEabHclHR/WGwtm02rpIclemP1JU/17IC8OR6lzUz0sUf8dwzzPpvY2LPDVuoZO0RyS/njeZHU7OqWnMAyPg3SinG/5bpjpm9YYKAJKiWwLFrWrrv9WqK7xt+DfAgMDl8qOPPvpRjfLYQuUQ+D6TznO74qtHQBUIrcIA/yFZXBDREnB9swGQ0dH7mRVUR867gd7DN8rcOJKR3tlhiqQmNUPgaXICtFDwOXfQ6/yXXsBkQY+grTrr75iWHJjL5deX54W+p4Wq1pzKTgg7FPNZWXVTvYVQ7xg+IwspU2GD9T6/JFG8Afnh7g8FrfgGy5F8K3zgR1WzaDEiA32DSNdw9dTGbmRl9+tGlz+1a7fg4qkAbKt9b/EVNYO2bSJ9f+0dy5/wuD2YqrHAXAvcEHkhYsWDioQWlCf4HknDKg9MJ86ZUYFP3FHmyPP+VyX6tRGr/21s0cHXCh0AOaDI5uLw2KAsEJ0GUSOpQEJztgCALJEpviIX0CgYm7/Pe7dqgAdw0eu+qiLaVbRPtflW5zyA5mJMKBkG0zXh3Ul4PuMsfIj26dz3BwBPfHofzTkSqf1L+g/ENdBu4Bn0Pp6F90ifx4s9jvh54SoKHdRRo6JVrom+7k1//xO1k4JqaSXdp112sckdIF/peEzcCF5z3AIS48NdHwc/bKJLC/JTLfSE1wuKGJRN4VpgeTBu//+PtBCdOz40/yUBcM6hKD6oIj61e396n7cmLHoyxWQwa6NzDO1xAI8HJOqBXrx4aReoBnpI3kyAtMbqiL3v09f/pa/X0vF7KBbouIYA8xfgW63O2TsZybK+vr7HRVAaLbu5lIQRAHy/bN3NQf+HxUqAlwFoq1ArDQB8AMxImIbA+7cUCb8RAAzOGWoNra4BR0yvk2uAx2bdu/9+OT+D3z8OO+ywRxpunN9Pv28WrXUoSqpx/VoqenxFToAWEAAfU07/lsWuCcqcQLnS64NSuh8KJrpH/omvFUevdyt2Pkw7lTjxfSdopEb59yVLBvbDIsIAX7A0nD/O58br3GL+TZ857s+kUbwGecMRUwUqyumVOdiuFjbTnhGxskbfeLBsF7/4YXJRJKtdcVLUn9UsBV/xuXiyRebK1CRGbwWO4v+0/uR99uVz795UDT7Y8A1u6AbiYFFggiIXJAcFQEQHXe9gCmQTAd3/QUUBfXXarXGS96a498sYGAv24c//r9zcoGV0xEf/fnMcHtvyvv4HhVZgbr/IKpdJpUjB91OWEsl/pR7tUI6CwZPnxzXACxVD0e9/Yp6D18h7dyAargbwlfSM/xGREvKcXFov+k+Q8/ioklgWZPdh9Oms4bc69fL3kjhm/v3apYctfWKjAI8CMPrbzXyeXdit6ToEfA/9O1F1m+h3F6a9FzXIj6/qWkqgc81m0wPV8PLCzU/NEtBLpPsgrun+M2Gz2/V7uqbDBTjXVL73tm+yjUpimLAxUMfNe5jkNOSttACeJXOwu9o/dOobGw8P3fBLIRsjLfc/hWrAoR46Aa4Cg9Uu+n2S1BlZ3S4l25sSwLGFRAZ47kSyy1vsvTQEYE2bXHl/UE+I9A86dbrGe6EMUeD8YQY6jmT99zdy08v57dx5a5nLLogML1DmMNUAQDO/Y7XXC+oAaadKzn6KP4Mp2R0cdJDNE5goPpf/nfqM7sXnWA24KgCeAJ2veZKLlz6c0cM+T137D2Ru5Z4SsI06+PMx9xjXC3yjkQRreTH0X4f3I0ln3Hv6NfFvLgr7vexS0kaveqtPfidPpvL6t8OvBpHm9iD52WOAvoU9Wkt4Tbw2l/rfPTbcddrE6QseietcrhZ/plbnt3cgWqGLX7HRgvR03MVztNzw46a72KFzt+vmZG/oNYqbzh+FCBfVixKlqyKayQC4LXCVInTFM3XGVgcufxuAPRQa9NB/4DCOyjrYrbBZiVVWcfxKtuxMw9yBcnv62ZsQrYNyYkDg6N6/VK6pEVCxFgXe71kiGWjI9cGvu4le95OgveoBi4reDyYw2iTXxwB/OX1mJ+L6DQ+f827C4mHlnuWkZJS+PpRgXasBHmX7WQC8vMbSpUufiB0gqlF5Z1Ow1Ij3W0Pt6cPQfP7vzP3BRWE2X5I/twGAD6gs7Gx0UZbJr+D1LI0ox9/ovB/MMnI1kaAC+tFV+z6dm3FfDwUHqBtwwEydFJtM30BOWQBXzdHqZbS7ODh4/o9buLd69oniy/9cdq0dbWwkJ3TKLcM9T8JOCXOapB8rFoZNNl9yTnDu3cXbR0d12KLSQ/41JAelZJ+ldxrQp1MfAvb80LJE8GqUsDcSnaV5nwBB0bmr6Fren96VaKrid1JKX4uHV/JFKqzx7yrrrr3N2AlhZwBZJu0I/sdUiebzL2yQAlHFU/6XgqIsO494L7sCKgj/x/8fJI8rC4nm1QD4Lw/0WQUNv+/vabuAMIA2uhCruX8RNPPleSEFzWL/uVApYX6RmMcicPjhA/sgikQxk7FxEEsHq5k/vj4Qq2CFaEWtwIFkErscEQTgK0QBopRqFgjJANeLBhMEKj8H6AKUuAJ2SgF9KUP5pFHTmJZ25MKI5iTljk/H/YtcHxLMNNfvonnaaWs28q9qFXWaeG7NPcguk8NdJyBhiiNuo3MTxdvOTrePrOo2+Z3p5QfN+Si+gpIxiT/idQXYVbSeDahXi+w5oudod5N+gLMCeXmfSDYiESw8swFFrjDVJeuq2nRXn01UjvfVtywIAI8Kc46S98c7gF/UApB67zOoyOz185AtCt0gIB4uuVdzW2Cp52VSfh9+YEN5ibOFq+bX2CgUGtQoYhsccb2djVw/gcYxlsKzlbvYSdX6O8wZkvW6lgARZqM7KST0oV6yyWbP7hry+d7ZoBPC235Y1Y4Ozl82NtjzNQKZ7TAUC7pCiVNi8qi+xCBnzLWQWIVJ2diK+c+V179ctfUz9xXVbAR+PLQI0/3+4gaFBW0Rxf/jpCf/u/RmjRvFi8ySi9Q+FJXMnXPgLg8IQM+4EDKNwJFgs4E9fBiONUg89nqrswT5wBsGrodlEDT0huVjZ/LAkthjoAOwHFMnotE88yqTZ5AImpwKqwFRjMQtKmPXav5aaK5I7tpeP0fi/l/6j+jvrvLAdq7hiJeVRZMyP/bzyP9cbAHCAwndXq6UrQX0wcKXz58h88+J4c/LewT/Ldp6WQyRiEeuBnPJks1/iilbrXlTFgcHiMcQV7CuV66XNfMcTQKjeVF9USFXHCVpJSJs8PQAGm5DN5UA6KdEAmh6lZI1LnYMwWsed1zgOAla1DioUp5G55w8JQ2WuWxrkGcqjIzXjg0MxQbjR/Est9yAqmTLxc/NKL5T656halEc+yQD/PQsHKWgxB7bcQXyaTj5crk6dOcEdMyLc5HN1dB5IwdgaBPc7JRQpTk5H8CgZY70s9NqcZIhquOCClogn3+HALoC9c4410/neEVgGxD42uQvRZUnrp2v/3zzb6t2ui8ooLKVqIdUW6Dk/0zE3Ov9knn4h1QB1XVsUfASHByJX4BID/LXOlytLjj6QrmwCxG8f2bU7ylJ5dGm0pWLzhCNC/jXog5kzgjMPdnx8P19m8mxUI4pn+87FgVcoCLs91YO2gq+GfzuuggTsAnyKCeAeReBzY0AKST/uGCq1ID/ufyOjURtc4uLwf3L+TVgWfuG/PVBPsgGDQ9xQBBIa9uZopEhihpQTxSN/8BKU3smk+x6sJOiKD5wYV07x7TxAbjDjQ8JLrX9LcwSsIePSU4QIpI/IWWiR8vz3hnym7mfnv/Dq2/zvYt5bh5iRcmnay048iCg1J4enJ/2+cG8PhQy4opNLSG6hR2w2AcYyoGoJqmIDQ9E3CbRGlgYkEcN+a3UuIagOpbmZADXHBhzcZ6EvXRgMLYFC6TcN/h9tYPprBa9i/xUFSwVZFcU+nyDa6E5P0U+M/OelRFYrblUxWYnKZfNghixKYXXg7KDRI1CqwGtmof73avnP4V09CcR6PzfGPumME8/zVWqxRlRO0euHIX+dWJV17HBZ6De0xH9/d0UCFzolR1TdS6qyFLUb2pF2FwANqFq0M4PMlA2IovZzq9nkmmye+AQGpVDmRPg3merNW9S2/1im4B7GeTtzbdFONMkD1652KX/QBS2MBf7kJUmRhp7aSnifwsfLZYFAqi15IZcoXqTsii4WzT/cfnM8jn941Vi2OwofAakqN83UkmSXrIE0+QRsMDVoiJCXPwqVYEbUEKa47dz4+2U3ES1XZbMFQqOvErL3230s+eF/3ZNR8V1fFLM2pg6OKtasjjqvWFnxu+hJDvTcK6CF8sH0txnWQxEiuFoceTNT3vE2HDPyymiXIvOTgBvABDTN0UGsAJUIGwy9jAdn95M2vAguq0UUbyG3uvN9jPoCz/7Kilf9vrp6JgbPPS0auAxTl2fkjRgGWWfmh32b78YPndbD5V4+g80sggq+0I2tm1ylETBwk03FsQFSA0aoBOWDiwzgMv0w/1StSg2DAAWMU5jcHgzftc2/1gGOmQcJfTVrkP52xwmydUjB/B33k0ig4xz/WXJJSqHvT/jGgBK5looISZl9bYblG1+vVB1hgJ9gwYX8jdo2tEReNhEg1glyFNVK3HeuihICpEkdwF5IS16+9QC+IAuWeItwWKDOeWF51ZRJukoUSluHlNu8sFKK1Z2NOI5j9eFeRvmIFzYpA9pOCLc/GxHrEELvtD740YXnyVwn4CkD2CPiB2Ab6POnj+MDi84Sn7/IkXH0OL6dNs9y5tWttiVqjjGAbZvfketXVnKMa9Zi4YksmlR9Amwd3AXrLgJ1wJH//eNrFqQmxMAX6EiocYSQeTenuBeVjwESUrvG7p7UZzoFzI4VJWitZyRKub87xFQnCKAFAFMnfah6Ht+Di3e0G6PtqxYJATga9AciJJeaKWm+a/QdX8HsjwoUOLmEpQ88eCcbTV3KWSM9PXbtIj0V4nGte3Aq83r25Z434W/uxTyNOLAaOdgCaLu0+gcP8Qig8UK7pV03p8hd4Frq5egVHTJQdyi71LTIYpsmNWCNy/8+/A2wmuY92Dn8wvCkzfS5MP45JMff868d/O6X7GHz4dpz3cJf0bvVfdVW+ifwdNzUrbivd452P0sAp/3kXPl37iwZxsd55ebfazR+ntSyvmQBd+ua1mq5NmKwc+ZGs16sav1uWXhVx/qsnVJii5bhZ1WjfNNOee6dqVqKqMj7/OyZW1DWma62k3Hkrp3Jky6zpst1USGEc9svGbF3EByiOpGOh6fJhfiRgKenqN6/f/jq/brht/7CHPF4STqYt9/Lqp+lYf+VJ1nXnJfO8TMLWOJZJCLGTh8YB/9/iIWtr2SetbLHGygHQ988beckszCQCyfg9Z+bWphEDyoFKUs1xLBOQDuYT5+Wy/7hmdU6epAp7Gczbx6OR03WhjVV+m1um6N3YEcgIR8b34ItRsqai/UlT1zrgaVvuLJk5VEsqINJOVRQlXDJpE5Nrj/E6Lel3m/BNqN9phdU2FE1v25e07t0S0PY0XxRo0z3P2j6TV2HtrOMz7gk2FARXriwHApC/rEdtjZpVQJhaZJLCkJxlzpTaANEiTDOiOOJH/X0eS/a/TaO5v4nqPOExQ48eKalJtN+x6ymrvOjD+jlkf1a636Zq9pk5xlWSnlEUA5Sa4kZo4tyHnFafMYK8jM549lNdYVes4B7kQ3fckkk4d7TiAF0X9ueceT/z3qfSOyrxfdCxc/MtTzIgLqO63bZGzZ5NQGm8wm76CuVwYLbLvcKypZBe+Vy8RjJIOCpMmyAyC7RfoDugnzZGb0j705C2U5V/4zKCvPMIp3w405v9NSFOxpaBxud+pe3EBOqp4vDxL46XdonRX9EchDyQRqZN+8sOw9ZdRC44Nd66bfvb8Yht1Nx/+S5PGDpIj5r9uW7/eMqERntehef0/n+xhomiRGZIjit1tjtl+j8lhes614W5rY5bZQJzALS6pqKdiCk6XsUePvNNs569dN2zpvp1VXLBWwL6Sshi23zaOCGq9sfuTA3Q03IugPCAGYZplM8HwX2WDuEkV4pLKIVr0XDgJOKIns5sWLbXezIIoniwD2dZ8GICPJaZOkJvK+Bd2oyKztdGqmsuQ2qhOoFt2bXQ3z+MzFo7XfyJYkTUFoQYCPD4rNJoa6jpfXmXUjMq09hu5VvFcSR9FQs/iimc//HAoIFLgYUy3yGkfRlCmQIcUICnJUIUySZG6pwjPdWukeHHVDu+HGnj50QRLUUmwWV0jwzElfgfOjdgdxh6ogPyBouMLOqrg+aQMpzzNM0LgDVgnNUcQ3H8lOAP0OaVJiVUO/JX79M7BgIHuC52MHMDMn0bHXzeySSbuD8zZx/UAcIzJugSgNun/bFq39KvTfJI1TutdSQkrGUDGQx6Easp7rHncVOgbukGrFbgzk2bkyoGSo4EJKpjsabA3nhht70hAgZWO1a0DFJsizFctdtqxFSEb2IPNV43nuG+Gz1j5/Bn5H9PoTq+YvA6hzM+ypCvuFYdP20BR0YRHYHkT33SUC+rHRoa6f0fdrUAewYXXPgvD1cGu/9dy/tZDETthUEg92LZeFb9aieFnRIUXydEFTMv6bmy54P8BuILz9wgeJ4pqoZtqsP79I+YAUG1hMhJKZ0JWa7dCo2w032jmCN31sqW1jQoqmwLTqw0iE6vMmBXfYPaPQLOhqJhbWUmzFBnzKKOz5MFu7p3ZCFMA/KdH9nfDr4SYqXOF7P2wa6O+/Tr+zChLSrauf+FhDARE4T7Cd8Fg8O2GzyOC6aDG54a4zu00OcLY8aso9O5eQiZL4cMQvaCqVe336Pz3kkGWPlQ+9Tg/VTjHUUrzgJ1QCtliT3/dt6zz4hodvGDfccKM6B8+tCe9RxmGJpMioxMb5kkgkVeS+F4rzwlYXYhnBVNCvOtSOnLjyJxEoX2e6TdlG5Q0BL4N9QZp2ILLHAYtk+tlm+tm1pMz5H9Kzn07fb1Te+7GjeNs1quf0gPdvdRRfpagpSaOOAvPfY6KJ5SrIzhjXsrdcE6pBZSWvkFJWqmRKaEyxjBeTDqezdsONhilZek5fliKgE4C/zV/kPzNJYFUR1PXmP67aLYbZgyK/1i0vXrwsSJYiKUoR+Le4SXkhSdcqjvw5urfJWlgmb7HR964GF46qiwknam/adGrQoHverAA8pIRojcaJ0UJSakaZDiXSCgvIW3dD/3chuijoyUmvM4bemaGbpZ2UMvz+18yTpheNHo5aKnd/inV0uLlrcG4loDtZ7ZRLSSSScCgVf6A4FE3ljt1/j6Jlo7CnyNe5JZfrP1i/D1LInBfYC6TpalW2V54c5+gekbvthZv4vFPSoBv0j0TwLdXFq9X8INNIusI7PCYfR38nNrdpaJLytq2vT6SU4mvOFNAvxFUwDffXhGGSuqqaM1WhkCoS6twDQCdcFNXh5i6SSk1ViKUTofDtSSGoKLIP/A9reDQ1whqsVD0EJmsldLnng7GwlkQrAedbTc/Y4USa9bo9aVP1vbV/O2W5+K510vawlVF8mX+nREma7RqvwA9k4UkRugk/VO7BSlJI+rfyNG8HSkaDSa1F61HoHQqVAKkX9odDJxz74HqJCAgJplp5ikZeYy5SBfbzq/2+oLKCMgq7un54k1PVJA7MJRLz1Tzu5/DcdUqgEFr05sUA98jFrSJyNr1nk0kkQZty57GLonYHDT3bBNbw168D7sHOnZvovAt/K/4x64e6B+DiaLnuRDRNs4+iSDVHhheYBjqtlExqq9dTZbuWwD4giOAlo5420Sl/T+AH69u/0rm3ivWrigJmLTpTkXrU9nO+sQBeQs0jyEODm5L/Gt2h0AIOFhDG890c/jjanUEial0Q/Y+g6QTa2kWZdO0GQN9Zbe7wvow3Pvmsm8iuN/9huILaJLpxprwN84UiNlswl18PvTQ6jMEkC3psAo23YBs/F+eu1j2V1VAa+L1Nv4Ik1erKJhjdwGJQssHuzOzOKcErgVtNm5NKCvjLGiTvoobXBJ7rQdOMxjcIawnAQ4VjpZxdK3DNaxv0yMmMnkm9XauUR34sDQcfFQ0YX3BugDHblEzUQ4hksvXuyZ8CW1sL2NT9idvGVfRA9cL+4uWeqPK7vIvaSef6A3IadIMvCwNWG+YcGgKXMMAi+qaH/VBrKOV9Hza1oOMi567Cm72yn2x47tBajs75KbSZO0yVuKu562x3YDf2xyRlxL1Fc7QI7QTp/Rxp2hIuyR+Dr+pYRvffUhz0vAwAQOnXnxp+npQdyXyTc0smiS5I8xO0ZQzTLrUWdn7tg+lvR/sbl2eWVO/XqzpU8AjLY6JCrmGTr11tCPBTosWvaM7daoBHf05OXk4lLHASZcsI+aI/J4soPmLb1zlbEVjUQ0gmZgfaTkZUqZvztpcbcgfdb4KuN8FR7ohTeZR/Xir79ljg4v9Hj9MzQetU23LPpcgUSisD6rn8OvSCDZqBe0GhW/250z8L5s6vnDvQCbRQwjpavPnlXmqDuZtxDWhcTXPzBnoOP0fHlWgag2DB6M0tGBakpaJ5VuVrUBRkf8cUINEuKLxbV+03n4tz8zNbTELJcmvJIxt41jvLlfL9B6JLl1pYGsUaUdLcdrhauBDJQ8POSppiOwK8WCmMDfYEdFZL5JKhlmvnYUVleqaU0HumxKvsd7W+NQsqaRYTZlEP4aHEPX4aklABkpBuPwAfNZ/1dkaloE2cBjR7jmDhMBEuNZvQRWRtXNQ1T8+dKY1fgjDUuxhNvWXu1GKYZO5KdefOD+ZuhADxHOn2NZtzF6YYvcXeS7Fbw+erdy+yY9FtA+sdwd/0eq9U4N6pAZ7e9yIsGiklkhuxu6gH8JW7hvzVCaXYRTsP3k7cQjyL5r1QhPx+9nBPlxRtIsAjgocV8awBPDrZqIa6pQyabZwXlTXPIIpv9UOoTdgOYXDaoQB3uiKqSm7xUB28WPsvCyhH9Tdjeyyy0o42qwEIL4rGGTDnf1sakvOCWIqYu+mmzx1ZSNP1nBiKaufNxtxY35X8p1EwFLqnqu9Uah3syYR7tJcLkNR90VmmavxXq0VhKuFu/W9CA1UL5IIm8IeYbls/kR1pgtecZBsTCDmOsFy2LawibvttqE611gCGppnkaH7WwX7cNjwXiuZcoWdaJZXUSda3ytY4pUd7IXCGtA/RrFIraZO8wba510fCb6v0XFUPYCljYJquE6kWRMHAqoLvLuEm1m1C2XSGAOx5UFpQ5PWAmbt84BrayrmbDs+djVz9r2qeuhULpJ4btLmjwp5/qgWvqHoklFJSpbfD1C/0mjrndlpqDXzO+40omKLmTkXue0nhos7ZxeX8VZ1Np1bSsIf7TbAfANDDPwZFS+JJMz67kX0R1wKQpwj+DSpB3BKAD1Z0JGZkS5tB31XZwm0hNUm+HVQvcRa9CjvVJfkTEfHZh7A/DE6z2mAcnxWrIEYJLF4/2yCvI2FIG+E1joK0kB10+8xdn2nkfWMv36PNBnn5XCCJRQI4KNor8+dZzMskn/M6SEhDyhndJeljCamSUtD3OO+tjQoWZ+5SvE+GdiYJzAvx9/kvBoEXBYw6Cl6/oueFBOLvJCC9DFa/ANTtVJGKQ6wGxKKgxWBf5Ebe4xNDCw4QFU2rH0psoZ9FW+i7EvpS1LrRbqEb7blzISFY8QBQZCdd5VWis93aFhpgMGoEI1H1zynL0Fo71/r1jCU0FcCUC9PMvLXj3HGxjncP7WCPb+YCKeeElh9GfLKLYBfHLBe8SbPo570fhfNgFbsHUntxcBDrc/EqFXOfiqJRKwIkyhfVqVKtC+5cUHUpGhGF38eM/qywL1i57/Oo8OmkUXR8IiMxWA6IfTCDLfdcNTYFU03m36eMdfBg98Ut5d/DH4btKO9dkdhJssqWmM93zeLFS7syVNY0mReFRtf/SxMfwkwjUlyfSAehvoh6EFo1d0YBQslMZRo12e5zF2ix8/5QMyL5wK11YGAfesZ+qeam0ITdSZGj68+F34t8hREg1EsJn/WyTTCpoMJJ3EplHvq8enr3Fld6XeLg6vtcCBh5T3OT8b2iKkTXD3c9FR2eCGA/QmB7NR3b4Q8DgzJ85a5NBQX2WUb3k7yg3IOWgrwAzZu9qDXnfUBFq6kfSlE18Dl/JB9Su4F8KLJB6fT20NZ5TjQaLzc88b/ERm9NB3nN71K0dm6woyjTMW0/d7JAWvohnynIyznQE0Ei94RNbeI5upK/S1hMIdeCSmrUaiSUSEqOreSzF1SI45ck7uvEXiQRuJdx42eoAG/0XtYt+cI/g/vkyOD8XlA5dPyEgPcuVJnuPMNy98YWeNAkZwtpwR50ELj3TUY903PGrETv5a2VvQFQSJFCOlV/m0WJlqjtYhuB+3llvs8A5tQcAfeKiJC3zxc2m5NXn+VjUGGoJH3tvOOpAvKegPykpmvWpGtBp5OaaXjoOI3tWcXmvymcZws08IZCI5vfhDbB/Hf30U43pwK2QMVlO7V5WxupUq3yHorc6/X/IK1Meg8jWgbYr+NWfHpMnL7gkUjOkiXwCujoCZRvgzHYDm4MwknaKbYVLjJvX6rZycn+fAqJXfD+W61P/af09cwqyOFBxaSmatdXJ1GSawHwJHjfe6E5twBUxu99ViJ5ax2Rf3ezkocyd4iuNKc8l+cuoGsInLIQBwT5rSWGthK9fzN3hGLKNSkFSCGJZNkmILmgQlQ6o2ILrpr3ANxfivoQVaVaSkQxkUtl36K+/bPCCYCr9F+N+tn46v2eQR7wr0FbPwLrvwDYYRsMZQ4naaWQqsgt/Kbk4H+bQxYJVvCcKzuJ2W68rQ2A3pbCk6au1Ik18ufPNsiHJFwXqVaBk/nmyhwbKXpKDfLsDbSLHsJXhLfPGSYMn4TmLk3klFs+dwB5jh7/Cnls0ntUgJWqnfdTdEiz6T4B37ulJ7G69k71jL8lhSS6gA5Q8AYSm2BFBz4b2vgEVaqVObte70+oD1DXnymtIQ22AfhR5x4Zesp8Au0Bauv3AQLqK+nYAaoFwI2EKb4H6MNfBsdGjtbx8wnTw7XnN/Q3R2vaqG2oCnxoNMG/b0IUH4A8DrpBzm6l/rha3gGRuwL3QqbbZV1eH12UMsOiILNDmpibgqjkQFVL6oe8ShPAPbIiNXLu5GfZF0gVWYnytTB/HUN+LCqSDwfUTHa0Zz3l2k2i75d8V6io8b0JfafKETYZwFUEhuTuCTGF5K5iLhxakHGT7AxaIa1GgnadTdDuFcWP30bt+8ZXdR1MgD9EoH2J6fZEkkf693309SE6HkDXJzqup+j/4tGVXcfexi3/2gbcZ2jiUYDBQNwEvrAQFFj05k9vNciH/Hfen0LCVfUBEG2xp3xRog5f+a4I95ghCPDDCClc/jNZzLNWY1QUrmRwj4Tef0mX3EfPXd90qFAny7krqkDkzdW03g3scJ4L18uMovdSA8fD9vP214UFDaGg5gsD1ia4mADgS5zI/6qcD1bOuko15uegwf02MRWcjboZo8ZBkraKIgdjbHD/J4DO2UD8/Qbq30p9Ww8aWd797LuW276repewto3AveLGxE0B61qlky01A+RNO75eb7CFIK/975ebhFQ2vGhJohZRsrCvD352L83lHRQNXgtTMgKMH7M52XWmvSH7YWPbG/KzKWW4mJIpVK5PLXCdaRZGqK0qbBrS7TSmggVx5tzdZ22BvRvgImiTbt5V+Df//31i8FYxd9kA/STzyLcIF9zg/am4bu99dXoLxwoaIrx5wsckSyS/GRYzyLXzs/2jREVOyiYYttZ83r3ps/l6QnVQKZjnvGn1eYS612a78t0A9LpcdbCvuUi0a1GnujGeB+9ymzzzdjWDL5SEpqeipGaCvJwblYuQQibJ8ld5+EqqqAc36630ni6hRNcK+IGgSQUiKujTOSH1CFjBAjjMtfTm3w5vbnSvkug0iGizKHyhaI3Of1lUNBdjYZTOXycGjWHSgXtJ/l7NXdF4/1OEiVwQW+Q+FXa/mD9rLZx7zFL6N/6fEqGLESCgCAY+8RWfQfq5UxWb/vujFrpa9xiiWiziqepK2LOl1i4wfBy5dFlFAVKYYkJrTthQK4lkKUkeDTw+L2IXJpzzkqp4v1saBXUoz/h2GkaRA+CmY62N8ufJsZb/v62BPToC8V+rZFGTzQF58wE/6Kv+qs0AeVm4+o/o75YiplS7E448A1Dp9R5A9SDN2RvBRyZZfLAYGJtYlphlQpGJWgILKcnXkiRcZe76lvS9mMD3rgwoh2LF3JGlBT3fX6WH/BgAUMLP9wB0+4G3S2ZzV7aonSC65ZmN3JuyiFpzNW6BmeTZweeW82V+Hoalgtn59eIe834cPuT/wY0rF8mOsEQSncTM+0kmkSxom2AsrinyV5OiWELzb7nWlLJUN2InIUlqlzFPXW0Vv5dumv9qNFJKzLubNmUD08ppMJXenN0Qv68ikIrFMkmjaLhW4mEFfZSoUKRKYgy7iriLqPwee8v8KqF/yYy54/Pca4zI2HJ2xtx1xJ87tpi4KFRBWUrDe3NdwX83cm8GPY5pV5Y4j8WLsv1bAvV8/ig0fFFeP/WOqtdlbIkpGDGSzbj3P/0+q7M2gQaCY2XC+zN45vP5vmP1s+LQt8VUjb1Z/U83sUijpFdz0e92qAKsrBYslNGbLW863r3sbIcWfEvyrwk/SIpDbKSrVdBDU4MuvofSCNFbBkAlXenvlmYsMfhkyVm8x7pXpoqMC0FyNO9d4QW+3uX3nGbuIsrk70+5QJZUFH+DyAJrzF2nylNczLUBsVQ+lcVK3oUZNs0RAcUrJd+RMMAR7/2kuyQBd+wC3tiMgM6NBofibPfGit3EMuswH9ebVbIloGbQrLmyk0zy5HDOWM1eJFV26nWy0Jp36oeaOe/70gBVqMJxuFFViMwdlA3SoCPhNZQCjTa0+dSnFqX7odfpzGLuQr44JyYul59JcekGGpHXKsAPXThyKknb4bG51k9FX47nL9R4u94RvjZd57I6qzqXJJ7uQg3Rs3hyqxV0btQAeVQsBlv0+FKoxjPq9uZej6bTGcilOssg4p2fchdS6ON8gZZ3RvUZzXoHRd+/KRTJJzehIjqpI9S+rR6thT6zEo0meKhLqgBns7YB4HurqXMHQ6yUkt8g2Urz8PlaEaeq5uxBIZDy5IlbiVrspT6rocUvE4qS5uNDSXYWVT7XZPJo6l3swL0NQd40vig36m2Gr3dkwUPSAh257iVIDua9O1OoZiQZfB9qBMLnbwVNBg5Y5UKKKWiaUSl8qrUwqej9mJRRcCFIVPb6/VHvrfkUo/cdKexJuEAFNI14rEfN3cKFtsMQzdkLJRnNvjyxqmjpXr1REvVZ3GOhxfrrTXx+6xY4UqrqHQ7c25iTJyXF8+mBuTW1CqUxkL+uXkuwGkNX7n02xQNeUGX/J7YKoMKvw345P2XQiB99lamGAi1SyxqhGoxmumxFkAQQJsuRe1+fvGarHmwBR/anvyuhe6JNLtq8zX0+t8GLokLk9TC/SGQmUNBM2gIk/4dZuoEKwBtL8Jz3a6bKploE8MXAhC7nrWn18+NGDLpDucUdTh/cBsXJZnqjcFMBcZS7HAqCuDdF8LCRQiNF9G57zBrFQf7ts3VzBkAFGWVSF0DVqEG/lyiKpLyo+P+VghoKFkbIbVsN7jOSxNRyMbFlAP++iUJJn19tcSxrzf0VqlagGJtGy6jyOAzwaDZiCreSLnTJaZwi8i4O3OcAyMvNArULwKaJJkrFwPCfCl9i3hyR3Htsf4wy93pJq2iZeu8HcxG8n7gl4YHHdv6ialyydh9Ek+w0FY/sHvq+2dySqwKf5yFRnGJxLNnOWfkPV1kcVUNr77wE9xxLMo2c9V1Rn31agGczsHsy7NrWGC3Y690J0zVNY7nRviPYmhJl8Roptc8Y5EsRlXOrayW4oiJebmzwV04qxa3GnQybdc1moxIl9TxCFdAU4wI8g+7lQgGE5zLY+Swxu7TNCXc+Bdl9SVPmWZy78uJI5mEJqTrz+9z0+ZtVAD6q1qLxhZELm7T/TVJbiYj3L1XIKL56KON+D3VVNvb1yhF8RxtWqroRHeUhWjk5KIBoTiQvPC71zew7tJFIMKCS6EFJsFWuMJuih+KkDB+2tAsre297v0rAowYATyD1J5TSRwC81nF/IOHOR9QS22Al0AZbcr3rfG3C+6E8d8RhS0tEPXflvMXRj1J5i0KCaPcByZFktOPRtQxlm4kWAHwouV+koqZXqPfV6ZB0joA8ZINKitYUkLfJp/zPRT9dDTTUdVELOe8bCbXILNfM/1wi0DbgDTUFcHZCPrlopZ759VS00xUGKYmyjWV0Lv+7BDsfTWt9cjapmSoUxdNg8JZm9wMVGXyEqs/d0i6lNJtMEMhskMrejO45LTZ4dwuti6NksrekEE240epRqdW2znlNsRhWLnb0OitrbfXK0sglz6G/uV11lomnRabXzM3sOdkW+Q+UriN5mWRnwuC2kebnwDBIBTpuqECSVYEGIAVp6mzTWgriBeD3QnSdUIlUZHrr79IjVM+dkkguhPGZ5etjmPSJfz/Jg+k6F2Q4d1oDf6EUK7ayHaXMNVOe32iXhd+N+CDfzL6T0sz5b4iSqt0gKql2fMLtuBRbXS0Pcrs0CVeR6AGQ/SWIRAXgtxAAPz8EUoqr9t+foCGEKqbyL2qzh1jrwM9P6EUkWvh/RGnhlWoLfY13JMhdSM7nCtkhZKmBZ+uLyxLLbCs96dN67K8K5/PcmAMgj68wtMqyEUSU8RNF1qdGPbyhrjUfD6puYyS61E7h7DA10i4ADwDwxPI15vtjH5itfRxhq0XDfIagpLxymf1kAu79IfLnOabNtuHai+VtYj2QCOAp6Q674mocPCp1RRwQ8/4vsCHc18Me7lncM4ccsuyx6NSWkQY+sdEcv/4mmJ45qmYOgjx8u1UT5qmMOxRJFH+daOP1QyARj2knR7apKXhQJHQXtVP0Ho62aY6/lSAak0TeDIBXRUHPNX0A/Nj8+yQD1B/Eo6eN5k4rScr0VuP3Zj0OPjg/rBHKHcvinZ+95z9Si4JMsetbgCpmttsoJqNaWOljDeeS7gDEMuMK6TrlQH6OgTwKKtB9J2F/xkaqMYtR1ZgKpJ5p+PcEAM/J1asXLXrZE9rv5qvwFLmEQTg+wBNFAyAPb+EtAPa9AgDIlZvF+ADlfS5LgMoO4IP8xSF0rTt5oUsC8L+BUqYavUWfy8fi7hzl+eAitNOz3DkqgD84cZEcN7RB7ga+RCmllkVVI3F+1O7bjTkA8kRFPsMYLmVraVDyen1RaXw0imc0AE+eJ8qBsRhH6xwurGonjlBH2/CLT7DdZoD376Ik69PVObWU7gyVRynF4ldNdGeT4O2WQFMJ6oVBsU8MgBcdvG2wYe/x8H1netVSdymlgY9tMkaBy+sznL+ggQZ7Ck0mFEFI/uH2JUv6D6Qcy5e4nWdSPxtxlXwQ1+Wi+Lk1AstW4tlgE3BHgki6vvFTr3elSBgVSM1jnvUtgSVqb8O7h7L2naOodosqNAdPQHJ9EoCXROHA4QP7SJRdIXnNexckqF4VP/+d4vHeTtSWnjve3W2Ou/hHNZvuCDqfBTmox4N6SLJzZDO7bWjhmCHgaepoZYr+sHLf3IRzcleoDSmr2Cc5UPurSCfb7Z5xo8aNVRFNcwu6TEC+XFR1N9QkQl2EEqznJrBElSThw+L73W5RhbxHRN94wGKDVEAz+FcL/wkAkPeJ6lYC+O/HrR1Az14G+LE+bijSbiXpKoJ/VlyA5yCBZX75j4cBXt4reuwCBJmiSSKRHFmS7fxpy47zEmrgy1W8Of8XylBtsNwbIT5VI/k53jF/JcwAuNHmQ1d+IqLOrNq1zMM/pDoCdepts7JETaLh3o4y/TYEqUAH32spqAdjm1mVH6hv6/Mqa4fHAfzN9rvX2xU/d+HdsGTJwH5tHsG/gBakrbEWx0pvnXeGo+MA9GjH6iUwtgtsgmlXhvxVhvOnOlx5X05i0yBBEldA/z85H5qQ0K7gu/2mADFddzSWTq7MMvfgRguG3vrTzXB+ii1itQ47J+gbDl+NHIwSYQak8vFAiqOUu+Dn3Y4AH/DkRCHFVWroYhOd3NIAj+pWNHeOHYEqe2cBqDaLxLSK5oggP9No5Kl6pCJYCX8eyjv/qITdt8S758cZV07PsLeIrYFXi5vY/ar3+0JF1STdnQu9dycSwS6Kn2NDwIObNl8eW5teQ6tOkrJyZ5iFFuCZH7wlTak4orw2jEIVBYUGFgPxCk+U5a2YWQlIqSKdZ4CfT6KBnysATwB9dJBsjAnw3BPgZerz6NSBDMC/nMfxpmJLB1WEnEX+RyloHo8CwUQ2wRFWydpLRrcATBG4SXHhL5x0cg6DfC7XD6nW3amSM5W+5u8Ov4bxqu+NuQUPNadAD9J2i+Ar/FSIq42tZxaKjBKh8v7CRU5sJ5vE3kGqMG9sU4pGq4ROSgDCIi/dIT4xIYmk7KzenbACmCkQ//1R/HlqWmqRSSxv8L1kAM875ofV4tapurw9gii/H6bqdVz5TJ8bxQC4kSHH29wHzP+fBIUgM7y5ecv432EOnptUJHHMEyXD/dJarp0KdZRd8EkJeoyqtnP+9eIkqTs3pQF4cMj23PlxabPYZvTWvI50Rm1SIDYmPjHyrFQk90WBFFPZpOifwayid/350jXnAu1/AgWN/bv8NjrNi6ICA/RPVoFbUqpGRA4PSo1LGzi47h7A3oqVUkWJz1Pt0wopV/u3qwdYONahBDpurUWelo7vbRRBBGACmsssbr1+bKtgpgEuCEd4CuAPUO0YJxPomu+jCHegnemtXHzDLV3kdB0S0VV2PxTJ+t9LEMkW2KTvAbHTzUoiqewTXpfQl6nCgbT/iP7u0AKk5tU/M1DVpKZqvBtkIXVUTcqIXYMYJ3g6m/yQddID87M0vUUDTjCiqAY7hD4/Udd45XVTtrpthwgi5PL4UOxIrDIx/crwrkoBPMrZ/5ZA5jfV5jUEwQIJ5UfMe88ujr5Jgl4WLnJS1dNPonP/FqoSL0Zyv7z78TbT4vjSDBdH5T7qn5EQfMuLW693rfDjUQ6kR8MHn57rlIWNum3hFx1VkxGw2wKN/LnI4kvRQRMmtaKcO01/zIB+yeePDT8QkEgOJJduCZd8pURqsx1BaH97mrefJFy8gkIV8YmJ8vABdQOQSiCTLCdaVcejdnkwK5pOE1DFLBDT8tLP1Nr9EID+k+dgV2yJJO2cIBDIkN7Snaw+kVQDbwHevKe1eqGMyrGZnsFkJJaSqpnRbCe8W3CjBrDrDwfNM4y7HjsTstnRKU0EeOHh35PYO76sp78X3B9f697qAb6Cy6iT3GCTkogks7G+NqAaylXBybtTKZVG2cgqtMCb14DSid77jxJWHnOSOr9efG7azWaZm07fHkdNUqkD998TBhwlGTxCtTgsJFgYrxQb4swbfRA4J0j+mvcu9h10/30qPJ+RzzYlmjPoCyGuk3eKos1F8XVu8LC1KQH7cRTtXoUPQlZ3Lmb4vRhtZTyp2m88TaLVcIJ07f9UvvAG4KHgkB6sCQE+8KMBV1vjhm7JUM1LDqT39c+EeYuiWhAPi3o/ld25/M+mabRtqQDvrPCDPxuLY/jzM/mfvLcpSZFTSF4anD9Ifi/JvyqhTbBIJNdqT5usAN5UJ8fftVTYfITyXZHRdMhu+lcZUDUF6aqGwMOBfBVgD08KkmDoahMoUeSGLHcIwo18chPoiTLA93rfTxJR6GgUlsTy3mRLiy5CcLxL2TU+KLwQSdxsKEIE3PGAGvtlpmYSOHMWQFnBXlgezIgHRdNnZyVMUms3zr/Q3PXM0tx1hgAo4KLNvY+ep3FAWGngZVenFi7tMz/I0tU4PWxLsOANBxQdGUokuYXgP5Jq4APv/Hz+DfUWbUXVLE5tT6LFFHn/nOB9dTjXyUhgJ7A+FO2yoGdlHlcmsRhRUXdV1gUH2mXS6LgTRKPVtstlHrSvT7fcS2NoxlHVl8PX30pw5y3vp1m+mUgBwXwmCnSW8t0RKT1TMkxrF5xgkdS2t1L12OLIq1M7PMrioppuvym2xLRMCW4TCWiUigQa9tj+RxVFe/n3ZLnrCYqvYPhHEsZEQU8Z4B+k53aJes+d9WjYoIVnOlVNkRvUPED2IQPqfe2x0sl5YSAy21LadoNX5htQA3spyhvCRvH+W7PkA4MoirTrafh3ueEQJYQ/cHTTCVwk03nQCzCiL+ub5OZtAVB1VoA7qKx8X5pm5pPIRyB6V5rovWotKmzGdVuChtthPfMOiXj5NZsdec0rU1oD+xHAnCa7iOC96abTjd974l56q5wvgkrphIVuApvggNKR+yyre6yK8qqQMN+1GcVSjdCVcv2m6Q6JFRLRfZENu/2/iEBgT5VOVqxqpmS/N/9BUBaYZOW9UW+ypWvSDeqG3juLB882Hcgn1cBreibYYYQA8R0JqZ/qVA2ZRyGBJjdvs0AeN62yAwYt8ym1EBZSAu2ieuAhDw2iXlBoqSoT5R7Ko7K1/8Dw+2vG3JUX+dzj0WyGAGEdRAQViVBSwcRUk+gCsXXwOdLzKPceXgdl9gmS+1Jcd1/WxXWR9gkJ8jc8X38TC4pG7n9VAJUnCmpnGpNBqfcIm53taQ1CAnA3hlEEdHQD3xET2Gu7xy2MD/L4oFXkuIDOd22KnpBap35WNJ3hfzplxFBtsbtFyvuzVofgRtXnG1gy8HTJUaQA98gWcHUeTu0dflqqauNKPfPVFFE/PWqHkgWI6fORVfHzAe7LjjyqovG3vDZyGTEDAB1UfCs8jypwmY+8Q9z6gUADr9QiGUokRdXy3oQ7ZvveffOefildrBoMcHRO5wOJJdFRRYhs9rbHVbmikg6SR/iBYEItQDQO7NW1qGWuG5F8Iytn+MEz236SgSWxK50ZTfjj/RwV2srOYLuGB/i7KSSSdYDKu02qNEPvsTMLcOJ5Opbew9/TNi0XbTWd689xKgLLFIdJVk+k1DMr/TjZ4LKkVa4lxTbbSEfDc0cUxxvRcxSvx0GAbppuJcHxG5WX30Ov//EwwMt7wMJi+p3Gny8OIAz9kGXlphI0+Bcl1sCXF7dL4uZT5PeMBTUFdhwopQm8mKrxJuj+fP4eR9WgQw94wiOXLpOJTNsmT0qop5TnSwAEOISywCEPXfgGINB6lXIoLKWNCMOt+vSNhORwht2jInhAbwd2R8t4q66jUsUzV01ACahH5klotyQVk6xqShrtTPLntkuqVhuNdkL2zl9PwClH7QYtSORhB+uvAP0UXuTqJM46JbfEoD4vdH8dhC5LZTmf5Y29kBKMpKb7QaOfQAMvzqVnaNoxlJj2E7SI1KKGX4lNcJYSSVas/Yyj8NiV3aLwAdWbhBpRC2Ef1Esp1W1qsfV+JvfRHiWdxAehbuBMKArZ3qFCFEAUY0dxMKIH5dKYpvl2UPggSoZwootdFm9J2Uas7lww5XUFgdWr0Tov6uGSBU8oqmoPhb/YfwE67cCkK0iA28Up6WdXVCqW85OoWFThzisSJ+eqLJD2/fk/hKIniqqRBVvPXRTwmxwFuYbCUkJyTOJ4GHwlW2BLeVhq0TTbRrPxmJ2cyqKD3GvD9IdS57wulU1wLn9pFDinof3w1fZG8K9X0XNsRZS93/NDCa9PN4n/kOwkUuCAYRb4mt6b5Zy19VDt8V6SwjWuZqafV84xAu0P0+vkoa8FLSTRld2K5Z9ljI1IUVCR3E23myg3w9Z62FDDY0Mr5BPZBMeaC3wNIlsCejSpxryLtUE98ATHjiIzE7ETsAudxtdcTAukHBFenlTmKvNpCmSoXiJlsrXaffQA8gxQjoBua+QabfI0dzC9t1XwhIHOWugYc30WWGWndbf4ukikByOv2IVIFRr43KJQBKsK94JG5Q0n9yuKiFSeJEuJpDGPK1fuFhIq1kpUxHVMeHGLey1Lly59IooouY9BGjwoSLV5Lyemd3uqRid9cPNn+FDqyLBowWjAeor3en+CDzS28khA0c9/jcSubKMyAi3dnPfPR7CbnebdpfCBNfCllBr4Rh/MSQErXlA20s17Bc3DhXDVQ6cp2Bab5hJL8q9BOzIkm9Cog37vZgFiBQpp6bSSzBM4fCy0aW58FcUfo6L4TPrpygPKrd6QyL8VuRPsZEDhYL7M6xK1hwUALfLo+Dzda+tEz42/VX74hYjeprdgRye5KVaTDCZINkoV8EZYKVeRSILn/ngam2B6n6dmqQxRNSeHQ7+fUiJ5f7h/QNx8gNrpHKl2WcW0gQxyKiKd3N0bduv2YccHGed0WvBIEME5Ie3CBEcdSvlRyIAmkoirhKhXbcc6I6KoE5v0vmstepMShcn7VzuIB02kyjd0xe/k+/TfZ0GlBc1KIE1TAJQoGqxsYO5/VcArw3kt6IheFjsuinmY5+0hAZmI35mMur8kuYxcDCJ+/eAr+jKWDzz/zQ3KFqMiwYq5wsKdILkvMtYC6L4sI9HgPcM+IXkvZFncRkUFlZTv1vcTjAZjF4TV6AlBAcLnklCRc1FFI14Q+9Cb/2MTko0VKygXwRRUlD7JNqmZ0CMVXderfIiVzRb892SogY97s02aQ/mWCF+vokY9b1lSSALuDxINcWxY8pj2fiKFyHNU5fFkkxbJguy+IuZN/95kHXCWyO5bKqLrlIUqAQdckFZyYT8UOb/huUkhZgrK4hWGTZYT97bOInMNPNFZCTXwSv+f/52YoKUBUPlbg0+0+8+AZaBnyYpAaCE7cU+QTqqoK396C8GuWecX8//roO2PinAqt8n5z/K2v9hSgI/I9CvqoKAWwVIT5l1A4mGamzclUTo0srWG9lg5WRaaeB/NnLdeP76kkexxwxEk9PGxJZLw8TGRef4r1SSSpM55upK2xu8BDFqTKbWsfOB1YjNhPYOmQX6QkQlaEHTQjuXlCY3ZqjqYigCkwTnsrHHUyzXMnoGe6i6zQFwVE5abz+qBnQAD10ZdRVotKjDb5Lz3fd4mF2YR4Fu3kPDNzXLItzRjm1rZ2MG7MEGZf6vnpML5MBAfUASaoOl0CfkW49tE+ZPw/MpXble3OQENEjQqp+f1yRl+dmXaMudfGrs5e4XCZ2mmFEhIhvvJBHmLWsKCyyTf0gDVJYuNWKjMC1G/Ir+eFyV1nk0/nPLqzUmlNn4g67V/exiKnFqUg9wwhx1GGfqcd00Tksvtd1SqRe7zqcCnmRykChoeA3VO8FA2MZGdstoR+ZoTrERyoUgkF6JALi7Ai0wQyd9qGnhOHJaSSyT9nwYLagZOibqVIIQPCWsZSlGmflnsDFUCuAcFXhlQycXy5+S9s861dqbA1M5arMlscPGPptX3ZxlXdrYK3EvorVrvxipLJKm8P2Yjhzl6FAPJaM7bgK1uKxJMZTpiYD9EnCryaqe5jjI5ewQDvC5EKjS6kCqr3JeFEvw6kHqLCqRKsQFUtabLUiJpLEsIQFO4tkoj8BOyvD57DmklaIogixlQf4IbO/zqIgOVr4NCyzsfOz0omIy1Cxn7Qb3FcvN+FHdClqvfNyS3UHaBAkfhXJbKp6RR16GgOTjbvKt9KRkrPQwAujd/SiPAFXDE1hL1PuW7k4T7LbX5/ASqk5yVhx3cSvVAQHeQq6Apnukb0HPXFrSeLejJjwsfK4lRuIwmSDYWIzqH/ctMlVH+vQnyXUWogbhg59wsud1K+4Rg15JMA4+vNPhpyyyBGdlgJh1VM61kwr9FIjdM1YTyde82su5c/nruf/EHVBND4mwXAG/t0S8/Buf6iT4H6OLABoZtS2ajV0TFamX8aaQirT0j+ULZs8S7V/dhbMAci1sA5l+WUANfqmiD1360gyhvpsqVoPmviPZXJ0JbQf8F6gx4+uetFawCzdIsU1esgadtP9dLSJETtu5JNPAMjvAgekZVDXwu/4UEBneBLTeBzfIsF2lJMgKYoWFP+NzL4rYF1dbNCCKUUdvTgkbv6fBJ+wZ9uhaGiDsurDz0TjiQl6LamgJGdFFTPvhQ6n3E1ADZ3OBRswnw4YTGB6BdV6XwbcMlB9WNeJDIuzpGVKoSgP6KFBp4E02pBGK7JGkL8qDx/ExoLniWEj0ByMP7iIDzW4F9QzZFbemcP7mKF/mCkFzwwgQaeFFxXSMtLNXOOPiKRvXJbIIt8IbBJbvdu3887uOkGnhp0k6V1/s1aZcYBCe+qX4PKLFCBnmY6VD+rjN6rkz+ZAQUnv5/Cl5+CfWQ6XyX9y4Ighq6F0xvDesu+4osP7dUHzZvhT6uHsbJFhUDVVWAiOLBXo//Q1I6PDNOMiek8DhPWto1XCpuCrbMXPwDbepE6qYeiMJsRexyowZJ47z3TfHgmUVwnwHy+IokHF3rzpCXTnEWaKxdTEV+eeZzQNXdfuziGtMsBX/bEWqwrb4+OchJxFTQSGEa0YsvzVgiOY9piHfE7l41sxH4FbJYNsMOoLLxu3dxVlSNyE8FU8LXLlE3qs0ROEk0Xv5cvavovX8NbILJY1gjw5PZmuQY7hHxilmN4KNAHm208oFDXFCgU2phxD4pySV+GMfQeUeusYo0qT6Pl/e/NBBPA2+2c5CQgXsTPTNMnwIuL9uK3MYKflTlJs/Zlap4qUPJumZ9VN5XfTk0xDCLkl8B9M2euxJTfCa/tHRgWeDropunwJM+gkYpVTnCbRsvqCaRhI9OQq8XAfhb0laJVlOJwIgthU2wWdzovX8j6vNuBlWDCJl20n9n58tdae8Jpuu+F16UK5Q8sBIxORv/SH3PgH6k+fvu4sXLnmJlrP6ZWOgRCNLfvojyPVvFn2fWAX7mm8PWLb8+VFbflIhekoM6Ymdd7j3gLlElGbrGzrirPxJpgXwvSVMTqnCs3J4hs298T0pqjkoZA1ZJzUtRWxnYmzu/DuoM6UjUBlF73UUWqi00CsG2XhYpfX9lNHclXTksu7Bg7ihgkN6z8uD19/d3S48EBo5iA0dAj4mmXssYK8z9ct720M6l/tEb1HlcIzbBWRWnVWrg+/VCW4zx3ifDJmhNTOQHO0JUpKp84UMRhW+FGtdcUBYYu+S5Ep+fsIS0DPDe6AyAx/NHCVbeCZ1rcoNkxY7cjrGnJoAXaq0tAD78Adnyc/8r8PxQplfTQTl4MlVJKQRck/JhqYd9A7ZiUrwUKipI9H7YmuGGWDbJqmM7fZDnhRdBPHRWDuX9EokqARAF9nITTUqSWG3/y4eqaq34feZGEa2Udwv5cTyUWGAigL2d7VA7Q9HRAiQ1YQQlUXB47ljRNalcIEu15k79flHfU0FiDsZ35DUjCUEdGfZah9UH0CdB+wHVOxDBDvQfOa3qDHS1I0d6fcfa31va8HnlsF2nvF9mqamWZ8K2EPSuw2vEec/6ONLuhs5oheY7pKr50lKa9yTXrA+876UDR0oXqFdG3a9osIOkqVhLlwHe+yMWX7OIU6ctye2YRWGJSV6X5JxJOt01beANVBj/mIa8/reRLZcbQdQaSpq3iyOfyRkH/t/+rFDx8PkD+lw70UMVcjJsbyJ2FqkMsYhawTZ5Y0yb4ECmhoIwvdBosMLuAPwcenkiCkRUoR8YySEoz5TwVj/wpenzK28+nsPb7TbSP7WPu9Tom34umSeFfe9Jh/0Umrs3mGYcFP1YWmIg0dzpB5c/5/vAjdI9dRG9xmuUqmhGVLgEwYxtpvIdKJA809eg+oGfm2tG3sN8DXIf82bSIIaa+h7ObR1V89+ud5R/z/jiL89SYy7zb6y70Y+51/sRaJZGrqvi+vJmrr5HYHZ4lhLORlgGFEChHzFkjABVuo6f0/ELfLWyRe/H4YN+9lP+vcqDGoPQPF+NJkEqaJqnGrWgWcxnFS6xKs8/B1JKua+NEyzz9KZojhYhus7/bCZ1lRllgzeFiJrexBqTRICXNnueh1fE8BH1O7YCNb8ek4tz0k0ysGjRoidE8G5pIgIVReWPAPDGlEgWg201J0u0UVEY6MuRKVkA48Mmm2RQEUiSyWuH50MB2JTZ4tHuxUQGpLHFrsHaCOeeHQZx3cd2Lo6o5trwJTd9AiAzo4fRWBrbuXu41tzxgr3DUC9kemUSX/TgYUstDeEjIrNW0ljzOmr7mtQ7mraryuDaWk4H6vsGgIyeBraCOvcY7KotHZt7RPjg/39M1IG/g1XFwuqRdmeV/+tshApr2xHqZ9rBCanH5nL9B5tO7GRUBDAi0LzWyIKIq6LV8C769yYsAqAUoBO12xkfD+3nURGGrQsoIALxR4UnJQNgn/EB0MP+2kDLHgPgbRs2cGn9B1fjQKP6pjJgPYKipP0pgjvUcPakZTY+8Kb6DYls/xymKVZhi2/kWPn8C1FdGHU+eZ0sStXbCeijohs8uNA+E399GOYOdRqcxDrbzJ3Z6cED3h+G9TWqChE1IeFV53X2nAbMu/Fosoigc5b/fna21tUkWigIwOpH0dJTc7mB5yGpBFBDtxwAFjLf4MAlUVQtS96EB1Br4M/0vX7h2uL6fI9IJFjnxpoX1Us1LQBG9bDdHR/YjOeuU3oCNxgsdAo1Gfuov+AmPnezk+a4dqHNkh6zCGjzdL/nLI5qkXqV9zkvdG9V9KCYq7bEnRmATnCOZkZVlT7w3idi6mdZImlUFb8XnW+MyCFoni1zpT7wzvA2WTckb6DB9O4+zP0B5UFo7sIPTKcAVPj3XaTuhhsZraICTPKAyXZYA5b8fytXNd0XE4mhuAAvpf/oC1pezFJvDduCx5yrwO/mzg033KgAeJuE8a6K08hB5Ixhz4qO3b0zuxtuuOHGXAJ49MlESXIsm2ClgUdSWNMpbmbdcMMNN9oE4FHYorrGNwzwor2OKGJxww033HBjFofu7XikaKkblkgywNPxQNnrumO3btbrhhtuuDGXAF408G81YJ1LoIGn6l0UGukdgRtuuOGGG7M7lETSPyemY15JaeBvkc4vDuDdcMMNN9oN4NFNh7vGN+iGqTXwV2Ts5OeGG2644UaaIdWF0N/DfIgNzWIVOXHvxq8H53QA74YbbrjRBgCvHfOka3wMDTwO6x3uf9gBvBtuuOFGGwI8N+udYB+ahiSSXq+lcZBk1Y0AOpwG3g033HCjfQDeuBFSN52EGvgSAfyr+ZROA++GG2640Qajs9w3Ea31TEOS2AAPDTx1+jlMRe8O4N1www032gXg4RduGmrk4gG8jfj9u2B1jPPs7na9brjhhhtzBuDlGzIZO4/17NIjdcokW2sd9Hu2kbL3J2kg4QDeDTfccKM9RrmfLMkcpWF1oweieDRIpsXhV+jK5ADeDTfccKPNAB7+82iqa+SOjdkTBIeVSHoXyAkdwLvhhhtutMcI2mahIzrMxqiFYB/6dtY7evkr/d3SgSUD+0Wc0w033HDDjd1ssXDDDTfccKPNRqKmwkzJuMImN9xwww033HDDDTdmb/x/LnPJkhc6h94AAAAASUVORK5CYII=;" vertex="1" parent="1">
          <mxGeometry x="443.16" y="405.5" width="75.2" height="40" as="geometry" />
        </mxCell>
        <mxCell id="BevlEe6jvOrSzMGnIV_--23" value="" style="shape=image;verticalLabelPosition=bottom;labelBackgroundColor=default;verticalAlign=top;aspect=fixed;imageAspect=0;image=data:image/png,iVBORw0KGgoAAAANSUhEUgAAAXgAAADICAYAAADiIPpnAAAAAXNSR0IArs4c6QAAAAlwSFlzAAALEwAACxMBAJqcGAAABBdpVFh0WE1MOmNvbS5hZG9iZS54bXAAAAAAADx4OnhtcG1ldGEgeG1sbnM6eD0iYWRvYmU6bnM6bWV0YS8iIHg6eG1wdGs9IlhNUCBDb3JlIDUuNC4wIj4KICAgPHJkZjpSREYgeG1sbnM6cmRmPSJodHRwOi8vd3d3LnczLm9yZy8xOTk5LzAyLzIyLXJkZi1zeW50YXgtbnMjIj4KICAgICAgPHJkZjpEZXNjcmlwdGlvbiByZGY6YWJvdXQ9IiIKICAgICAgICAgICAgeG1sbnM6eG1wTU09Imh0dHA6Ly9ucy5hZG9iZS5jb20veGFwLzEuMC9tbS8iCiAgICAgICAgICAgIHhtbG5zOnN0UmVmPSJodHRwOi8vbnMuYWRvYmUuY29tL3hhcC8xLjAvc1R5cGUvUmVzb3VyY2VSZWYjIgogICAgICAgICAgICB4bWxuczp4bXA9Imh0dHA6Ly9ucy5hZG9iZS5jb20veGFwLzEuMC8iCiAgICAgICAgICAgIHhtbG5zOnRpZmY9Imh0dHA6Ly9ucy5hZG9iZS5jb20vdGlmZi8xLjAvIj4KICAgICAgICAgPHhtcE1NOkRlcml2ZWRGcm9tIHJkZjpwYXJzZVR5cGU9IlJlc291cmNlIj4KICAgICAgICAgICAgPHN0UmVmOmluc3RhbmNlSUQ+eG1wLmlpZDoyREI0MUQzNjE1NDYxMUU2QTQ0NUYwOUYzNzQxMjg4RTwvc3RSZWY6aW5zdGFuY2VJRD4KICAgICAgICAgICAgPHN0UmVmOmRvY3VtZW50SUQ+eG1wLmRpZDoyREI0MUQzNzE1NDYxMUU2QTQ0NUYwOUYzNzQxMjg4RTwvc3RSZWY6ZG9jdW1lbnRJRD4KICAgICAgICAgPC94bXBNTTpEZXJpdmVkRnJvbT4KICAgICAgICAgPHhtcE1NOkRvY3VtZW50SUQ+eG1wLmRpZDoyREI0MUQzOTE1NDYxMUU2QTQ0NUYwOUYzNzQxMjg4RTwveG1wTU06RG9jdW1lbnRJRD4KICAgICAgICAgPHhtcE1NOkluc3RhbmNlSUQ+eG1wLmlpZDoyREI0MUQzODE1NDYxMUU2QTQ0NUYwOUYzNzQxMjg4RTwveG1wTU06SW5zdGFuY2VJRD4KICAgICAgICAgPHhtcDpDcmVhdG9yVG9vbD5BZG9iZSBQaG90b3Nob3AgQ0MgMjAxNSAoTWFjaW50b3NoKTwveG1wOkNyZWF0b3JUb29sPgogICAgICAgICA8dGlmZjpPcmllbnRhdGlvbj4xPC90aWZmOk9yaWVudGF0aW9uPgogICAgICA8L3JkZjpEZXNjcmlwdGlvbj4KICAgPC9yZGY6UkRGPgo8L3g6eG1wbWV0YT4KXB+9AQAAZPlJREFUeNrtfQmcHFW1/kwej+f23IXMTEB9gltcHyhbkumumpkQFHyKuCGoiElmJmF35YlB9OG+gBt/VFxwi4o7Lk9eZFMUF1AQEchsAbKQjT3TPT3/8917TvXpmuqllu7pSe79/eo3k8xMdfXtqu+e+53vfKejww033HCjzcb0mo55dOxV9ecdHZ34Ob662XLDDTfcmCNjXQjYbzu5Z8Hoyu4Xr185/6Vjw/MX3rb6iY/VQL/2uI5/cbPmhhtuuNHOUTuicgXWY0PdR48Ndn9ldLD7Bvr+7rHh7q30/dj4UM9vxoe7zhtbPf+5waKQqx7tu+GGG264MdvgTrSMAfbBff+DAP1SAvNd207rmd5Kxz2nlo9tpy2Y3nxKzzT9zvjoUPdZsiisW+NA3g033HCjbcF9YnjBIQTcf91x+oLpjasNiE+NDfVMEpBPUgS/y3wd6i6MD3UbsN+E36EofyvTNg7k3XDDDTfaaAgojwz1vIiA+9Z7z1hggN2A+WB3ib6fjjim6Ge7NqzqnsZiQH/3zY1n7ftos2A4kHfDDTfcaIPoncH49pX77kMgfdVOA+49kzZyjwT20NEziWh+uwX5C4PzusSrG2644casgvs8+Z6A+lPg2zliLzYG7sFRQCR/N9E1xNsPR53fDTfccMONFg6hZkaHFxxF0fcD4NyZY5+Oe+DvttjE6z3g8V0U74Ybbrgxe9G7AfcbT9j30SR7vHwnUSxJwV0dk5aP77l84vQFjzSLiJNPuuGGG260GOA5uh4b7DkOfPtdqww9U0wJ8Ia333SKo2rccMMNN2ZlCDXzx+Ud/0rSx7U2sZo6eg/4+C2nGqpmZGJowQF6MXHDDTfccKPZ0TsD/Nhg10FEy2zioqVCJgBPSVri84vbTzNqnC+4KN4NN9xwo1XgPl02ByMwXs3gPl1D7x77AMDfucomXieGuo4UgHfGZG644YYbTRxCzwBwx4e7v4HkambRe/kwUktYHNDXq/5x0pP/Ha/pTMnccMMNN5oZwTPAT6xc0EMR9o2gUkaz49+jE67kV2NeG5YI0y6Kd8MNN9xoDsCLemaoexEB7867rd9MMWuAH7Vfi5ssBbRhbIV1nnQJVzfccMONZoA7ImjmwceGu04AuI+raDvzA7w+HZaq6fqq2kW4hKsbbrjhRqYAr4CVgP39zJFPMWc+3aSjaDT2xPOPrux6pYvi3XDDDTeaMLSVL9wflbHYdBMPm3CFNn6w6/cjpz3t8Q7k3XDDDTeyj+BZ/77/E4gjv3bH6U1LsM6QTU4MS8K1573mWhRd5IYbbrjhRlqA56h5dKjrOQS8ozAHG48nkSyloHQKbEZ2N/q76gVnTs0hK4HcAuWGG260WwRvOPjRlT0erAlQjBQjwVoi3fy0+RtbFFVKIJucgiUx6KHwNbUtmNP1Qb9vCrW4WCs4pit/7u4wN9xwY3bASunPJ4a637pRFDQNVrCy2uZBOnYC5MeTKW8KLMssjA33vAbX0m4t/gyIA7BxxNTsyyLg7jY33HBjVugZDDIY+wgaZ49b/XupAT371D3WQOxPlJQ9kb7eaSwOkrlPFrbZ4qrrbl3e/eTZpmpMFE5zA1vjauCMCH181X7d40PzXzK+qvsYoriOJ7fMN5Dv/VETgwteIInjubArccMNN3bDEVgUAKyGui9r2EHSRvhT1jys+6c4B/m9n73dLhBTcT1ssKiA6jHNRQZ7/jugQlpU4Wpey1Iqe9VS8gDQaZfhjw93vYfe7/dpQbqVrv2+cW44Lu0K6es2+vkf6Ov56wnsHci74YYbsxbBjww9ZT6B0Z+3ntZwgtVQMbAApt//LM6x/tR99sU5tiW0OcDf8I5gQhKuf1x+0L82lXZZYyL0vaotJNhNjA73HAYDNrquS+n4u+lSRdeJxQw7Fuj5QU9BETTB+QhQTvfw79D8bKbd0SkO5N1ww42WjrUBwPe8iEBoK3PwjVAsRuIIICPuflUQ4Q51vx6RLCdqi7ErXANLYVXhmpE2HlE6dizwu692zttWP/GxWFwo+n7z+FDX5zkKvx9ADvkogJ3fm7lWnqupKgd+VsTfQAqKqN/dcW644UZroncl6QOHDIpkw3DDChqpRH1ofFXXUk35jA92fyuFG6UkXCepwvXYtACPBQy7gGp8PloIGnnoqp7jCKw/Oj7cs46+bsFCB0DHboTfp+QWLKCzYmi0nnzU2jLs2iR9bYnecXeeG2640XyAV1QBReNv32wdHhtV0BRtVNo9MbFiwYE2+j3g3wxVs3L+S9EwhPXtkyop2zBVA3Cl67hGEq6Iuht5T2uYdmFQn0GFYAEaG9z3PwhoX06v9T7kDygxOobdyHZ6TbzuplMCL54iL1KNAnqNnUkPv6eur7k7zw033Gg+wKvImEDuYgbVYgNa9lJZQdPzh41n7ftoXjCCKJl+vob59CSmZeb3seCMDHW/K2pBqtiFIDlKgF6tkffo8qd2QeNP1bJn0nm/TcctAG7kG7DTwHUC4JlumTTAnkzTX9NBkxfQW5DvcHefG2640RKAv3noKY8hAPo1JwQL9YBNVDIM4JdqsJVIG6BKP7t+e0zbg9GIhOsEq1Dk3AB6w6PbBWVGchSWCyPDCw4ZGexZSdd5MZ3jj9DpA2B3KtqFNfuTQZTeXHO1Kc5vbJGetG644YYbTRtBgnXl/KcRAK3nNn3FRiNsBuA1fLpA0qisD47H7zKYxuXj0cO1wL44X5Jrvvm4hXuH38fIm5/2iPGV+z2P6I83EvXySUqM/gYUEZKh+PvtTLsIxz8qUXpzAX2GDHSj5eE3jS/f7xnu7nPDDTeaOTqF8hhb2X0EkqWcTJxqBKw2WEpjeoJAVaJqSdgKwOP/QIlstwnXJIBKPVzt4jAxbC2FZacAHn1kuPsVtIh8gBQ3P4OHDq4dtIuoXSaGmUcf7t5lovTB1gF6lHPmFkvR3Hj7yn33cbefG2640Tx6RjfZHu550wbYDDSooAHAs9JlB9EghwqY6/OLfn1i9YKX0u9t3HJqT2MFVDMTlAKMt9CxiqLzM4lL/z6BNnj0h7DrwAIC22FZoBChc5Q+NUuAXkP+Waa03HDDDTeaA/AKkKly9IPbpMlHA1HuOCcM6XdvB9ceBfB6AUETkc2sTBlP0AYQXDkWFOwaAOIASlzvxtUh2mUwSI5Ot9lhFhqzKNJi6u4+N9xwo6ljrVLQUOT+rYZplEGtoOn+X/DfUQDP/2dULetPNhWuf+RFpJCQ4pgCp87UUHG0Mjk63eZHwc5X19+cgsYNN9xoGcBPvHXBEyF1ZMuBYqMKGoA1SSs/F7Uj0EO8bmDCNc7FUePJQF4WoJYmR7OK3nnHs9rdeW644UbLKJoNwz3PhLIjhkWBASxTDDTYc4acb00VgNfAT7z52q0xqKDd5LAFTsPdV8AGwcyJa0vohhtuNA3claRxZGXX0tF4TT6mNljf9wJZEhxjzjddu4uRUDVkaXAw/f0mlmMW2jjinsqowGmS3+s2KJVkwXMdn9xww42mDR1tQ5ly9+qgNH+qUT03fX/P2Or5z61Fz1QsKOJ5kzLh2iyFy7iVUZrrYXllat5dcgZjq7qW16Oy3HDDDTcypWcsbdLzyW1WvtdI5GqSnUa2ONh9g2rMURe0hJa4bfX8p8BSmJO0s8GnS//YgiRpN7APPeije06N19EqqgqXFwxzLvq/j4bnwA033HCj6QAP/xYCsp9sPbVBXnzQVJcWzYIw3PO9taqgqZHXld8n1c7rALSJLIWT0y4F8ZmRxiIAYIA6a/rRdvAmel8XESj/H/9fw340oyGKh1VJ31Yqo73cneeGG260DODvttH035knnhptQI9uG2Qb8PpwXNpB/x6d6ztNTLga2kVJKYMGHLh2ti14mF73n/Q7PyCLg3dPDM5fBjAeXbXv08dZVRS79aB9HwUG96vQAAXvtVEnTDfccMON9ADPCdYNqslHowlWaeYxOtx9spxvTQxeWWiKO1d3v3iMfdcziuKNcZhUsOIaTdcldos0CxjZAlP0/gsUdsH/Hh48+tqMp81Q9893nB5QVnEXnslttiPWrWPD8xe6yN0NN9xo6QAY37zGGnbB30XAsFGJJNMqD1N3oiVyvjiqEL0YkBXwmi1JLYUtXVSAz4xR9AxbrblUuSJRCvknImn6nQsmYHxGoDs9swWg9c+hOUEXKQb32NcjbfzGkXwe7O6TxcwpZtxww43mRuzWWMy0qtMVrOTpcnYcgB2XJh9D3eMw+8I51iZIHMrf3EVJWjrvn+4p0yGlOu6SQrvgKIF2AeUCUOadwA5UzMJ9cmS4ZxCWwXcsf8LjouYDBVjSoIQpI6vuGU6UF5hkJRLRQT0nqjl3ihk33HCjOaAu/UfDP0MEjwYYKJ1X9EwjTT6KzJtfuZWLdpIAvNbhjw32HIfzV2kVOKXsfc3uQdwimXZ5CDkEJDOJMnr7hlU93uYqVgBBL1ZJMGsl0VDX20A9sVlZIU4HKoD6Bm6yTdz92WEqyg033HAjG1CftqAexfsikgWtgoTiqLXX3XZXPKUIeosWAa4EapekBbJAgUNgT9z4t9hp0RiGAdAN7cIl/uLpztcxQpTLT+BDj0Ir7CSiFhnp8hRFk+joGslVev17beK1ZzKBdQIvNj1f0IuJuxvdcMONzEA9ClTuOrP7ySNDXUeapCI1kybw3LqJAXOT9UYpxVKI0GF5ZhWppqAhgsYgK7tfDO4a0Tki+R3cG5Wlipu4EfbH6Hg9eHSidh4VPtca7vKko/Squwd+XSSZaTEZvSeZlbGVQ9qF6afoioVzOsWMG264kYp6MYlNRKYRkevEygU9FKG/ikDn0zARo6/3iWf65nIzaZEPxlGJTCFxaao8iVYJwDJFErGSJul+B8s1HzDXDT36YPfJ40PzXzJy2tMeX+Xv96oWpVcbshBinvA6LPmMNxec4OW//dMdy7v3d+DuhhtuJAb1aQH1iOgUNAXa1RHofJFA628EQLsQlW4/raJVnSQnk/qsTHFEfe8dK7oOThu968gbX288Yd9HE6i/nA6/WscjUDFoJGKAfTr+whKA++kLHklz9COp4B2PPycF6Rcrc+FoGTfccKNxQJ+2oA5QiwIzUBWUHFyBBCMab0gT7K0VjTDAKfdk1dmoyGqXmzes7lmgKZYsaKYaC9te9WiXOHQQBgH6Zxmgk/jhFHh+76fjaFnonBzSDTfcqB+l8xEFUCMoTBrqOpWA5ccETBvAV4t/CitAStpjJeumFTtNA+yun4m8MEulyBpZzEyU3vGvWWrIQ1TQu0x3qFXdsStVx9lADDTVyMqewajzu+GGG25UgPraKtSLrayc/xLw0wRGv6CE4GYAOUAdfPWdq8rl8WNWdTLVzKbR7Gt+QVRU3LZzPF2WZJpiJ9rRcAQe1664KKoe8sH/4FyaAzfccKOFQyLVKGoCaoyxVd1HUBHSe0cHu9YRsGw3TocUpYNP55Z1U4G9bSsaZ9jXMIVFpGgZ1FF32y+g0rlq1YIcrBFsYVdPfMUMd7GiBPPX5JyOd3fDDTcqwCY6Sbr/E0iylyf64wMUpV8LfheRIqgXgOpEuQjItqxrVTck9kqHHQAWFkNPkOxSaIl2552lHmBkVfez6T3conrCluLOwXbuyoQWh/rcbrjhxp4O7gTs4WgXZfoAS/iFE4BcD38XALri0zWot6zFXbA7sDsEY+mLHcSDZxnFyV20CD1nLlATIlnEPNNu6DesVy/GobFGOVFt7ZG7b55YseBAF7m74YYbHUGUq4AQwECgcTgB54fo61/GjLe6BXU28SqxbK/Y4r6lugFGCQuMKHJ497CBQPLy0ZVdx0rUnkSm2OrIHZJKmudvWmolaPQRy2OG1TYwLVsU0GtOMeOGGy5q19Gk0XgP9nyPwPs+RJMAjg3DoSg9mUVtKntd4aOlo9HWUxkMh7tvh4WAkWKusK35NN3UrvOuo2t6Dx8JDMQG4xuImWQs1RTQZ/eagGZzihk33HDgLt+Prug5jGiN7wJQVfl9mHppMajbsnwkbbfxYmOAjDoawYlxbGXXCeIWOWNH0sbgrj1pyKLhVCyg2kAsRlcmI4fE35Itw+lRn6sbbrixB4M7wJDA4UyYeu08Y4FQMAWmX0qjretBWgHqYlvANsH3G/6fpI+gX6SAKfx+VA6hnWmZeUIbja7qOhYt+LCAjTboMRPup7rF9FPt+kTUzsANN9zYg8HdtH4b7P4cwHQzg8x4a3qPzgB1Aasd7EUD2SX935X09Xw4KW6MsAUQ87J25tnDlFFgIDbccxiSwVtPbRzcqxiIfUf6qTqPGTfccOAebN+J1/4UANVw7MOG+mglqBeQGAXtsrPcCGOTaVVH2nqjBydZZkQEPKdAPXzt+Dq+fL9n0OJ1I1sLTybpEMV/e/UI+8o7cHfDjT18aAkkNZ44CTy76VsaP4KMW106xVG6AXUkSQHqzDtPoKE0WQWfMTLYc+jGs/Z9dPi62eNlr7msCgm07uQ4Se/5l+xXX4ijQGJ6ZpKbmfxzfOW+z9PndsMNN1z03gEOGx2GjCyvOZF7SUkai9ghbGNQt4qcrjtogfnG2Kqu5etX97xQt6Tj0Rm4Me4GUj/hxbHA0g7ly0avnlAOucUmmre6fqpuuOGGjiDLTaTJgIp57lKWGvbRcvcg07ZO+pCan1MBDr3WxbALXj/Y/aywjG+aQX3dbgLqUZRYyn6q4g5ZdP1U3XDDjUigASggMcfAW8hM+mi5YQPqUOMwgP0ZPP/EcNcr1w93PXXGNU3vnqAetajSwrY83E91LEE/VVLMuH6qe9CYFzqyeEg6I86b9WtUe50sH/JOeY01a9YER4rXCV9v3N/vzPhziHMtARigPR4kh1z5WMwE4BncTZHOcPc19PUc2BuMr9qvO3wd0rJudwV1vSOR90f5hZehcIybmsR1h5ySZDRRW58P0z5u7L5jlh6OACjb9fo7FZjXA/89Zkhxze1D3fuBf2eKpjiajS9M0SRrqSk0cetvD0eWACPw7IZX30PmXaJ3itwPIkpmjBfUQmwTNe4vC2996fHqkqoO3Fu1e2hLcA9f5yGHLHvsokWLnnDEEUf8exvOY0spGsjq4C8jEXyGhUxSFLWTjt9C6ojGH1HAV6370+5IzcBGYefpAWU1FXfh3GT70952+9CCAxy47zm0TMfixYuf4uW8D+V7/S/le/Ofpa9fzeW8lQq0Gn6AjjvuuH+Rc9K5zsW57DnzF+Vz+S+Yr3nvc/T/5+bz+aOOW3jc3glBPoic6TyH0PVfTMfncX669otzub6+pMAbBnY616H0GufQ+X+Qz3l/pPP/PZ/zr6d/f5eOVZ7n9TTwWuZnvu8/if7mPDPXufwXMe+5XG5+xBwE5/J6vRPod79i3h/+ZonnNbCwdJavP/da+ttLMP85niPzWZjPw7+Ijs/y+T9Gv/s0/TnWAvibj1u4N9EoP9kuMr3s7AdK4hWjeqxupONScPDhhtS1bIl3K4AnSwVeTOOashmVDf/tVWtV5bGDwD0gcs/l/DP7+5ZO9/cNTPte3/SRS4+aJiD4Mz3sT2aAaHill98lQDzCy/sPLB040pyzz+83X+V7HASWJYBm36K+/4gC1kYWErwege1Pj1y6bLrPs+fF97SIXJAkutbARu/hIJqHb9F13qev3xz5PjNfOAgw31uPrpHzEjgfTud7eKB/6TTmhr4fwWIYfv/yvX1/3q/N+/MHzPujz+t1DdBD88qfifdjfKYy7xXvgw76nOy15L0xf5H/TPzNQQcd9K+NgA4Bxhr2HM/aCbIkXvDjyhiM//96iurPpgKm50fRR7uZ3C9Qt4wOw+One+fdgQImXncmTsrePyL+9i6xuvsOARwC1/0JQG5jwC3me71d/P3EkiV9z6/3sFeLfinqfL2X8w144Lz4ClDEYf6v15vCVwAdAcsvhfJoEOQlaYjF6dV0/uB16CgAdLFwLFy4cO960Wg1cKfrfxud6x5zLnvuknkPDIp4TRzm+7x/hrr2mgBPi8Yb5HrN3/Z6P4oGZbtQ4vMhgP4rPhO+ju3+Yv8F9eaqYieV864zC1HOm5TXDh9L+4/EtVxBr/uIRuZMQGcDFRQRaNyXEHTi6OBN0w8oQBCJgksm4N9MnPQ3SA3yKmlKURHVI/m6G0SplQtqzxe2JllQbfJ6ihfjHwut5aL43T56986TaBrgCIC3oOU9QCB3dMwIPrhZKKp9t1o0pgQQNcDgtQTo6LXeUg8kw4vIwMDAo+k6r+TXmdQLFAH8n4U6aWSBqojce/Nvx3WZ8/I18msYgKXX3IrXE/DHIqPO0VmTTqJoXxYIXhw+EvW5yOJEc38o/e4WibTpem4kmmffeiAs75l+9wVYrPn6H9afAx/43O1OJO/9v0Z3PZU2BV1fvfeMBKXyyboticWwieohpRy32vjryejsbCq8emE4eg98ZuZwVC+0yvoVPS+kediyMcmCOmijeNBpWBRdFL+bR+8UoT+HAONOBpyijlTN9xyZNsqPK8DpJLD4sqUvbKQO3p2A8OX5JflX0XnPQXQsUbcFUv9LDYKLjt7fas9hrneKzzfJwLzJ7/Vf0iDAz6vkuz2J0h+SuQHNgdejcy4G/YT34Vn6ZgP9268DuMH7Ia77Ut/rDxY5OueKqDkOIv4lJuIvqAXnR/J+GgF4M+f8Pniu/oJdBL3PV9LPXktfj6N/vwY7LtmxNRxZMjiMrux+MThyw/G2xocmaBKCw1gWnMq+7tSDFFE9Rbqvvj1kKjbNssq5GLWGuPiPbksexRd5B/Brqfp1UXyVhxYPGKJbHHig9IH/4wew3SZPR+8Xqsi0xBFeAd9zRPe5ODy2gMqyZcseS0B0JdMCOB6kROUi/btIGMrOwX71fxgFuNUWEU5W/plBj8Dd7BLM9TMoTwpXXY9uUHz+s+nvRvm6H+Tr20gAeFL1nENfH+0UnlprjhSf/gia898quuVBAtZl8rOFlHDGHCLxTHP4b/wZvY/fj3wmn4jadVR7TdoxnM6vxfkC/6JG74941EHXCkSHOEabHclHR/WGwtm02rpIclemP1JU/17IC8OR6lzUz0sUf8dwzzPpvY2LPDVuoZO0RyS/njeZHU7OqWnMAyPg3SinG/5bpjpm9YYKAJKiWwLFrWrrv9WqK7xt+DfAgMDl8qOPPvpRjfLYQuUQ+D6TznO74qtHQBUIrcIA/yFZXBDREnB9swGQ0dH7mRVUR867gd7DN8rcOJKR3tlhiqQmNUPgaXICtFDwOXfQ6/yXXsBkQY+grTrr75iWHJjL5deX54W+p4Wq1pzKTgg7FPNZWXVTvYVQ7xg+IwspU2GD9T6/JFG8Afnh7g8FrfgGy5F8K3zgR1WzaDEiA32DSNdw9dTGbmRl9+tGlz+1a7fg4qkAbKt9b/EVNYO2bSJ9f+0dy5/wuD2YqrHAXAvcEHkhYsWDioQWlCf4HknDKg9MJ86ZUYFP3FHmyPP+VyX6tRGr/21s0cHXCh0AOaDI5uLw2KAsEJ0GUSOpQEJztgCALJEpviIX0CgYm7/Pe7dqgAdw0eu+qiLaVbRPtflW5zyA5mJMKBkG0zXh3Ul4PuMsfIj26dz3BwBPfHofzTkSqf1L+g/ENdBu4Bn0Pp6F90ifx4s9jvh54SoKHdRRo6JVrom+7k1//xO1k4JqaSXdp112sckdIF/peEzcCF5z3AIS48NdHwc/bKJLC/JTLfSE1wuKGJRN4VpgeTBu//+PtBCdOz40/yUBcM6hKD6oIj61e396n7cmLHoyxWQwa6NzDO1xAI8HJOqBXrx4aReoBnpI3kyAtMbqiL3v09f/pa/X0vF7KBbouIYA8xfgW63O2TsZybK+vr7HRVAaLbu5lIQRAHy/bN3NQf+HxUqAlwFoq1ArDQB8AMxImIbA+7cUCb8RAAzOGWoNra4BR0yvk2uAx2bdu/9+OT+D3z8OO+ywRxpunN9Pv28WrXUoSqpx/VoqenxFToAWEAAfU07/lsWuCcqcQLnS64NSuh8KJrpH/omvFUevdyt2Pkw7lTjxfSdopEb59yVLBvbDIsIAX7A0nD/O58br3GL+TZ857s+kUbwGecMRUwUqyumVOdiuFjbTnhGxskbfeLBsF7/4YXJRJKtdcVLUn9UsBV/xuXiyRebK1CRGbwWO4v+0/uR99uVz795UDT7Y8A1u6AbiYFFggiIXJAcFQEQHXe9gCmQTAd3/QUUBfXXarXGS96a498sYGAv24c//r9zcoGV0xEf/fnMcHtvyvv4HhVZgbr/IKpdJpUjB91OWEsl/pR7tUI6CwZPnxzXACxVD0e9/Yp6D18h7dyAargbwlfSM/xGREvKcXFov+k+Q8/ioklgWZPdh9Oms4bc69fL3kjhm/v3apYctfWKjAI8CMPrbzXyeXdit6ToEfA/9O1F1m+h3F6a9FzXIj6/qWkqgc81m0wPV8PLCzU/NEtBLpPsgrun+M2Gz2/V7uqbDBTjXVL73tm+yjUpimLAxUMfNe5jkNOSttACeJXOwu9o/dOobGw8P3fBLIRsjLfc/hWrAoR46Aa4Cg9Uu+n2S1BlZ3S4l25sSwLGFRAZ47kSyy1vsvTQEYE2bXHl/UE+I9A86dbrGe6EMUeD8YQY6jmT99zdy08v57dx5a5nLLogML1DmMNUAQDO/Y7XXC+oAaadKzn6KP4Mp2R0cdJDNE5goPpf/nfqM7sXnWA24KgCeAJ2veZKLlz6c0cM+T137D2Ru5Z4SsI06+PMx9xjXC3yjkQRreTH0X4f3I0ln3Hv6NfFvLgr7vexS0kaveqtPfidPpvL6t8OvBpHm9iD52WOAvoU9Wkt4Tbw2l/rfPTbcddrE6QseietcrhZ/plbnt3cgWqGLX7HRgvR03MVztNzw46a72KFzt+vmZG/oNYqbzh+FCBfVixKlqyKayQC4LXCVInTFM3XGVgcufxuAPRQa9NB/4DCOyjrYrbBZiVVWcfxKtuxMw9yBcnv62ZsQrYNyYkDg6N6/VK6pEVCxFgXe71kiGWjI9cGvu4le95OgveoBi4reDyYw2iTXxwB/OX1mJ+L6DQ+f827C4mHlnuWkZJS+PpRgXasBHmX7WQC8vMbSpUufiB0gqlF5Z1Ow1Ij3W0Pt6cPQfP7vzP3BRWE2X5I/twGAD6gs7Gx0UZbJr+D1LI0ox9/ovB/MMnI1kaAC+tFV+z6dm3FfDwUHqBtwwEydFJtM30BOWQBXzdHqZbS7ODh4/o9buLd69oniy/9cdq0dbWwkJ3TKLcM9T8JOCXOapB8rFoZNNl9yTnDu3cXbR0d12KLSQ/41JAelZJ+ldxrQp1MfAvb80LJE8GqUsDcSnaV5nwBB0bmr6Fren96VaKrid1JKX4uHV/JFKqzx7yrrrr3N2AlhZwBZJu0I/sdUiebzL2yQAlHFU/6XgqIsO494L7sCKgj/x/8fJI8rC4nm1QD4Lw/0WQUNv+/vabuAMIA2uhCruX8RNPPleSEFzWL/uVApYX6RmMcicPjhA/sgikQxk7FxEEsHq5k/vj4Qq2CFaEWtwIFkErscEQTgK0QBopRqFgjJANeLBhMEKj8H6AKUuAJ2SgF9KUP5pFHTmJZ25MKI5iTljk/H/YtcHxLMNNfvonnaaWs28q9qFXWaeG7NPcguk8NdJyBhiiNuo3MTxdvOTrePrOo2+Z3p5QfN+Si+gpIxiT/idQXYVbSeDahXi+w5oudod5N+gLMCeXmfSDYiESw8swFFrjDVJeuq2nRXn01UjvfVtywIAI8Kc46S98c7gF/UApB67zOoyOz185AtCt0gIB4uuVdzW2Cp52VSfh9+YEN5ibOFq+bX2CgUGtQoYhsccb2djVw/gcYxlsKzlbvYSdX6O8wZkvW6lgARZqM7KST0oV6yyWbP7hry+d7ZoBPC235Y1Y4Ozl82NtjzNQKZ7TAUC7pCiVNi8qi+xCBnzLWQWIVJ2diK+c+V179ctfUz9xXVbAR+PLQI0/3+4gaFBW0Rxf/jpCf/u/RmjRvFi8ySi9Q+FJXMnXPgLg8IQM+4EDKNwJFgs4E9fBiONUg89nqrswT5wBsGrodlEDT0huVjZ/LAkthjoAOwHFMnotE88yqTZ5AImpwKqwFRjMQtKmPXav5aaK5I7tpeP0fi/l/6j+jvrvLAdq7hiJeVRZMyP/bzyP9cbAHCAwndXq6UrQX0wcKXz58h88+J4c/LewT/Ldp6WQyRiEeuBnPJks1/iilbrXlTFgcHiMcQV7CuV66XNfMcTQKjeVF9USFXHCVpJSJs8PQAGm5DN5UA6KdEAmh6lZI1LnYMwWsed1zgOAla1DioUp5G55w8JQ2WuWxrkGcqjIzXjg0MxQbjR/Est9yAqmTLxc/NKL5T656halEc+yQD/PQsHKWgxB7bcQXyaTj5crk6dOcEdMyLc5HN1dB5IwdgaBPc7JRQpTk5H8CgZY70s9NqcZIhquOCClogn3+HALoC9c4410/neEVgGxD42uQvRZUnrp2v/3zzb6t2ui8ooLKVqIdUW6Dk/0zE3Ov9knn4h1QB1XVsUfASHByJX4BID/LXOlytLjj6QrmwCxG8f2bU7ylJ5dGm0pWLzhCNC/jXog5kzgjMPdnx8P19m8mxUI4pn+87FgVcoCLs91YO2gq+GfzuuggTsAnyKCeAeReBzY0AKST/uGCq1ID/ufyOjURtc4uLwf3L+TVgWfuG/PVBPsgGDQ9xQBBIa9uZopEhihpQTxSN/8BKU3smk+x6sJOiKD5wYV07x7TxAbjDjQ8JLrX9LcwSsIePSU4QIpI/IWWiR8vz3hnym7mfnv/Dq2/zvYt5bh5iRcmnay048iCg1J4enJ/2+cG8PhQy4opNLSG6hR2w2AcYyoGoJqmIDQ9E3CbRGlgYkEcN+a3UuIagOpbmZADXHBhzcZ6EvXRgMLYFC6TcN/h9tYPprBa9i/xUFSwVZFcU+nyDa6E5P0U+M/OelRFYrblUxWYnKZfNghixKYXXg7KDRI1CqwGtmof73avnP4V09CcR6PzfGPumME8/zVWqxRlRO0euHIX+dWJV17HBZ6De0xH9/d0UCFzolR1TdS6qyFLUb2pF2FwANqFq0M4PMlA2IovZzq9nkmmye+AQGpVDmRPg3merNW9S2/1im4B7GeTtzbdFONMkD1652KX/QBS2MBf7kJUmRhp7aSnifwsfLZYFAqi15IZcoXqTsii4WzT/cfnM8jn941Vi2OwofAakqN83UkmSXrIE0+QRsMDVoiJCXPwqVYEbUEKa47dz4+2U3ES1XZbMFQqOvErL3230s+eF/3ZNR8V1fFLM2pg6OKtasjjqvWFnxu+hJDvTcK6CF8sH0txnWQxEiuFoceTNT3vE2HDPyymiXIvOTgBvABDTN0UGsAJUIGwy9jAdn95M2vAguq0UUbyG3uvN9jPoCz/7Kilf9vrp6JgbPPS0auAxTl2fkjRgGWWfmh32b78YPndbD5V4+g80sggq+0I2tm1ylETBwk03FsQFSA0aoBOWDiwzgMv0w/1StSg2DAAWMU5jcHgzftc2/1gGOmQcJfTVrkP52xwmydUjB/B33k0ig4xz/WXJJSqHvT/jGgBK5looISZl9bYblG1+vVB1hgJ9gwYX8jdo2tEReNhEg1glyFNVK3HeuihICpEkdwF5IS16+9QC+IAuWeItwWKDOeWF51ZRJukoUSluHlNu8sFKK1Z2NOI5j9eFeRvmIFzYpA9pOCLc/GxHrEELvtD740YXnyVwn4CkD2CPiB2Ab6POnj+MDi84Sn7/IkXH0OL6dNs9y5tWttiVqjjGAbZvfketXVnKMa9Zi4YksmlR9Amwd3AXrLgJ1wJH//eNrFqQmxMAX6EiocYSQeTenuBeVjwESUrvG7p7UZzoFzI4VJWitZyRKub87xFQnCKAFAFMnfah6Ht+Di3e0G6PtqxYJATga9AciJJeaKWm+a/QdX8HsjwoUOLmEpQ88eCcbTV3KWSM9PXbtIj0V4nGte3Aq83r25Z434W/uxTyNOLAaOdgCaLu0+gcP8Qig8UK7pV03p8hd4Frq5egVHTJQdyi71LTIYpsmNWCNy/8+/A2wmuY92Dn8wvCkzfS5MP45JMff868d/O6X7GHz4dpz3cJf0bvVfdVW+ifwdNzUrbivd452P0sAp/3kXPl37iwZxsd55ebfazR+ntSyvmQBd+ua1mq5NmKwc+ZGs16sav1uWXhVx/qsnVJii5bhZ1WjfNNOee6dqVqKqMj7/OyZW1DWma62k3Hkrp3Jky6zpst1USGEc9svGbF3EByiOpGOh6fJhfiRgKenqN6/f/jq/brht/7CHPF4STqYt9/Lqp+lYf+VJ1nXnJfO8TMLWOJZJCLGTh8YB/9/iIWtr2SetbLHGygHQ988beckszCQCyfg9Z+bWphEDyoFKUs1xLBOQDuYT5+Wy/7hmdU6epAp7Gczbx6OR03WhjVV+m1um6N3YEcgIR8b34ItRsqai/UlT1zrgaVvuLJk5VEsqINJOVRQlXDJpE5Nrj/E6Lel3m/BNqN9phdU2FE1v25e07t0S0PY0XxRo0z3P2j6TV2HtrOMz7gk2FARXriwHApC/rEdtjZpVQJhaZJLCkJxlzpTaANEiTDOiOOJH/X0eS/a/TaO5v4nqPOExQ48eKalJtN+x6ymrvOjD+jlkf1a636Zq9pk5xlWSnlEUA5Sa4kZo4tyHnFafMYK8jM549lNdYVes4B7kQ3fckkk4d7TiAF0X9ueceT/z3qfSOyrxfdCxc/MtTzIgLqO63bZGzZ5NQGm8wm76CuVwYLbLvcKypZBe+Vy8RjJIOCpMmyAyC7RfoDugnzZGb0j705C2U5V/4zKCvPMIp3w405v9NSFOxpaBxud+pe3EBOqp4vDxL46XdonRX9EchDyQRqZN+8sOw9ZdRC44Nd66bfvb8Yht1Nx/+S5PGDpIj5r9uW7/eMqERntehef0/n+xhomiRGZIjit1tjtl+j8lhes614W5rY5bZQJzALS6pqKdiCk6XsUePvNNs569dN2zpvp1VXLBWwL6Sshi23zaOCGq9sfuTA3Q03IugPCAGYZplM8HwX2WDuEkV4pLKIVr0XDgJOKIns5sWLbXezIIoniwD2dZ8GICPJaZOkJvK+Bd2oyKztdGqmsuQ2qhOoFt2bXQ3z+MzFo7XfyJYkTUFoQYCPD4rNJoa6jpfXmXUjMq09hu5VvFcSR9FQs/iimc//HAoIFLgYUy3yGkfRlCmQIcUICnJUIUySZG6pwjPdWukeHHVDu+HGnj50QRLUUmwWV0jwzElfgfOjdgdxh6ogPyBouMLOqrg+aQMpzzNM0LgDVgnNUcQ3H8lOAP0OaVJiVUO/JX79M7BgIHuC52MHMDMn0bHXzeySSbuD8zZx/UAcIzJugSgNun/bFq39KvTfJI1TutdSQkrGUDGQx6Easp7rHncVOgbukGrFbgzk2bkyoGSo4EJKpjsabA3nhht70hAgZWO1a0DFJsizFctdtqxFSEb2IPNV43nuG+Gz1j5/Bn5H9PoTq+YvA6hzM+ypCvuFYdP20BR0YRHYHkT33SUC+rHRoa6f0fdrUAewYXXPgvD1cGu/9dy/tZDETthUEg92LZeFb9aieFnRIUXydEFTMv6bmy54P8BuILz9wgeJ4pqoZtqsP79I+YAUG1hMhJKZ0JWa7dCo2w032jmCN31sqW1jQoqmwLTqw0iE6vMmBXfYPaPQLOhqJhbWUmzFBnzKKOz5MFu7p3ZCFMA/KdH9nfDr4SYqXOF7P2wa6O+/Tr+zChLSrauf+FhDARE4T7Cd8Fg8O2GzyOC6aDG54a4zu00OcLY8aso9O5eQiZL4cMQvaCqVe336Pz3kkGWPlQ+9Tg/VTjHUUrzgJ1QCtliT3/dt6zz4hodvGDfccKM6B8+tCe9RxmGJpMioxMb5kkgkVeS+F4rzwlYXYhnBVNCvOtSOnLjyJxEoX2e6TdlG5Q0BL4N9QZp2ILLHAYtk+tlm+tm1pMz5H9Kzn07fb1Te+7GjeNs1quf0gPdvdRRfpagpSaOOAvPfY6KJ5SrIzhjXsrdcE6pBZSWvkFJWqmRKaEyxjBeTDqezdsONhilZek5fliKgE4C/zV/kPzNJYFUR1PXmP67aLYbZgyK/1i0vXrwsSJYiKUoR+Le4SXkhSdcqjvw5urfJWlgmb7HR964GF46qiwknam/adGrQoHverAA8pIRojcaJ0UJSakaZDiXSCgvIW3dD/3chuijoyUmvM4bemaGbpZ2UMvz+18yTpheNHo5aKnd/inV0uLlrcG4loDtZ7ZRLSSSScCgVf6A4FE3ljt1/j6Jlo7CnyNe5JZfrP1i/D1LInBfYC6TpalW2V54c5+gekbvthZv4vFPSoBv0j0TwLdXFq9X8INNIusI7PCYfR38nNrdpaJLytq2vT6SU4mvOFNAvxFUwDffXhGGSuqqaM1WhkCoS6twDQCdcFNXh5i6SSk1ViKUTofDtSSGoKLIP/A9reDQ1whqsVD0EJmsldLnng7GwlkQrAedbTc/Y4USa9bo9aVP1vbV/O2W5+K510vawlVF8mX+nREma7RqvwA9k4UkRugk/VO7BSlJI+rfyNG8HSkaDSa1F61HoHQqVAKkX9odDJxz74HqJCAgJplp5ikZeYy5SBfbzq/2+oLKCMgq7un54k1PVJA7MJRLz1Tzu5/DcdUqgEFr05sUA98jFrSJyNr1nk0kkQZty57GLonYHDT3bBNbw168D7sHOnZvovAt/K/4x64e6B+DiaLnuRDRNs4+iSDVHhheYBjqtlExqq9dTZbuWwD4giOAlo5420Sl/T+AH69u/0rm3ivWrigJmLTpTkXrU9nO+sQBeQs0jyEODm5L/Gt2h0AIOFhDG890c/jjanUEial0Q/Y+g6QTa2kWZdO0GQN9Zbe7wvow3Pvmsm8iuN/9huILaJLpxprwN84UiNlswl18PvTQ6jMEkC3psAo23YBs/F+eu1j2V1VAa+L1Nv4Ik1erKJhjdwGJQssHuzOzOKcErgVtNm5NKCvjLGiTvoobXBJ7rQdOMxjcIawnAQ4VjpZxdK3DNaxv0yMmMnkm9XauUR34sDQcfFQ0YX3BugDHblEzUQ4hksvXuyZ8CW1sL2NT9idvGVfRA9cL+4uWeqPK7vIvaSef6A3IadIMvCwNWG+YcGgKXMMAi+qaH/VBrKOV9Hza1oOMi567Cm72yn2x47tBajs75KbSZO0yVuKu562x3YDf2xyRlxL1Fc7QI7QTp/Rxp2hIuyR+Dr+pYRvffUhz0vAwAQOnXnxp+npQdyXyTc0smiS5I8xO0ZQzTLrUWdn7tg+lvR/sbl2eWVO/XqzpU8AjLY6JCrmGTr11tCPBTosWvaM7daoBHf05OXk4lLHASZcsI+aI/J4soPmLb1zlbEVjUQ0gmZgfaTkZUqZvztpcbcgfdb4KuN8FR7ohTeZR/Xir79ljg4v9Hj9MzQetU23LPpcgUSisD6rn8OvSCDZqBe0GhW/250z8L5s6vnDvQCbRQwjpavPnlXmqDuZtxDWhcTXPzBnoOP0fHlWgag2DB6M0tGBakpaJ5VuVrUBRkf8cUINEuKLxbV+03n4tz8zNbTELJcmvJIxt41jvLlfL9B6JLl1pYGsUaUdLcdrhauBDJQ8POSppiOwK8WCmMDfYEdFZL5JKhlmvnYUVleqaU0HumxKvsd7W+NQsqaRYTZlEP4aHEPX4aklABkpBuPwAfNZ/1dkaloE2cBjR7jmDhMBEuNZvQRWRtXNQ1T8+dKY1fgjDUuxhNvWXu1GKYZO5KdefOD+ZuhADxHOn2NZtzF6YYvcXeS7Fbw+erdy+yY9FtA+sdwd/0eq9U4N6pAZ7e9yIsGiklkhuxu6gH8JW7hvzVCaXYRTsP3k7cQjyL5r1QhPx+9nBPlxRtIsAjgocV8awBPDrZqIa6pQyabZwXlTXPIIpv9UOoTdgOYXDaoQB3uiKqSm7xUB28WPsvCyhH9Tdjeyyy0o42qwEIL4rGGTDnf1sakvOCWIqYu+mmzx1ZSNP1nBiKaufNxtxY35X8p1EwFLqnqu9Uah3syYR7tJcLkNR90VmmavxXq0VhKuFu/W9CA1UL5IIm8IeYbls/kR1pgtecZBsTCDmOsFy2LawibvttqE611gCGppnkaH7WwX7cNjwXiuZcoWdaJZXUSda3ytY4pUd7IXCGtA/RrFIraZO8wba510fCb6v0XFUPYCljYJquE6kWRMHAqoLvLuEm1m1C2XSGAOx5UFpQ5PWAmbt84BrayrmbDs+djVz9r2qeuhULpJ4btLmjwp5/qgWvqHoklFJSpbfD1C/0mjrndlpqDXzO+40omKLmTkXue0nhos7ZxeX8VZ1Np1bSsIf7TbAfANDDPwZFS+JJMz67kX0R1wKQpwj+DSpB3BKAD1Z0JGZkS5tB31XZwm0hNUm+HVQvcRa9CjvVJfkTEfHZh7A/DE6z2mAcnxWrIEYJLF4/2yCvI2FIG+E1joK0kB10+8xdn2nkfWMv36PNBnn5XCCJRQI4KNor8+dZzMskn/M6SEhDyhndJeljCamSUtD3OO+tjQoWZ+5SvE+GdiYJzAvx9/kvBoEXBYw6Cl6/oueFBOLvJCC9DFa/ANTtVJGKQ6wGxKKgxWBf5Ebe4xNDCw4QFU2rH0psoZ9FW+i7EvpS1LrRbqEb7blzISFY8QBQZCdd5VWis93aFhpgMGoEI1H1zynL0Fo71/r1jCU0FcCUC9PMvLXj3HGxjncP7WCPb+YCKeeElh9GfLKLYBfHLBe8SbPo570fhfNgFbsHUntxcBDrc/EqFXOfiqJRKwIkyhfVqVKtC+5cUHUpGhGF38eM/qywL1i57/Oo8OmkUXR8IiMxWA6IfTCDLfdcNTYFU03m36eMdfBg98Ut5d/DH4btKO9dkdhJssqWmM93zeLFS7syVNY0mReFRtf/SxMfwkwjUlyfSAehvoh6EFo1d0YBQslMZRo12e5zF2ix8/5QMyL5wK11YGAfesZ+qeam0ITdSZGj68+F34t8hREg1EsJn/WyTTCpoMJJ3EplHvq8enr3Fld6XeLg6vtcCBh5T3OT8b2iKkTXD3c9FR2eCGA/QmB7NR3b4Q8DgzJ85a5NBQX2WUb3k7yg3IOWgrwAzZu9qDXnfUBFq6kfSlE18Dl/JB9Su4F8KLJB6fT20NZ5TjQaLzc88b/ERm9NB3nN71K0dm6woyjTMW0/d7JAWvohnynIyznQE0Ei94RNbeI5upK/S1hMIdeCSmrUaiSUSEqOreSzF1SI45ck7uvEXiQRuJdx42eoAG/0XtYt+cI/g/vkyOD8XlA5dPyEgPcuVJnuPMNy98YWeNAkZwtpwR50ELj3TUY903PGrETv5a2VvQFQSJFCOlV/m0WJlqjtYhuB+3llvs8A5tQcAfeKiJC3zxc2m5NXn+VjUGGoJH3tvOOpAvKegPykpmvWpGtBp5OaaXjoOI3tWcXmvymcZws08IZCI5vfhDbB/Hf30U43pwK2QMVlO7V5WxupUq3yHorc6/X/IK1Meg8jWgbYr+NWfHpMnL7gkUjOkiXwCujoCZRvgzHYDm4MwknaKbYVLjJvX6rZycn+fAqJXfD+W61P/af09cwqyOFBxaSmatdXJ1GSawHwJHjfe6E5twBUxu99ViJ5ax2Rf3ezkocyd4iuNKc8l+cuoGsInLIQBwT5rSWGthK9fzN3hGLKNSkFSCGJZNkmILmgQlQ6o2ILrpr3ANxfivoQVaVaSkQxkUtl36K+/bPCCYCr9F+N+tn46v2eQR7wr0FbPwLrvwDYYRsMZQ4naaWQqsgt/Kbk4H+bQxYJVvCcKzuJ2W68rQ2A3pbCk6au1Ik18ufPNsiHJFwXqVaBk/nmyhwbKXpKDfLsDbSLHsJXhLfPGSYMn4TmLk3klFs+dwB5jh7/Cnls0ntUgJWqnfdTdEiz6T4B37ulJ7G69k71jL8lhSS6gA5Q8AYSm2BFBz4b2vgEVaqVObte70+oD1DXnymtIQ22AfhR5x4Zesp8Au0Bauv3AQLqK+nYAaoFwI2EKb4H6MNfBsdGjtbx8wnTw7XnN/Q3R2vaqG2oCnxoNMG/b0IUH4A8DrpBzm6l/rha3gGRuwL3QqbbZV1eH12UMsOiILNDmpibgqjkQFVL6oe8ShPAPbIiNXLu5GfZF0gVWYnytTB/HUN+LCqSDwfUTHa0Zz3l2k2i75d8V6io8b0JfafKETYZwFUEhuTuCTGF5K5iLhxakHGT7AxaIa1GgnadTdDuFcWP30bt+8ZXdR1MgD9EoH2J6fZEkkf693309SE6HkDXJzqup+j/4tGVXcfexi3/2gbcZ2jiUYDBQNwEvrAQFFj05k9vNciH/Hfen0LCVfUBEG2xp3xRog5f+a4I95ghCPDDCClc/jNZzLNWY1QUrmRwj4Tef0mX3EfPXd90qFAny7krqkDkzdW03g3scJ4L18uMovdSA8fD9vP214UFDaGg5gsD1ia4mADgS5zI/6qcD1bOuko15uegwf02MRWcjboZo8ZBkraKIgdjbHD/J4DO2UD8/Qbq30p9Ww8aWd797LuW276repewto3AveLGxE0B61qlky01A+RNO75eb7CFIK/975ebhFQ2vGhJohZRsrCvD352L83lHRQNXgtTMgKMH7M52XWmvSH7YWPbG/KzKWW4mJIpVK5PLXCdaRZGqK0qbBrS7TSmggVx5tzdZ22BvRvgImiTbt5V+Df//31i8FYxd9kA/STzyLcIF9zg/am4bu99dXoLxwoaIrx5wsckSyS/GRYzyLXzs/2jREVOyiYYttZ83r3ps/l6QnVQKZjnvGn1eYS612a78t0A9LpcdbCvuUi0a1GnujGeB+9ymzzzdjWDL5SEpqeipGaCvJwblYuQQibJ8ld5+EqqqAc36630ni6hRNcK+IGgSQUiKujTOSH1CFjBAjjMtfTm3w5vbnSvkug0iGizKHyhaI3Of1lUNBdjYZTOXycGjWHSgXtJ/l7NXdF4/1OEiVwQW+Q+FXa/mD9rLZx7zFL6N/6fEqGLESCgCAY+8RWfQfq5UxWb/vujFrpa9xiiWiziqepK2LOl1i4wfBy5dFlFAVKYYkJrTthQK4lkKUkeDTw+L2IXJpzzkqp4v1saBXUoz/h2GkaRA+CmY62N8ufJsZb/v62BPToC8V+rZFGTzQF58wE/6Kv+qs0AeVm4+o/o75YiplS7E448A1Dp9R5A9SDN2RvBRyZZfLAYGJtYlphlQpGJWgILKcnXkiRcZe76lvS9mMD3rgwoh2LF3JGlBT3fX6WH/BgAUMLP9wB0+4G3S2ZzV7aonSC65ZmN3JuyiFpzNW6BmeTZweeW82V+Hoalgtn59eIe834cPuT/wY0rF8mOsEQSncTM+0kmkSxom2AsrinyV5OiWELzb7nWlLJUN2InIUlqlzFPXW0Vv5dumv9qNFJKzLubNmUD08ppMJXenN0Qv68ikIrFMkmjaLhW4mEFfZSoUKRKYgy7iriLqPwee8v8KqF/yYy54/Pca4zI2HJ2xtx1xJ87tpi4KFRBWUrDe3NdwX83cm8GPY5pV5Y4j8WLsv1bAvV8/ig0fFFeP/WOqtdlbIkpGDGSzbj3P/0+q7M2gQaCY2XC+zN45vP5vmP1s+LQt8VUjb1Z/U83sUijpFdz0e92qAKsrBYslNGbLW863r3sbIcWfEvyrwk/SIpDbKSrVdBDU4MuvofSCNFbBkAlXenvlmYsMfhkyVm8x7pXpoqMC0FyNO9d4QW+3uX3nGbuIsrk70+5QJZUFH+DyAJrzF2nylNczLUBsVQ+lcVK3oUZNs0RAcUrJd+RMMAR7/2kuyQBd+wC3tiMgM6NBofibPfGit3EMuswH9ebVbIloGbQrLmyk0zy5HDOWM1eJFV26nWy0Jp36oeaOe/70gBVqMJxuFFViMwdlA3SoCPhNZQCjTa0+dSnFqX7odfpzGLuQr44JyYul59JcekGGpHXKsAPXThyKknb4bG51k9FX47nL9R4u94RvjZd57I6qzqXJJ7uQg3Rs3hyqxV0btQAeVQsBlv0+FKoxjPq9uZej6bTGcilOssg4p2fchdS6ON8gZZ3RvUZzXoHRd+/KRTJJzehIjqpI9S+rR6thT6zEo0meKhLqgBns7YB4HurqXMHQ6yUkt8g2Urz8PlaEaeq5uxBIZDy5IlbiVrspT6rocUvE4qS5uNDSXYWVT7XZPJo6l3swL0NQd40vig36m2Gr3dkwUPSAh257iVIDua9O1OoZiQZfB9qBMLnbwVNBg5Y5UKKKWiaUSl8qrUwqej9mJRRcCFIVPb6/VHvrfkUo/cdKexJuEAFNI14rEfN3cKFtsMQzdkLJRnNvjyxqmjpXr1REvVZ3GOhxfrrTXx+6xY4UqrqHQ7c25iTJyXF8+mBuTW1CqUxkL+uXkuwGkNX7n02xQNeUGX/J7YKoMKvw345P2XQiB99lamGAi1SyxqhGoxmumxFkAQQJsuRe1+fvGarHmwBR/anvyuhe6JNLtq8zX0+t8GLokLk9TC/SGQmUNBM2gIk/4dZuoEKwBtL8Jz3a6bKploE8MXAhC7nrWn18+NGDLpDucUdTh/cBsXJZnqjcFMBcZS7HAqCuDdF8LCRQiNF9G57zBrFQf7ts3VzBkAFGWVSF0DVqEG/lyiKpLyo+P+VghoKFkbIbVsN7jOSxNRyMbFlAP++iUJJn19tcSxrzf0VqlagGJtGy6jyOAzwaDZiCreSLnTJaZwi8i4O3OcAyMvNArULwKaJJkrFwPCfCl9i3hyR3Htsf4wy93pJq2iZeu8HcxG8n7gl4YHHdv6ialyydh9Ek+w0FY/sHvq+2dySqwKf5yFRnGJxLNnOWfkPV1kcVUNr77wE9xxLMo2c9V1Rn31agGczsHsy7NrWGC3Y690J0zVNY7nRviPYmhJl8Roptc8Y5EsRlXOrayW4oiJebmzwV04qxa3GnQybdc1moxIl9TxCFdAU4wI8g+7lQgGE5zLY+Swxu7TNCXc+Bdl9SVPmWZy78uJI5mEJqTrz+9z0+ZtVAD6q1qLxhZELm7T/TVJbiYj3L1XIKL56KON+D3VVNvb1yhF8RxtWqroRHeUhWjk5KIBoTiQvPC71zew7tJFIMKCS6EFJsFWuMJuih+KkDB+2tAsre297v0rAowYATyD1J5TSRwC81nF/IOHOR9QS22Al0AZbcr3rfG3C+6E8d8RhS0tEPXflvMXRj1J5i0KCaPcByZFktOPRtQxlm4kWAHwouV+koqZXqPfV6ZB0joA8ZINKitYUkLfJp/zPRT9dDTTUdVELOe8bCbXILNfM/1wi0DbgDTUFcHZCPrlopZ759VS00xUGKYmyjWV0Lv+7BDsfTWt9cjapmSoUxdNg8JZm9wMVGXyEqs/d0i6lNJtMEMhskMrejO45LTZ4dwuti6NksrekEE240epRqdW2znlNsRhWLnb0OitrbfXK0sglz6G/uV11lomnRabXzM3sOdkW+Q+UriN5mWRnwuC2kebnwDBIBTpuqECSVYEGIAVp6mzTWgriBeD3QnSdUIlUZHrr79IjVM+dkkguhPGZ5etjmPSJfz/Jg+k6F2Q4d1oDf6EUK7ayHaXMNVOe32iXhd+N+CDfzL6T0sz5b4iSqt0gKql2fMLtuBRbXS0Pcrs0CVeR6AGQ/SWIRAXgtxAAPz8EUoqr9t+foCGEKqbyL2qzh1jrwM9P6EUkWvh/RGnhlWoLfY13JMhdSM7nCtkhZKmBZ+uLyxLLbCs96dN67K8K5/PcmAMgj68wtMqyEUSU8RNF1qdGPbyhrjUfD6puYyS61E7h7DA10i4ADwDwxPI15vtjH5itfRxhq0XDfIagpLxymf1kAu79IfLnOabNtuHai+VtYj2QCOAp6Q674mocPCp1RRwQ8/4vsCHc18Me7lncM4ccsuyx6NSWkQY+sdEcv/4mmJ45qmYOgjx8u1UT5qmMOxRJFH+daOP1QyARj2knR7apKXhQJHQXtVP0Ho62aY6/lSAak0TeDIBXRUHPNX0A/Nj8+yQD1B/Eo6eN5k4rScr0VuP3Zj0OPjg/rBHKHcvinZ+95z9Si4JMsetbgCpmttsoJqNaWOljDeeS7gDEMuMK6TrlQH6OgTwKKtB9J2F/xkaqMYtR1ZgKpJ5p+PcEAM/J1asXLXrZE9rv5qvwFLmEQTg+wBNFAyAPb+EtAPa9AgDIlZvF+ADlfS5LgMoO4IP8xSF0rTt5oUsC8L+BUqYavUWfy8fi7hzl+eAitNOz3DkqgD84cZEcN7RB7ga+RCmllkVVI3F+1O7bjTkA8kRFPsMYLmVraVDyen1RaXw0imc0AE+eJ8qBsRhH6xwurGonjlBH2/CLT7DdZoD376Ik69PVObWU7gyVRynF4ldNdGeT4O2WQFMJ6oVBsU8MgBcdvG2wYe/x8H1netVSdymlgY9tMkaBy+sznL+ggQZ7Ck0mFEFI/uH2JUv6D6Qcy5e4nWdSPxtxlXwQ1+Wi+Lk1AstW4tlgE3BHgki6vvFTr3elSBgVSM1jnvUtgSVqb8O7h7L2naOodosqNAdPQHJ9EoCXROHA4QP7SJRdIXnNexckqF4VP/+d4vHeTtSWnjve3W2Ou/hHNZvuCDqfBTmox4N6SLJzZDO7bWjhmCHgaepoZYr+sHLf3IRzcleoDSmr2Cc5UPurSCfb7Z5xo8aNVRFNcwu6TEC+XFR1N9QkQl2EEqznJrBElSThw+L73W5RhbxHRN94wGKDVEAz+FcL/wkAkPeJ6lYC+O/HrR1Az14G+LE+bijSbiXpKoJ/VlyA5yCBZX75j4cBXt4reuwCBJmiSSKRHFmS7fxpy47zEmrgy1W8Of8XylBtsNwbIT5VI/k53jF/JcwAuNHmQ1d+IqLOrNq1zMM/pDoCdepts7JETaLh3o4y/TYEqUAH32spqAdjm1mVH6hv6/Mqa4fHAfzN9rvX2xU/d+HdsGTJwH5tHsG/gBakrbEWx0pvnXeGo+MA9GjH6iUwtgtsgmlXhvxVhvOnOlx5X05i0yBBEldA/z85H5qQ0K7gu/2mADFddzSWTq7MMvfgRguG3vrTzXB+ii1itQ47J+gbDl+NHIwSYQak8vFAiqOUu+Dn3Y4AH/DkRCHFVWroYhOd3NIAj+pWNHeOHYEqe2cBqDaLxLSK5oggP9No5Kl6pCJYCX8eyjv/qITdt8S758cZV07PsLeIrYFXi5vY/ar3+0JF1STdnQu9dycSwS6Kn2NDwIObNl8eW5teQ6tOkrJyZ5iFFuCZH7wlTak4orw2jEIVBYUGFgPxCk+U5a2YWQlIqSKdZ4CfT6KBnysATwB9dJBsjAnw3BPgZerz6NSBDMC/nMfxpmJLB1WEnEX+RyloHo8CwUQ2wRFWydpLRrcATBG4SXHhL5x0cg6DfC7XD6nW3amSM5W+5u8Ov4bxqu+NuQUPNadAD9J2i+Ar/FSIq42tZxaKjBKh8v7CRU5sJ5vE3kGqMG9sU4pGq4ROSgDCIi/dIT4xIYmk7KzenbACmCkQ//1R/HlqWmqRSSxv8L1kAM875ofV4tapurw9gii/H6bqdVz5TJ8bxQC4kSHH29wHzP+fBIUgM7y5ecv432EOnptUJHHMEyXD/dJarp0KdZRd8EkJeoyqtnP+9eIkqTs3pQF4cMj23PlxabPYZvTWvI50Rm1SIDYmPjHyrFQk90WBFFPZpOifwayid/350jXnAu1/AgWN/bv8NjrNi6ICA/RPVoFbUqpGRA4PSo1LGzi47h7A3oqVUkWJz1Pt0wopV/u3qwdYONahBDpurUWelo7vbRRBBGACmsssbr1+bKtgpgEuCEd4CuAPUO0YJxPomu+jCHegnemtXHzDLV3kdB0S0VV2PxTJ+t9LEMkW2KTvAbHTzUoiqewTXpfQl6nCgbT/iP7u0AKk5tU/M1DVpKZqvBtkIXVUTcqIXYMYJ3g6m/yQddID87M0vUUDTjCiqAY7hD4/Udd45XVTtrpthwgi5PL4UOxIrDIx/crwrkoBPMrZ/5ZA5jfV5jUEwQIJ5UfMe88ujr5Jgl4WLnJS1dNPonP/FqoSL0Zyv7z78TbT4vjSDBdH5T7qn5EQfMuLW693rfDjUQ6kR8MHn57rlIWNum3hFx1VkxGw2wKN/LnI4kvRQRMmtaKcO01/zIB+yeePDT8QkEgOJJduCZd8pURqsx1BaH97mrefJFy8gkIV8YmJ8vABdQOQSiCTLCdaVcejdnkwK5pOE1DFLBDT8tLP1Nr9EID+k+dgV2yJJO2cIBDIkN7Snaw+kVQDbwHevKe1eqGMyrGZnsFkJJaSqpnRbCe8W3CjBrDrDwfNM4y7HjsTstnRKU0EeOHh35PYO76sp78X3B9f697qAb6Cy6iT3GCTkogks7G+NqAaylXBybtTKZVG2cgqtMCb14DSid77jxJWHnOSOr9efG7azWaZm07fHkdNUqkD998TBhwlGTxCtTgsJFgYrxQb4swbfRA4J0j+mvcu9h10/30qPJ+RzzYlmjPoCyGuk3eKos1F8XVu8LC1KQH7cRTtXoUPQlZ3Lmb4vRhtZTyp2m88TaLVcIJ07f9UvvAG4KHgkB6sCQE+8KMBV1vjhm7JUM1LDqT39c+EeYuiWhAPi3o/ld25/M+mabRtqQDvrPCDPxuLY/jzM/mfvLcpSZFTSF4anD9Ifi/JvyqhTbBIJNdqT5usAN5UJ8fftVTYfITyXZHRdMhu+lcZUDUF6aqGwMOBfBVgD08KkmDoahMoUeSGLHcIwo18chPoiTLA93rfTxJR6GgUlsTy3mRLiy5CcLxL2TU+KLwQSdxsKEIE3PGAGvtlpmYSOHMWQFnBXlgezIgHRdNnZyVMUms3zr/Q3PXM0tx1hgAo4KLNvY+ep3FAWGngZVenFi7tMz/I0tU4PWxLsOANBxQdGUokuYXgP5Jq4APv/Hz+DfUWbUXVLE5tT6LFFHn/nOB9dTjXyUhgJ7A+FO2yoGdlHlcmsRhRUXdV1gUH2mXS6LgTRKPVtstlHrSvT7fcS2NoxlHVl8PX30pw5y3vp1m+mUgBwXwmCnSW8t0RKT1TMkxrF5xgkdS2t1L12OLIq1M7PMrioppuvym2xLRMCW4TCWiUigQa9tj+RxVFe/n3ZLnrCYqvYPhHEsZEQU8Z4B+k53aJes+d9WjYoIVnOlVNkRvUPED2IQPqfe2x0sl5YSAy21LadoNX5htQA3spyhvCRvH+W7PkA4MoirTrafh3ueEQJYQ/cHTTCVwk03nQCzCiL+ub5OZtAVB1VoA7qKx8X5pm5pPIRyB6V5rovWotKmzGdVuChtthPfMOiXj5NZsdec0rU1oD+xHAnCa7iOC96abTjd974l56q5wvgkrphIVuApvggNKR+yyre6yK8qqQMN+1GcVSjdCVcv2m6Q6JFRLRfZENu/2/iEBgT5VOVqxqpmS/N/9BUBaYZOW9UW+ypWvSDeqG3juLB882Hcgn1cBreibYYYQA8R0JqZ/qVA2ZRyGBJjdvs0AeN62yAwYt8ym1EBZSAu2ieuAhDw2iXlBoqSoT5R7Ko7K1/8Dw+2vG3JUX+dzj0WyGAGEdRAQViVBSwcRUk+gCsXXwOdLzKPceXgdl9gmS+1Jcd1/WxXWR9gkJ8jc8X38TC4pG7n9VAJUnCmpnGpNBqfcIm53taQ1CAnA3hlEEdHQD3xET2Gu7xy2MD/L4oFXkuIDOd22KnpBap35WNJ3hfzplxFBtsbtFyvuzVofgRtXnG1gy8HTJUaQA98gWcHUeTu0dflqqauNKPfPVFFE/PWqHkgWI6fORVfHzAe7LjjyqovG3vDZyGTEDAB1UfCs8jypwmY+8Q9z6gUADr9QiGUokRdXy3oQ7ZvveffOefildrBoMcHRO5wOJJdFRRYhs9rbHVbmikg6SR/iBYEItQDQO7NW1qGWuG5F8Iytn+MEz236SgSWxK50ZTfjj/RwV2srOYLuGB/i7KSSSdYDKu02qNEPvsTMLcOJ5Opbew9/TNi0XbTWd689xKgLLFIdJVk+k1DMr/TjZ4LKkVa4lxTbbSEfDc0cUxxvRcxSvx0GAbppuJcHxG5WX30Ov//EwwMt7wMJi+p3Gny8OIAz9kGXlphI0+Bcl1sCXF7dL4uZT5PeMBTUFdhwopQm8mKrxJuj+fP4eR9WgQw94wiOXLpOJTNsmT0qop5TnSwAEOISywCEPXfgGINB6lXIoLKWNCMOt+vSNhORwht2jInhAbwd2R8t4q66jUsUzV01ACahH5klotyQVk6xqShrtTPLntkuqVhuNdkL2zl9PwClH7QYtSORhB+uvAP0UXuTqJM46JbfEoD4vdH8dhC5LZTmf5Y29kBKMpKb7QaOfQAMvzqVnaNoxlJj2E7SI1KKGX4lNcJYSSVas/Yyj8NiV3aLwAdWbhBpRC2Ef1Esp1W1qsfV+JvfRHiWdxAehbuBMKArZ3qFCFEAUY0dxMKIH5dKYpvl2UPggSoZwootdFm9J2Uas7lww5XUFgdWr0Tov6uGSBU8oqmoPhb/YfwE67cCkK0iA28Up6WdXVCqW85OoWFThzisSJ+eqLJD2/fk/hKIniqqRBVvPXRTwmxwFuYbCUkJyTOJ4GHwlW2BLeVhq0TTbRrPxmJ2cyqKD3GvD9IdS57wulU1wLn9pFDinof3w1fZG8K9X0XNsRZS93/NDCa9PN4n/kOwkUuCAYRb4mt6b5Zy19VDt8V6SwjWuZqafV84xAu0P0+vkoa8FLSTRld2K5Z9ljI1IUVCR3E23myg3w9Z62FDDY0Mr5BPZBMeaC3wNIlsCejSpxryLtUE98ATHjiIzE7ETsAudxtdcTAukHBFenlTmKvNpCmSoXiJlsrXaffQA8gxQjoBua+QabfI0dzC9t1XwhIHOWugYc30WWGWndbf4ukikByOv2IVIFRr43KJQBKsK94JG5Q0n9yuKiFSeJEuJpDGPK1fuFhIq1kpUxHVMeHGLey1Lly59IooouY9BGjwoSLV5Lyemd3uqRid9cPNn+FDqyLBowWjAeor3en+CDzS28khA0c9/jcSubKMyAi3dnPfPR7CbnebdpfCBNfCllBr4Rh/MSQErXlA20s17Bc3DhXDVQ6cp2Bab5hJL8q9BOzIkm9Cog37vZgFiBQpp6bSSzBM4fCy0aW58FcUfo6L4TPrpygPKrd6QyL8VuRPsZEDhYL7M6xK1hwUALfLo+Dzda+tEz42/VX74hYjeprdgRye5KVaTDCZINkoV8EZYKVeRSILn/ngam2B6n6dmqQxRNSeHQ7+fUiJ5f7h/QNx8gNrpHKl2WcW0gQxyKiKd3N0bduv2YccHGed0WvBIEME5Ie3CBEcdSvlRyIAmkoirhKhXbcc6I6KoE5v0vmstepMShcn7VzuIB02kyjd0xe/k+/TfZ0GlBc1KIE1TAJQoGqxsYO5/VcArw3kt6IheFjsuinmY5+0hAZmI35mMur8kuYxcDCJ+/eAr+jKWDzz/zQ3KFqMiwYq5wsKdILkvMtYC6L4sI9HgPcM+IXkvZFncRkUFlZTv1vcTjAZjF4TV6AlBAcLnklCRc1FFI14Q+9Cb/2MTko0VKygXwRRUlD7JNqmZ0CMVXderfIiVzRb892SogY97s02aQ/mWCF+vokY9b1lSSALuDxINcWxY8pj2fiKFyHNU5fFkkxbJguy+IuZN/95kHXCWyO5bKqLrlIUqAQdckFZyYT8UOb/huUkhZgrK4hWGTZYT97bOInMNPNFZCTXwSv+f/52YoKUBUPlbg0+0+8+AZaBnyYpAaCE7cU+QTqqoK396C8GuWecX8//roO2PinAqt8n5z/K2v9hSgI/I9CvqoKAWwVIT5l1A4mGamzclUTo0srWG9lg5WRaaeB/NnLdeP76kkexxwxEk9PGxJZLw8TGRef4r1SSSpM55upK2xu8BDFqTKbWsfOB1YjNhPYOmQX6QkQlaEHTQjuXlCY3ZqjqYigCkwTnsrHHUyzXMnoGe6i6zQFwVE5abz+qBnQAD10ZdRVotKjDb5Lz3fd4mF2YR4Fu3kPDNzXLItzRjm1rZ2MG7MEGZf6vnpML5MBAfUASaoOl0CfkW49tE+ZPw/MpXble3OQENEjQqp+f1yRl+dmXaMudfGrs5e4XCZ2mmFEhIhvvJBHmLWsKCyyTf0gDVJYuNWKjMC1G/Ir+eFyV1nk0/nPLqzUmlNn4g67V/exiKnFqUg9wwhx1GGfqcd00Tksvtd1SqRe7zqcCnmRykChoeA3VO8FA2MZGdstoR+ZoTrERyoUgkF6JALi7Ai0wQyd9qGnhOHJaSSyT9nwYLagZOibqVIIQPCWsZSlGmflnsDFUCuAcFXhlQycXy5+S9s861dqbA1M5arMlscPGPptX3ZxlXdrYK3EvorVrvxipLJKm8P2Yjhzl6FAPJaM7bgK1uKxJMZTpiYD9EnCryaqe5jjI5ewQDvC5EKjS6kCqr3JeFEvw6kHqLCqRKsQFUtabLUiJpLEsIQFO4tkoj8BOyvD57DmklaIogixlQf4IbO/zqIgOVr4NCyzsfOz0omIy1Cxn7Qb3FcvN+FHdClqvfNyS3UHaBAkfhXJbKp6RR16GgOTjbvKt9KRkrPQwAujd/SiPAFXDE1hL1PuW7k4T7LbX5/ASqk5yVhx3cSvVAQHeQq6Apnukb0HPXFrSeLejJjwsfK4lRuIwmSDYWIzqH/ctMlVH+vQnyXUWogbhg59wsud1K+4Rg15JMA4+vNPhpyyyBGdlgJh1VM61kwr9FIjdM1YTyde82su5c/nruf/EHVBND4mwXAG/t0S8/Buf6iT4H6OLABoZtS2ajV0TFamX8aaQirT0j+ULZs8S7V/dhbMAci1sA5l+WUANfqmiD1360gyhvpsqVoPmviPZXJ0JbQf8F6gx4+uetFawCzdIsU1esgadtP9dLSJETtu5JNPAMjvAgekZVDXwu/4UEBneBLTeBzfIsF2lJMgKYoWFP+NzL4rYF1dbNCCKUUdvTgkbv6fBJ+wZ9uhaGiDsurDz0TjiQl6LamgJGdFFTPvhQ6n3E1ADZ3OBRswnw4YTGB6BdV6XwbcMlB9WNeJDIuzpGVKoSgP6KFBp4E02pBGK7JGkL8qDx/ExoLniWEj0ByMP7iIDzW4F9QzZFbemcP7mKF/mCkFzwwgQaeFFxXSMtLNXOOPiKRvXJbIIt8IbBJbvdu3887uOkGnhp0k6V1/s1aZcYBCe+qX4PKLFCBnmY6VD+rjN6rkz+ZAQUnv5/Cl5+CfWQ6XyX9y4Ighq6F0xvDesu+4osP7dUHzZvhT6uHsbJFhUDVVWAiOLBXo//Q1I6PDNOMiek8DhPWto1XCpuCrbMXPwDbepE6qYeiMJsRexyowZJ47z3TfHgmUVwnwHy+IokHF3rzpCXTnEWaKxdTEV+eeZzQNXdfuziGtMsBX/bEWqwrb4+OchJxFTQSGEa0YsvzVgiOY9piHfE7l41sxH4FbJYNsMOoLLxu3dxVlSNyE8FU8LXLlE3qs0ROEk0Xv5cvavovX8NbILJY1gjw5PZmuQY7hHxilmN4KNAHm208oFDXFCgU2phxD4pySV+GMfQeUeusYo0qT6Pl/e/NBBPA2+2c5CQgXsTPTNMnwIuL9uK3MYKflTlJs/Zlap4qUPJumZ9VN5XfTk0xDCLkl8B9M2euxJTfCa/tHRgWeDropunwJM+gkYpVTnCbRsvqCaRhI9OQq8XAfhb0laJVlOJwIgthU2wWdzovX8j6vNuBlWDCJl20n9n58tdae8Jpuu+F16UK5Q8sBIxORv/SH3PgH6k+fvu4sXLnmJlrP6ZWOgRCNLfvojyPVvFn2fWAX7mm8PWLb8+VFbflIhekoM6Ymdd7j3gLlElGbrGzrirPxJpgXwvSVMTqnCs3J4hs298T0pqjkoZA1ZJzUtRWxnYmzu/DuoM6UjUBlF73UUWqi00CsG2XhYpfX9lNHclXTksu7Bg7ihgkN6z8uD19/d3S48EBo5iA0dAj4mmXssYK8z9ct720M6l/tEb1HlcIzbBWRWnVWrg+/VCW4zx3ifDJmhNTOQHO0JUpKp84UMRhW+FGtdcUBYYu+S5Ep+fsIS0DPDe6AyAx/NHCVbeCZ1rcoNkxY7cjrGnJoAXaq0tAD78Adnyc/8r8PxQplfTQTl4MlVJKQRck/JhqYd9A7ZiUrwUKipI9H7YmuGGWDbJqmM7fZDnhRdBPHRWDuX9EokqARAF9nITTUqSWG3/y4eqaq34feZGEa2Udwv5cTyUWGAigL2d7VA7Q9HRAiQ1YQQlUXB47ljRNalcIEu15k79flHfU0FiDsZ35DUjCUEdGfZah9UH0CdB+wHVOxDBDvQfOa3qDHS1I0d6fcfa31va8HnlsF2nvF9mqamWZ8K2EPSuw2vEec/6ONLuhs5oheY7pKr50lKa9yTXrA+876UDR0oXqFdG3a9osIOkqVhLlwHe+yMWX7OIU6ctye2YRWGJSV6X5JxJOt01beANVBj/mIa8/reRLZcbQdQaSpq3iyOfyRkH/t/+rFDx8PkD+lw70UMVcjJsbyJ2FqkMsYhawTZ5Y0yb4ECmhoIwvdBosMLuAPwcenkiCkRUoR8YySEoz5TwVj/wpenzK28+nsPb7TbSP7WPu9Tom34umSeFfe9Jh/0Umrs3mGYcFP1YWmIg0dzpB5c/5/vAjdI9dRG9xmuUqmhGVLgEwYxtpvIdKJA809eg+oGfm2tG3sN8DXIf82bSIIaa+h7ObR1V89+ud5R/z/jiL89SYy7zb6y70Y+51/sRaJZGrqvi+vJmrr5HYHZ4lhLORlgGFEChHzFkjABVuo6f0/ELfLWyRe/H4YN+9lP+vcqDGoPQPF+NJkEqaJqnGrWgWcxnFS6xKs8/B1JKua+NEyzz9KZojhYhus7/bCZ1lRllgzeFiJrexBqTRICXNnueh1fE8BH1O7YCNb8ek4tz0k0ysGjRoidE8G5pIgIVReWPAPDGlEgWg201J0u0UVEY6MuRKVkA48Mmm2RQEUiSyWuH50MB2JTZ4tHuxUQGpLHFrsHaCOeeHQZx3cd2Lo6o5trwJTd9AiAzo4fRWBrbuXu41tzxgr3DUC9kemUSX/TgYUstDeEjIrNW0ljzOmr7mtQ7mraryuDaWk4H6vsGgIyeBraCOvcY7KotHZt7RPjg/39M1IG/g1XFwuqRdmeV/+tshApr2xHqZ9rBCanH5nL9B5tO7GRUBDAi0LzWyIKIq6LV8C769yYsAqAUoBO12xkfD+3nURGGrQsoIALxR4UnJQNgn/EB0MP+2kDLHgPgbRs2cGn9B1fjQKP6pjJgPYKipP0pgjvUcPakZTY+8Kb6DYls/xymKVZhi2/kWPn8C1FdGHU+eZ0sStXbCeijohs8uNA+E399GOYOdRqcxDrbzJ3Z6cED3h+G9TWqChE1IeFV53X2nAbMu/Fosoigc5b/fna21tUkWigIwOpH0dJTc7mB5yGpBFBDtxwAFjLf4MAlUVQtS96EB1Br4M/0vX7h2uL6fI9IJFjnxpoX1Us1LQBG9bDdHR/YjOeuU3oCNxgsdAo1Gfuov+AmPnezk+a4dqHNkh6zCGjzdL/nLI5qkXqV9zkvdG9V9KCYq7bEnRmATnCOZkZVlT7w3idi6mdZImlUFb8XnW+MyCFoni1zpT7wzvA2WTckb6DB9O4+zP0B5UFo7sIPTKcAVPj3XaTuhhsZraICTPKAyXZYA5b8fytXNd0XE4mhuAAvpf/oC1pezFJvDduCx5yrwO/mzg033KgAeJuE8a6K08hB5Ixhz4qO3b0zuxtuuOHGXAJ49MlESXIsm2ClgUdSWNMpbmbdcMMNN9oE4FHYorrGNwzwor2OKGJxww033HBjFofu7XikaKkblkgywNPxQNnrumO3btbrhhtuuDGXAF408G81YJ1LoIGn6l0UGukdgRtuuOGGG7M7lETSPyemY15JaeBvkc4vDuDdcMMNN9oN4NFNh7vGN+iGqTXwV2Ts5OeGG2644UaaIdWF0N/DfIgNzWIVOXHvxq8H53QA74YbbrjRBgCvHfOka3wMDTwO6x3uf9gBvBtuuOFGGwI8N+udYB+ahiSSXq+lcZBk1Y0AOpwG3g033HCjfQDeuBFSN52EGvgSAfyr+ZROA++GG2640Qajs9w3Ea31TEOS2AAPDTx1+jlMRe8O4N1www032gXg4RduGmrk4gG8jfj9u2B1jPPs7na9brjhhhtzBuDlGzIZO4/17NIjdcokW2sd9Hu2kbL3J2kg4QDeDTfccKM9RrmfLMkcpWF1oweieDRIpsXhV+jK5ADeDTfccKPNAB7+82iqa+SOjdkTBIeVSHoXyAkdwLvhhhtutMcI2mahIzrMxqiFYB/6dtY7evkr/d3SgSUD+0Wc0w033HDDjd1ssXDDDTfccKPNRqKmwkzJuMImN9xwww033HDDDTdmb/x/LnPJkhc6h94AAAAASUVORK5CYII=;" vertex="1" parent="1">
          <mxGeometry x="720.49" y="405.5" width="75.2" height="40" as="geometry" />
        </mxCell>
        <mxCell id="BevlEe6jvOrSzMGnIV_--38" value="&lt;font style=&quot;color: rgb(41, 153, 255); background-color: light-dark(#ffffff, var(--ge-dark-color, #121212));&quot;&gt;Azure Data Factory (Data Orchestration)&lt;/font&gt;&lt;div&gt;&lt;font style=&quot;color: rgb(41, 153, 255); background-color: light-dark(#ffffff, var(--ge-dark-color, #121212));&quot;&gt;pipeline&lt;/font&gt;&lt;/div&gt;" style="text;html=1;align=center;verticalAlign=middle;resizable=0;points=[];autosize=1;strokeColor=none;fillColor=none;fontSize=16;" vertex="1" parent="1">
          <mxGeometry x="499" y="255" width="310" height="50" as="geometry" />
        </mxCell>
        <mxCell id="BevlEe6jvOrSzMGnIV_--39" value="" style="rounded=1;whiteSpace=wrap;html=1;fillColor=#FCFCFC;strokeColor=none;glass=1;shadow=1;gradientColor=#ECECEC;" vertex="1" parent="1">
          <mxGeometry x="273" y="145" width="686" height="80" as="geometry" />
        </mxCell>
        <mxCell id="BevlEe6jvOrSzMGnIV_--40" value="" style="image;aspect=fixed;html=1;points=[];align=center;fontSize=12;image=img/lib/azure2/analytics/Azure_Databricks.svg;" vertex="1" parent="1">
          <mxGeometry x="449" y="163.5" width="43.41" height="47" as="geometry" />
        </mxCell>
        <mxCell id="BevlEe6jvOrSzMGnIV_--41" value="&lt;span style=&quot;background-color: rgb(255, 255, 255);&quot;&gt;&lt;font style=&quot;color: rgb(255, 94, 59);&quot;&gt;Unity Catalog (Data Governance)&lt;/font&gt;&lt;/span&gt;" style="text;html=1;align=center;verticalAlign=middle;resizable=0;points=[];autosize=1;strokeColor=none;fillColor=none;fontSize=16;" vertex="1" parent="1">
          <mxGeometry x="501" y="172" width="260" height="30" as="geometry" />
        </mxCell>
        <mxCell id="BevlEe6jvOrSzMGnIV_--42" value="" style="rounded=1;whiteSpace=wrap;html=1;fillColor=#FCFCFC;strokeColor=none;glass=1;shadow=1;gradientColor=#EFEFEF;" vertex="1" parent="1">
          <mxGeometry x="273" y="470" width="686" height="80" as="geometry" />
        </mxCell>
        <mxCell id="BevlEe6jvOrSzMGnIV_--43" value="" style="shape=image;verticalLabelPosition=bottom;labelBackgroundColor=default;verticalAlign=top;aspect=fixed;imageAspect=0;image=data:image/png,iVBORw0KGgoAAAANSUhEUgAAAMgAAACcCAYAAAA6R+R/AAAACXBIWXMAAAZiAAAGYgGfz/hYAAAOiklEQVR4nO2dX3LbOBLGoa28OzmBvc+qoaUTyHOCaHSBcU4Q+QRRTjDK+1bFvoDGPsHIJ5DMKj1HvoF1Am3B05zQGhIEQDQIgN+vyrVTa0ciJTb6D75uDI7HowDdMljtRkKIeyHEOV3IoxBifpwNt/hqugUG0jGD1e69EGIvhDg7uZJnIcToOBu+9O5DCYj/9P0DCIBlhXEI8ibz3n0agQEP0iGD1e5KCPFXwxX89zgb7pP+IAIGHqRblhrvfpvyBxA6MJCOGKx210KIS413n5CnAR0AA+kASsx1vEcBvEhHwEC6YVGTmNdxPljtFol/JkGCJN0zg9XuQgjxw+JdD0KIC5R9/QIP4h/bcOnMMCwDDoAH8chgtZsKIf5s+Y6/HmfDdVQ3HjHwIH5x4QGQi3gEBuIJSrLPHbzbhErEwAMIsTxAifnWsHKlAgm7J+BB/GBa1m3iDDotP8CDMKOpt7IFOi1m4EH44SzNYoedGRgII4PVbq6pt7JlQqVjwARCLCYUjVCueT7OhhcpfGYhAg/Ch+vEvA7otBiBB2GAesw3Ht/yQO25SNgdAw/Cg2/N1Bl22HmAB3GMI72VLdBpOQYexCEWjVCugdrXMTAQt8wd6a1suYROyy0IsRzBoLeyBToth8CDuKNuvpVvkLA7BB7EAcx6K1ug03IAPIgbQkyOodNyAAykJR70VrZAp+UAhFgt8Ki3sgUDsFsCD9KOUBLzOjAAuyXwIJZ0oLeyBTqtFsCD2BPLrjXmabUABmIB7VZPIrrkjxiAbQcMxBBKzLk24r7RDwfwIhbAQMzh0lt9Pc6G8lxC+fp3DK9/SSVpYACSdANaDJ5u4k05lrF8DJ2WIfAgZnCFKfPyQ0v/zRHGQadlCDyIJox6q8fjbFiZQA9Wuy3TLv0YR0zrAQ+iD5e2SZUXcOUMSNg1gYFoQMktR2L+TbWSU/vsA8P7QqelCQykAcay7kHzdef0t65Z0r0BBTCQZrj0VnOdahJJRDhCIui0NECSroAxMX86zoYjg+t4T+28HGEeGqsUwIOo4SqJGq3c5GmQsHcADKQGRr3Vnc3squNseC9LwgzXA52WAhhIBYzzrXQT8zq4vAjac2uAgVQzZ0rMl23ifSoJc4gZz6HTqgZJ+gmceisXxxRAp+UXeJB/08WOuTbMOi0k7CfAg5ToQm9lC3RafoAHeQuX9+CYl4uyrwdgIITDg/5P+caxEUelYo7GqgkGYP8EBvIz8eVYkduWdZtYMOm0FtBp/Q0M5G861VvZAp0WP71P0mNKzOsYrHZ76LR4gAfhC4F8trZih52JXhtIaHorWxh1WpO+67R6ayDMeqsu4neuylOvvUifPQjXQf/LLuQalCtw6bR6Owmll0l66HorW6DTck9fPUhMO+baMDZW9Van1TsPwnjQv7eybhOMOq1ffRYfQqCPHoRrJQxJnsFVJOhdLtIrA2HUW30NaUMNOi139MZAKDHn0luFGJ9jnpYD+uRBuMq6rHorW+iaOAz3rE86rV4k6SnorWyBTqsdffEgXCFQDJ132GFvQfIehJLK70wvX+Qf0lDWoW6kDVa7NZPm7DfSgSVL0gbSwUH/UjAoH5j7kMKPVJUDPkg9xOJKzOuQq/Qf8mGUm3Vy1hQ9nJ1CxvqV4RqS12kl60ECO+j/gUSMne1CM+u0Rqkm7Cl7kJD2Jj7KKprMBbraaGPWaSXrRZL0IIx6K1fIXGXRhUdhTNiT1Gkl50EYG6FcMil5FN85Ctdqn6TaN8UQi+s8QQ4mlNB7C1EYdVqXKeq0kgqxaDXeeq5cueJJbur5GPuJxip9UvMgXPOtfCD7NzY+jiFg1mkllbAn40EY9VZd8EDehHUlhk6rmZQ8SEpJoiwL+0jgodNqIAkPQmHJH45fVpZiXyineSkJE19UeUJpjtQF/Yzox2alljH9FWdeMljt7skgXZOETit6A3GQcB4KsSH975YjPKDrlIZyRT+6exEHCrdYHjbotNSkYCAytPps8E8OZAxrUuB2JlmnDc3ip8nAPx1nQ5bQhcrMXxheWrYiR520R20gBqvfU0llG2QPR8lYflf8GUvyS95ty5CwR6/Tij1JVyWZshL0SQjx4Tgbyi9pEfLRYjKEOs6G8n4+CCFuZIhS8WcsveA497Ce2D3IaWn3iSootylsVtHOdDGJ5Y4MiPP9oNM6IYUcZErJ77pvQ81cw9gi8CS9eLd3Z0fvD9CpgjzTxcmPisIwZQi3j/mU2MFqd9uQB9lyc5wNowu3em8glOgXpdeRw5Gdj6XycbD96qdAp/WWPk93n1KSzzHDtoog+9WrYNp4FXTib1QztXplIJT0cp0qZcIDGUqwkgxGndY4phC0D2N/iiOerwPsEynGBnVy6I6KPg/bK5Py0IbCMOaRSODvqA03pHFBvddppdyTvoyos7DMNzKUzj0KYwPaM+2wB5+wJ9UwJb0GrXp/RmocgnRlex+NU02QN+MozZ7HMgA7tYap+4g7Cqt4JiVv1/O0eqvTSsKDkBr1r8SMQ9BDWUw/6SSx7fu5h7FrsYoRPxw7vyGCeVqeidaDkHGse2Qc4mSelu8RO1wPcdDtuVF6kJJx+NoFD5VnyruW3LE8owcRnM1gbYnOQGActRRSf6ddklTqXTB76ofjbDhlfH1rojIQGIc2zyc99trhERlE0Ts/9VQuPxxnwyAPBo3GQGAcrXkmla4oTWoRZAzFw9mZRu04Gw66em8V70K8qFOYjeORHpzyj6C+jjdxPa2uRW9I8WAVMvnQS8znJW/QtVgzGqIwEIqtXRjHY5vxPvT3xb95E7aU+kqmTPol0AHBh1gWY33KPNGDfO+z1k4ebwpj0SZYhW/QBmJ5Qm1RzQmiMYk8y3WgcvtQCLYdN1gDoQECa83YPiijqINUxnPkAG8IuhU3ZAPZNuQdh9ImWVRDEsj45z1TAdQRdG9IkAbSkHc808bVfeyzrzxtwoVMsDvoBcEZiKLVszOhHjelPCWW7kcXBG8cIlADOR0WcBdjGGVDhG3CNsgIYBrL9xmigRSDy4Lr0fZFwoYSTDuxLqHmIKM+eIwmSvspi8hLxNGGx72frBgLtCc0j0yLFn3eCAOJDCpizAPfoX+gvDH6ggoMJFKo8lUMxAshT/HWvOUTGEgCUPjVhe7rUJo3HP2BnVXAQBKiNJT7itFYHksC0PRL7zCQdKF85arUu2KiAStO/92SxN+oMzEVYCA9hLRgdS2u2xSOr3MFDAQABUnN5gXANTAQABTAQABQAAMBQAEMBAAFMBAAFMBAAFAAAwFAwWD0yy/3il3VU4rJgvebPG/U4Yyz7IIOuGk7mHi5yfN/xHDjLJvWnHq03uT5ouGaTO5XxbzuMxhn2YIkHsr7cInivq43ee5UXevq/sZZtiQZjNbrjLNsRM1jdd/fP/9unGXFLLI2vLwzFLUVWp4v4yx7nS6yyXNV4/2FI9HcmlSjBXWzpSb0AapwJeKbkk7pDeMskw/Ol5p/Mxln2YdNnjuVctB71t3XRWlcqov3mirubyQXRYP7q5tcc/p9y/d9rzEnrfzdX7uYP9YmxJItoN/HWbamiwc/vxgVUZzuqkB1/We0cHDQdEDrzSbPnYspXeQg0kr35P56DYWUTTOufB+d5gy6v6ZVucmDG0Mhnep97zZ5zjK61FWSLi37Fp5E6+E/p/g4RnQe/nMK+ZzQELIKGjvL5pVdVrEuOVaPgKmKs3W/qOgMhBY/3fDJyQNL76lK+mXPytR1TldGdT7IY8XJplcNru6zrExoVk3uDE44ddm5Nq6ogkwVCWPdCvXmmsgr6PaGy2R9pFMJDAiT+/tIyXrb4kBT3jG1eI8D3YuOUb2oDKSyZEouT3XhU80D4m85kqomah5KWWioM5B7zes0XTXnkXkSm/uz9iQaeYdtUr41KUUbh1h0UapQStcNB3lgig20aJjOq/o9lpyNSrumg+uuW9yfqpQsWiblF1Rs0MLqCDZ5cRRSVD0UurVnuZei+hAKxhGEIraeYB5J3mbjCYqSr82AatVi0zYpl4b+Y5xlTX/3sMnzaZskvdZNOV4Zg15lNUq7D4rfBR9iaZR27xS/c2387El5idfnjkuL1ac9EdVD/kS/P9T8PoaSr+ohf2z4vdOSr2VS3gqIFdujcvdLWu1USWGwBqJR2i0qliov4nKPwnuozWUgvZjM3lDaPZQMQ5VQTgJWIaju77lUDVLlGR9NkuIGvMua2hhI7criOEYMeUaTanXck3jviuLZujCr6XW6RHl/8t40QyhX93fp0UhenzurKtY4y1Rj+B81X+aGSz/jA43S7mXNUXJVyJLv3FPyqYVGaXdicH+y5LtwdH+X5JFtQ1OpQh/pXouxB6EHQ5WY6W7CxB6Guc4dQvMiLq/HVOV7RwWOOuSCYnu+4d7EUFUe5Ip2M9/8fxr7HLoGMjeocNzqVi8qrrmOte1OvqZq15Rrpj2RhWxJ0Pi7F/qcXzRVu8bXYbAnsqe/3ypyIGkkMpw3XagmBs/IXmUgE4sP6atBGe6jYfOS7k3pbD4KWiFtY1mOytNrybehAc0G0+9xyWSoryVf3UVJPke0gKqapKSRvGzy3NTb6T4jTqtYT5oarFBoc+gMVzjUdcn3vaFq1xSjz40UFE3X8plzL8kqSa9AGsdVSEkmFxqq3YeG/GqqSO5DUPly3p+xyld6nHGWfZLdq4o/+07hlvNz110YyKPH7f8QUK2Ccm9AueJRcvlD8Sddq3zb3p/MQTcNr2/qSW5JO+XdSNqEWNJr/LbJ8154DvFzqoaqtNsYYmrsPLtO/k24aCjtNuYm5P1UpX4r46cHX/W5CTISpyrxd/Smujuda6owrDXd5JZcctuNndPEbuEgkTyttn2r0JCdykReFPezNdjXKVbQqs/dWGtEYYjJ91iFvLf/KV5Dfue6q3PhJZru76Ymx6hM5GXFapxlTXlJ8d209yRC7P8PLPh+sKVx6hwAAAAASUVORK5CYII=;" vertex="1" parent="1">
          <mxGeometry x="474.36" y="490" width="64.1" height="50" as="geometry" />
        </mxCell>
        <mxCell id="BevlEe6jvOrSzMGnIV_--44" value="&lt;span style=&quot;background-color: rgb(255, 255, 255);&quot;&gt;&lt;font style=&quot;color: rgb(13, 190, 201);&quot;&gt;Delta Lake&lt;/font&gt;&lt;/span&gt;" style="text;html=1;align=center;verticalAlign=middle;resizable=0;points=[];autosize=1;strokeColor=none;fillColor=none;fontSize=16;" vertex="1" parent="1">
          <mxGeometry x="561" y="500" width="100" height="30" as="geometry" />
        </mxCell>
        <mxCell id="BevlEe6jvOrSzMGnIV_--46" value="" style="shape=image;verticalLabelPosition=bottom;labelBackgroundColor=default;verticalAlign=top;aspect=fixed;imageAspect=0;editableCssRules=.*;image=data:image/svg+xml,PHN2ZyB4bWxucz0iaHR0cDovL3d3dy53My5vcmcvMjAwMC9zdmciIHZpZXdCb3g9IjQuMDAzNTE2MTk3MjA0NTkgNi41NDMwMDAyMjEyNTI0NDEgODcuOTkzMjU1NjE1MjM0MzggODIuOTEzMDAyMDE0MTYwMTYiIGhlaWdodD0iMTI5LjU1MTU2NTY0NzEyNTI0IiB3aWR0aD0iMTM3LjQ4OTQ2MTg5ODgwMzciPiYjeGE7ICAgIDxkZWZzPiYjeGE7ICAgICAgICA8bGluZWFyR3JhZGllbnQgZ3JhZGllbnRVbml0cz0idXNlclNwYWNlT25Vc2UiIGdyYWRpZW50VHJhbnNmb3JtPSJtYXRyaXgoMSAwIDAgLTEgMTA3NSAxNTgpIiB5Mj0iNjUuNDI2IiB5MT0iMTQ1LjMxMiIgeDI9Ii0xMDU5LjIxMyIgeDE9Ii0xMDMyLjE3MiIgaWQ9ImUzOTljMTlmLWI2OGYtNDI5ZC1iMTc2LTE4YzIxMTdmZjczYyI+JiN4YTsgICAgICAgICAgICA8c3RvcCBzdG9wLWNvbG9yPSIjMTE0YThiIiBvZmZzZXQ9IjAiLz4mI3hhOyAgICAgICAgICAgIDxzdG9wIHN0b3AtY29sb3I9IiMwNjY5YmMiIG9mZnNldD0iMSIvPiYjeGE7ICAgICAgICA8L2xpbmVhckdyYWRpZW50PiYjeGE7ICAgICAgICA8bGluZWFyR3JhZGllbnQgZ3JhZGllbnRVbml0cz0idXNlclNwYWNlT25Vc2UiIGdyYWRpZW50VHJhbnNmb3JtPSJtYXRyaXgoMSAwIDAgLTEgMTA3NSAxNTgpIiB5Mj0iMTA1Ljk2OCIgeTE9IjEwOC4wODMiIHgyPSItMTAyOS45OCIgeDE9Ii0xMDIzLjcyNSIgaWQ9ImFjMmE2ZmMyLWNhNDgtNDMyNy05YTNjLWQ0ZGNjMzI1NmUxNSI+JiN4YTsgICAgICAgICAgICA8c3RvcCBzdG9wLW9wYWNpdHk9Ii4zIiBvZmZzZXQ9IjAiLz4mI3hhOyAgICAgICAgICAgIDxzdG9wIHN0b3Atb3BhY2l0eT0iLjIiIG9mZnNldD0iLjA3MSIvPiYjeGE7ICAgICAgICAgICAgPHN0b3Agc3RvcC1vcGFjaXR5PSIuMSIgb2Zmc2V0PSIuMzIxIi8+JiN4YTsgICAgICAgICAgICA8c3RvcCBzdG9wLW9wYWNpdHk9Ii4wNSIgb2Zmc2V0PSIuNjIzIi8+JiN4YTsgICAgICAgICAgICA8c3RvcCBzdG9wLW9wYWNpdHk9IjAiIG9mZnNldD0iMSIvPiYjeGE7ICAgICAgICA8L2xpbmVhckdyYWRpZW50PiYjeGE7ICAgICAgICA8bGluZWFyR3JhZGllbnQgZ3JhZGllbnRVbml0cz0idXNlclNwYWNlT25Vc2UiIGdyYWRpZW50VHJhbnNmb3JtPSJtYXRyaXgoMSAwIDAgLTEgMTA3NSAxNTgpIiB5Mj0iNjguNTYxIiB5MT0iMTQ3LjY0MiIgeDI9Ii05OTcuNDgyIiB4MT0iLTEwMjcuMTY1IiBpZD0iYTdmZWU5NzAtYTc4NC00YmIxLWFmOGQtNjNkMThlNWY3ZGI5Ij4mI3hhOyAgICAgICAgICAgIDxzdG9wIHN0b3AtY29sb3I9IiMzY2NiZjQiIG9mZnNldD0iMCIvPiYjeGE7ICAgICAgICAgICAgPHN0b3Agc3RvcC1jb2xvcj0iIzI4OTJkZiIgb2Zmc2V0PSIxIi8+JiN4YTsgICAgICAgIDwvbGluZWFyR3JhZGllbnQ+JiN4YTsgICAgPC9kZWZzPiYjeGE7ICAgIDxwYXRoIGQ9Ik0zMy4zMzggNi41NDRoMjYuMDM4bC0yNy4wMyA4MC4wODdhNC4xNTIgNC4xNTIgMCAwIDEtMy45MzMgMi44MjRIOC4xNDlhNC4xNDUgNC4xNDUgMCAwIDEtMy45MjgtNS40N0wyOS40MDQgOS4zNjhhNC4xNTIgNC4xNTIgMCAwIDEgMy45MzQtMi44MjV6IiBmaWxsPSJ1cmwoI2UzOTljMTlmLWI2OGYtNDI5ZC1iMTc2LTE4YzIxMTdmZjczYykiLz4mI3hhOyAgICA8cGF0aCBkPSJNNzEuMTc1IDYwLjI2MWgtNDEuMjlhMS45MTEgMS45MTEgMCAwIDAtMS4zMDUgMy4zMDlsMjYuNTMyIDI0Ljc2NGE0LjE3MSA0LjE3MSAwIDAgMCAyLjg0NiAxLjEyMWgyMy4zOHoiIGZpbGw9IiMwMDc4ZDQiLz4mI3hhOyAgICA8cGF0aCBkPSJNMzMuMzM4IDYuNTQ0YTQuMTE4IDQuMTE4IDAgMCAwLTMuOTQzIDIuODc5TDQuMjUyIDgzLjkxN2E0LjE0IDQuMTQgMCAwIDAgMy45MDggNS41MzhoMjAuNzg3YTQuNDQzIDQuNDQzIDAgMCAwIDMuNDEtMi45bDUuMDE0LTE0Ljc3NyAxNy45MSAxNi43MDVhNC4yMzcgNC4yMzcgMCAwIDAgMi42NjYuOTcySDgxLjI0TDcxLjAyNCA2MC4yNjFsLTI5Ljc4MS4wMDdMNTkuNDcgNi41NDR6IiBmaWxsPSJ1cmwoI2FjMmE2ZmMyLWNhNDgtNDMyNy05YTNjLWQ0ZGNjMzI1NmUxNSkiLz4mI3hhOyAgICA8cGF0aCBkPSJNNjYuNTk1IDkuMzY0YTQuMTQ1IDQuMTQ1IDAgMCAwLTMuOTI4LTIuODJIMzMuNjQ4YTQuMTQ2IDQuMTQ2IDAgMCAxIDMuOTI4IDIuODJsMjUuMTg0IDc0LjYyYTQuMTQ2IDQuMTQ2IDAgMCAxLTMuOTI4IDUuNDcyaDI5LjAyYTQuMTQ2IDQuMTQ2IDAgMCAwIDMuOTI3LTUuNDcyeiIgZmlsbD0idXJsKCNhN2ZlZTk3MC1hNzg0LTRiYjEtYWY4ZC02M2QxOGU1ZjdkYjkpIi8+JiN4YTs8L3N2Zz4=;" vertex="1" parent="1">
          <mxGeometry x="474.36" y="70" width="52.69" height="50" as="geometry" />
        </mxCell>
        <mxCell id="BevlEe6jvOrSzMGnIV_--47" value="Microsoft Azure Cloud" style="text;html=1;align=center;verticalAlign=middle;resizable=0;points=[];autosize=1;strokeColor=none;fillColor=none;fontSize=16;" vertex="1" parent="1">
          <mxGeometry x="531" y="90" width="180" height="30" as="geometry" />
        </mxCell>
        <mxCell id="BevlEe6jvOrSzMGnIV_--48" value="Presentation Data" style="text;html=1;align=center;verticalAlign=middle;resizable=0;points=[];autosize=1;strokeColor=none;fillColor=none;fontSize=16;" vertex="1" parent="1">
          <mxGeometry x="1028" y="585" width="150" height="30" as="geometry" />
        </mxCell>
        <mxCell id="BevlEe6jvOrSzMGnIV_--49" value="Processed Data" style="text;html=1;align=center;verticalAlign=middle;resizable=0;points=[];autosize=1;strokeColor=none;fillColor=none;fontSize=16;" vertex="1" parent="1">
          <mxGeometry x="536" y="585" width="140" height="30" as="geometry" />
        </mxCell>
        <mxCell id="BevlEe6jvOrSzMGnIV_--50" value="Raw Data" style="text;html=1;align=center;verticalAlign=middle;resizable=0;points=[];autosize=1;strokeColor=none;fillColor=none;fontSize=16;" vertex="1" parent="1">
          <mxGeometry x="120" y="585" width="90" height="30" as="geometry" />
        </mxCell>
      </root>
    </mxGraphModel>
  </diagram>
</mxfile>
